SplineFontDB: 3.0
FontName: GohuFont-14
FullName: GohuFont
FamilyName: GohuFont
Weight: Medium
Copyright: Copyright by Hugo Chargois - Licensed under the WTFPL - Converted by Guilherme Maeda
UComments: "2015-1-21: Created." 
Version: 001.000
DefaultBaseFilename: gohufont-14
ItalicAngle: 0
UnderlinePosition: 1
UnderlineWidth: 102
Ascent: 1638
Descent: 410
LayerCount: 2
Layer: 0 0 "Back"  1
Layer: 1 0 "Fore"  0
XUID: [1021 509 1242700312 10748723]
OS2Version: 0
OS2_WeightWidthSlopeOnly: 0
OS2_UseTypoMetrics: 1
CreationTime: 1421861378
ModificationTime: 1421861642
OS2TypoAscent: 0
OS2TypoAOffset: 1
OS2TypoDescent: 0
OS2TypoDOffset: 1
OS2TypoLinegap: 0
OS2WinAscent: 0
OS2WinAOffset: 1
OS2WinDescent: 0
OS2WinDOffset: 1
HheadAscent: 0
HheadAOffset: 1
HheadDescent: 0
HheadDOffset: 1
OS2Vendor: 'PfEd'
MarkAttachClasses: 1
DEI: 91125
Encoding: ISO8859-1
UnicodeInterp: none
NameList: Adobe Glyph List
DisplaySize: 14
AntiAlias: 0
FitToEm: 1
WinInfo: 0 38 12
BeginPrivate: 0
EndPrivate
BeginChars: 256 256

StartChar: exclam
Encoding: 33 33 1
Width: 1170
VWidth: 0
Flags: W
HStem: 1 292<439 585> 1444 20G<439 585>
VStem: 439 146<1 293 439 1464>
LayerCount: 2
Back
Fore
SplineSet
439 147 m 1
 439 293 l 1
 512 293 l 1
 585 293 l 1
 585 147 l 1
 585 1 l 1
 512 1 l 1
 439 1 l 1
 439 147 l 1
439 952 m 1
 439 1464 l 1
 512 1464 l 1
 585 1464 l 1
 585 952 l 1
 585 439 l 1
 512 439 l 1
 439 439 l 1
 439 952 l 1
EndSplineSet
EndChar

StartChar: quotedbl
Encoding: 34 34 2
Width: 1170
VWidth: 0
Flags: W
HStem: 1025 439<293 439 732 878>
VStem: 293 146<1025 1464> 732 146<1025 1464>
LayerCount: 2
Back
Fore
SplineSet
732 1244 m 1
 732 1464 l 1
 805 1464 l 1
 878 1464 l 1
 878 1244 l 1
 878 1025 l 1
 805 1025 l 1
 732 1025 l 1
 732 1244 l 1
293 1244 m 1
 293 1464 l 1
 366 1464 l 1
 439 1464 l 1
 439 1244 l 1
 439 1025 l 1
 366 1025 l 1
 293 1025 l 1
 293 1244 l 1
EndSplineSet
EndChar

StartChar: numbersign
Encoding: 35 35 3
Width: 1170
VWidth: 0
Flags: W
HStem: 1 21G<293 439 585 732> 439 147<0 293 439 585 732 1024> 878 147<0 293 439 585 732 1024> 1444 20G<293 439 585 732>
VStem: 293 146<1 439 586 878 1025 1464> 585 147<1 439 586 878 1025 1464>
LayerCount: 2
Back
Fore
SplineSet
293 1244 m 1
 293 1464 l 1
 366 1464 l 1
 439 1464 l 1
 439 1244 l 1
 439 1025 l 1
 512 1025 l 1
 585 1025 l 1
 585 1244 l 1
 585 1464 l 1
 659 1464 l 1
 732 1464 l 1
 732 1244 l 1
 732 1025 l 1
 878 1025 l 1
 1024 1025 l 1
 1024 951 l 1
 1024 878 l 1
 878 878 l 1
 732 878 l 1
 732 732 l 1
 732 586 l 1
 878 586 l 1
 1024 586 l 1
 1024 513 l 1
 1024 439 l 1
 878 439 l 1
 732 439 l 1
 732 220 l 1
 732 1 l 1
 659 1 l 1
 585 1 l 1
 585 220 l 1
 585 439 l 1
 512 439 l 1
 439 439 l 1
 439 220 l 1
 439 1 l 1
 366 1 l 1
 293 1 l 1
 293 220 l 1
 293 439 l 1
 146 439 l 1
 0 439 l 1
 0 513 l 1
 0 586 l 1
 146 586 l 1
 293 586 l 1
 293 732 l 1
 293 878 l 1
 146 878 l 1
 0 878 l 1
 0 951 l 1
 0 1025 l 1
 146 1025 l 1
 293 1025 l 1
 293 1244 l 1
585 732 m 1
 585 878 l 1
 512 878 l 1
 439 878 l 1
 439 732 l 1
 439 586 l 1
 512 586 l 1
 585 586 l 1
 585 732 l 1
EndSplineSet
EndChar

StartChar: dollar
Encoding: 36 36 4
Width: 1170
VWidth: 0
Flags: W
HStem: 1 146<146 439 585 878> 147 146<0 146> 586 146<146 439 585 878> 1025 146<878 1024> 1171 146<146 439 585 878>
VStem: 0 146<147 293 732 1171> 439 146<-292 1 147 586 732 1171 1317 1610> 878 146<147 586 1025 1171>
CounterMasks: 1 07
LayerCount: 2
Back
Fore
SplineSet
439 1464 m 1xaf
 439 1610 l 1
 512 1610 l 1
 585 1610 l 1
 585 1464 l 1
 585 1317 l 1
 732 1317 l 1
 878 1317 l 1xaf
 878 1244 l 1
 878 1171 l 1
 951 1171 l 1
 1024 1171 l 1
 1024 1098 l 1
 1024 1025 l 1
 951 1025 l 1
 878 1025 l 1
 878 1098 l 1
 878 1171 l 1x37
 732 1171 l 1
 585 1171 l 1
 585 951 l 1
 585 732 l 1
 732 732 l 1
 878 732 l 1
 878 659 l 1
 878 586 l 1
 951 586 l 1
 1024 586 l 1
 1024 366 l 1
 1024 147 l 1
 951 147 l 1x6f
 878 147 l 1
 878 74 l 1
 878 1 l 1
 732 1 l 1
 585 1 l 1
 585 -145 l 1
 585 -292 l 1
 512 -292 l 1
 439 -292 l 1
 439 -145 l 1
 439 1 l 1
 293 1 l 1
 146 1 l 1
 146 74 l 1
 146 147 l 1xa7
 73 147 l 1
 0 147 l 1
 0 220 l 1
 0 293 l 1
 73 293 l 1
 146 293 l 1x67
 146 220 l 1
 146 147 l 1
 293 147 l 1
 439 147 l 1
 439 366 l 1
 439 586 l 1
 293 586 l 1
 146 586 l 1
 146 659 l 1
 146 732 l 1
 73 732 l 1
 0 732 l 1
 0 951 l 1
 0 1171 l 1
 73 1171 l 1
 146 1171 l 1
 146 1244 l 1
 146 1317 l 1
 293 1317 l 1
 439 1317 l 1
 439 1464 l 1xaf
439 951 m 1
 439 1171 l 1
 293 1171 l 1
 146 1171 l 1
 146 951 l 1
 146 732 l 1
 293 732 l 1
 439 732 l 1
 439 951 l 1
878 366 m 1
 878 586 l 1
 732 586 l 1
 585 586 l 1
 585 366 l 1
 585 147 l 1
 732 147 l 1
 878 147 l 1
 878 366 l 1
EndSplineSet
EndChar

StartChar: percent
Encoding: 37 37 5
Width: 1170
VWidth: 0
Flags: W
HStem: -145 146<585 878> 1 146<439 585 878 1024> 147 292<293 439> 147 146<585 878> 439 293<439 585> 732 293<585 732> 878 147<146 439> 1025 146<0 146 439 585> 1171 146<146 439>
VStem: 0 146<1025 1171> 146 147<-145 147> 293 146<147 439> 439 146<1 147 439 732 1025 1171> 585 147<732 1025> 732 146<1025 1317> 878 146<1 147>
LayerCount: 2
Back
Fore
SplineSet
146 1244 m 1x0120
 146 1317 l 1x00a0
 293 1317 l 1x0090
 439 1317 l 1x0088
 439 1244 l 1
 439 1171 l 1
 512 1171 l 1
 585 1171 l 1x0108
 585 1098 l 1
 585 1025 l 1x0408
 659 1025 l 1
 732 1025 l 1x0404
 732 1171 l 1
 732 1317 l 1
 805 1317 l 1
 878 1317 l 1
 878 1171 l 1x0482
 878 1025 l 1
 805 1025 l 1x0102
 732 1025 l 1x0404
 732 878 l 1x0204
 732 732 l 1
 659 732 l 1x0404
 585 732 l 1
 585 586 l 1
 585 439 l 1
 512 439 l 1x0808
 439 439 l 1x2010
 439 293 l 1x1010
 439 147 l 1x4010
 512 147 l 1
 585 147 l 1x4008
 585 220 l 1
 585 293 l 1x1004
 732 293 l 1x1002
 878 293 l 1x1001
 878 220 l 1
 878 147 l 1
 951 147 l 1
 1024 147 l 1
 1024 74 l 1
 1024 1 l 1
 951 1 l 1x4001
 878 1 l 1
 878 -72 l 1
 878 -145 l 1x8001
 732 -145 l 1x8002
 585 -145 l 1
 585 -72 l 1x8004
 585 1 l 1x8008
 512 1 l 1
 439 1 l 1
 439 74 l 1x4008
 439 147 l 1x4010
 366 147 l 1
 293 147 l 1x2020
 293 1 l 1x4020
 293 -145 l 1
 219 -145 l 1
 146 -145 l 1x8020
 146 1 l 1x4020
 146 147 l 1
 219 147 l 1x1020
 293 147 l 1x2020
 293 293 l 1x1010
 293 439 l 1
 366 439 l 1
 439 439 l 1x2010
 439 586 l 1
 439 732 l 1
 512 732 l 1
 585 732 l 1x0808
 585 878 l 1x0a04
 585 1025 l 1x0408
 512 1025 l 1x0108
 439 1025 l 1
 439 951 l 1
 439 878 l 1x0208
 293 878 l 1x0210
 146 878 l 1
 146 951 l 1x0220
 146 1025 l 1x0240
 73 1025 l 1
 0 1025 l 1
 0 1098 l 1
 0 1171 l 1
 73 1171 l 1
 146 1171 l 1x0140
 146 1244 l 1x0120
439 1098 m 1x0208
 439 1171 l 1x0108
 293 1171 l 1x0090
 146 1171 l 1x0150
 146 1098 l 1
 146 1025 l 1
 293 1025 l 1x0250
 439 1025 l 1
 439 1098 l 1x0208
878 74 m 1x8001
 878 147 l 1x4001
 732 147 l 1x1002
 585 147 l 1x400a
 585 74 l 1
 585 1 l 1
 732 1 l 1x800a
 878 1 l 1
 878 74 l 1x8001
EndSplineSet
EndChar

StartChar: ampersand
Encoding: 38 38 6
Width: 1170
VWidth: 0
Flags: W
HStem: 1 146<293 732 878 1024> 586 146<585 732 878 1024> 732 146<293 439> 878 147<585 732> 1025 292<293 439 732 878> 1317 147<439 732>
VStem: 146 147<147 732> 293 292<732 878> 293 146<1025 1317> 439 293<878 1025 1317 1464> 585 147<586 732> 732 146<147 586 1025 1317> 878 146<1 147 586 732>
LayerCount: 2
Back
Fore
SplineSet
439 1391 m 1xa840
 439 1464 l 1x8440
 585 1464 l 1x8420
 732 1464 l 1x8440
 732 1391 l 1
 732 1317 l 1x8840
 805 1317 l 1
 878 1317 l 1
 878 1171 l 1
 878 1025 l 1
 805 1025 l 1x8810
 732 1025 l 1
 732 951 l 1
 732 878 l 1x9040
 659 878 l 1
 585 878 l 1
 585 805 l 1
 585 732 l 1xd1
 659 732 l 1
 732 732 l 1
 732 659 l 1
 732 586 l 1xd020
 805 586 l 1
 878 586 l 1xd010
 878 659 l 1
 878 732 l 1
 951 732 l 1
 1024 732 l 1
 1024 659 l 1
 1024 586 l 1xd008
 951 586 l 1
 878 586 l 1
 878 366 l 1
 878 147 l 1xd010
 951 147 l 1
 1024 147 l 1
 1024 74 l 1
 1024 1 l 1
 951 1 l 1
 878 1 l 1
 878 74 l 1xd008
 878 147 l 1
 805 147 l 1
 732 147 l 1
 732 74 l 1
 732 1 l 1
 512 1 l 1
 293 1 l 1
 293 74 l 1xd090
 293 147 l 1
 219 147 l 1
 146 147 l 1
 146 440 l 1
 146 732 l 1
 219 732 l 1
 293 732 l 1xa2
 293 805 l 1
 293 878 l 1xa1
 366 878 l 1
 439 878 l 1
 439 951 l 1xa040
 439 1025 l 1
 366 1025 l 1
 293 1025 l 1
 293 1171 l 1
 293 1317 l 1
 366 1317 l 1
 439 1317 l 1xa880
 439 1391 l 1xa840
732 1171 m 1x9010
 732 1317 l 1x8840
 585 1317 l 1x8420
 439 1317 l 1
 439 1171 l 1
 439 1025 l 1x88a0
 585 1025 l 1x90a0
 732 1025 l 1x9040
 732 1171 l 1x9010
585 659 m 1xc020
 585 732 l 1xc1
 439 732 l 1xa040
 293 732 l 1
 293 440 l 1
 293 147 l 1
 512 147 l 1
 732 147 l 1
 732 366 l 1xa210
 732 586 l 1
 659 586 l 1
 585 586 l 1
 585 659 l 1xc020
EndSplineSet
EndChar

StartChar: quotesingle
Encoding: 39 39 7
Width: 1170
VWidth: 0
Flags: W
HStem: 878 586<439 585>
VStem: 439 146<878 1464>
LayerCount: 2
Back
Fore
SplineSet
439 1171 m 1
 439 1464 l 1
 512 1464 l 1
 585 1464 l 1
 585 1171 l 1
 585 878 l 1
 512 878 l 1
 439 878 l 1
 439 1171 l 1
EndSplineSet
EndChar

StartChar: parenleft
Encoding: 40 40 8
Width: 1170
VWidth: 0
Flags: W
HStem: -292 147<585 732> -145 146<439 585> 1 292<293 439> 878 293<293 439> 1171 146<439 585> 1317 147<585 732>
VStem: 146 147<293 878> 293 146<1 293 878 1171> 439 146<-145 1 1171 1317> 585 147<-292 -145 1317 1464>
LayerCount: 2
Back
Fore
SplineSet
585 1391 m 1x0840
 585 1464 l 1
 659 1464 l 1
 732 1464 l 1
 732 1391 l 1
 732 1317 l 1
 659 1317 l 1x0440
 585 1317 l 1
 585 1244 l 1
 585 1171 l 1
 512 1171 l 1x0880
 439 1171 l 1
 439 1025 l 1
 439 878 l 1x11
 366 878 l 1
 293 878 l 1
 293 586 l 1
 293 293 l 1x32
 366 293 l 1
 439 293 l 1x31
 439 147 l 1
 439 1 l 1x41
 512 1 l 1
 585 1 l 1x4080
 585 -72 l 1
 585 -145 l 1x8080
 659 -145 l 1
 732 -145 l 1
 732 -219 l 1
 732 -292 l 1
 659 -292 l 1
 585 -292 l 1
 585 -219 l 1x8040
 585 -145 l 1x8080
 512 -145 l 1
 439 -145 l 1
 439 -72 l 1x4080
 439 1 l 1x41
 366 1 l 1
 293 1 l 1
 293 147 l 1x21
 293 293 l 1
 219 293 l 1
 146 293 l 1
 146 586 l 1
 146 878 l 1
 219 878 l 1
 293 878 l 1x32
 293 1025 l 1
 293 1171 l 1
 366 1171 l 1
 439 1171 l 1x31
 439 1244 l 1
 439 1317 l 1
 512 1317 l 1
 585 1317 l 1x0880
 585 1391 l 1x0840
EndSplineSet
EndChar

StartChar: parenright
Encoding: 41 41 9
Width: 1170
VWidth: 0
Flags: W
HStem: -292 147<293 439> -145 146<439 585> 1 292<585 732> 878 293<585 732> 1171 146<439 585> 1317 147<293 439>
VStem: 293 146<-292 -145 1317 1464> 439 146<-145 1 1171 1317> 585 147<1 293 878 1171> 732 146<293 878>
LayerCount: 2
Back
Fore
SplineSet
293 1391 m 1x06
 293 1464 l 1
 366 1464 l 1
 439 1464 l 1x06
 439 1391 l 1
 439 1317 l 1x0a
 512 1317 l 1
 585 1317 l 1x09
 585 1244 l 1
 585 1171 l 1x11
 659 1171 l 1
 732 1171 l 1
 732 1025 l 1
 732 878 l 1x1080
 805 878 l 1
 878 878 l 1
 878 586 l 1
 878 293 l 1x3040
 805 293 l 1
 732 293 l 1
 732 147 l 1
 732 1 l 1
 659 1 l 1x3080
 585 1 l 1
 585 -72 l 1
 585 -145 l 1
 512 -145 l 1x41
 439 -145 l 1
 439 -219 l 1
 439 -292 l 1
 366 -292 l 1
 293 -292 l 1
 293 -219 l 1
 293 -145 l 1
 366 -145 l 1
 439 -145 l 1x82
 439 -72 l 1
 439 1 l 1
 512 1 l 1
 585 1 l 1x41
 585 147 l 1
 585 293 l 1
 659 293 l 1
 732 293 l 1x2080
 732 586 l 1x2040
 732 878 l 1
 659 878 l 1
 585 878 l 1
 585 1025 l 1x3080
 585 1171 l 1x31
 512 1171 l 1
 439 1171 l 1
 439 1244 l 1x09
 439 1317 l 1x0a
 366 1317 l 1
 293 1317 l 1
 293 1391 l 1x06
EndSplineSet
EndChar

StartChar: asterisk
Encoding: 42 42 10
Width: 1170
VWidth: 0
Flags: W
HStem: 293 146<0 146 878 1024> 439 147<146 293 732 878> 586 146<293 439 585 732> 732 146<146 293 732 878> 878 147<0 146 878 1024>
VStem: 0 146<293 439 878 1025> 146 147<439 586 732 878> 439 146<147 586 732 1171> 732 146<439 586 732 878> 878 146<293 439 878 1025>
LayerCount: 2
Back
Fore
SplineSet
439 951 m 1x23
 439 1171 l 1
 512 1171 l 1
 585 1171 l 1
 585 951 l 1
 585 732 l 1
 659 732 l 1
 732 732 l 1x2380
 732 805 l 1
 732 878 l 1
 805 878 l 1
 878 878 l 1x1380
 878 951 l 1
 878 1025 l 1
 951 1025 l 1
 1024 1025 l 1
 1024 951 l 1
 1024 878 l 1
 951 878 l 1x0940
 878 878 l 1
 878 805 l 1
 878 732 l 1
 805 732 l 1x1180
 732 732 l 1x2180
 732 659 l 1
 732 586 l 1
 805 586 l 1
 878 586 l 1x4180
 878 513 l 1
 878 439 l 1x8180
 951 439 l 1
 1024 439 l 1
 1024 366 l 1
 1024 293 l 1
 951 293 l 1
 878 293 l 1
 878 366 l 1x8140
 878 439 l 1x8180
 805 439 l 1
 732 439 l 1
 732 513 l 1
 732 586 l 1x4180
 659 586 l 1
 585 586 l 1
 585 366 l 1
 585 147 l 1
 512 147 l 1
 439 147 l 1
 439 366 l 1
 439 586 l 1
 366 586 l 1x2180
 293 586 l 1
 293 513 l 1
 293 439 l 1
 219 439 l 1x4380
 146 439 l 1
 146 366 l 1
 146 293 l 1
 73 293 l 1
 0 293 l 1
 0 366 l 1
 0 439 l 1
 73 439 l 1
 146 439 l 1x85
 146 513 l 1
 146 586 l 1
 219 586 l 1
 293 586 l 1x43
 293 659 l 1
 293 732 l 1x23
 219 732 l 1
 146 732 l 1
 146 805 l 1x13
 146 878 l 1x15
 73 878 l 1
 0 878 l 1
 0 951 l 1
 0 1025 l 1
 73 1025 l 1
 146 1025 l 1x0d
 146 951 l 1
 146 878 l 1x15
 219 878 l 1
 293 878 l 1x13
 293 805 l 1
 293 732 l 1
 366 732 l 1
 439 732 l 1
 439 951 l 1x23
EndSplineSet
EndChar

StartChar: plus
Encoding: 43 43 11
Width: 1170
VWidth: 0
Flags: W
HStem: 586 146<0 439 585 1024>
VStem: 439 146<147 586 732 1171>
LayerCount: 2
Back
Fore
SplineSet
439 951 m 1
 439 1171 l 1
 512 1171 l 1
 585 1171 l 1
 585 951 l 1
 585 732 l 1
 805 732 l 1
 1024 732 l 1
 1024 659 l 1
 1024 586 l 1
 805 586 l 1
 585 586 l 1
 585 366 l 1
 585 147 l 1
 512 147 l 1
 439 147 l 1
 439 366 l 1
 439 586 l 1
 220 586 l 1
 0 586 l 1
 0 659 l 1
 0 732 l 1
 220 732 l 1
 439 732 l 1
 439 951 l 1
EndSplineSet
EndChar

StartChar: comma
Encoding: 44 44 12
Width: 1170
VWidth: 0
Flags: W
HStem: -292 147<293 439> 1 292<293 439>
VStem: 293 146<-292 -145> 439 146<-145 1>
LayerCount: 2
Back
Fore
SplineSet
293 147 m 1xe0
 293 293 l 1xe0
 439 293 l 1
 585 293 l 1
 585 74 l 1
 585 -145 l 1xd0
 512 -145 l 1
 439 -145 l 1
 439 -219 l 1
 439 -292 l 1
 366 -292 l 1
 293 -292 l 1
 293 -219 l 1
 293 -145 l 1
 366 -145 l 1
 439 -145 l 1xe0
 439 -72 l 1
 439 1 l 1xd0
 366 1 l 1
 293 1 l 1
 293 147 l 1xe0
EndSplineSet
EndChar

StartChar: hyphen
Encoding: 45 45 13
Width: 1170
VWidth: 0
Flags: W
HStem: 586 146<146 1024>
LayerCount: 2
Back
Fore
SplineSet
146 659 m 1
 146 732 l 1
 585 732 l 1
 1024 732 l 1
 1024 659 l 1
 1024 586 l 1
 585 586 l 1
 146 586 l 1
 146 659 l 1
EndSplineSet
EndChar

StartChar: period
Encoding: 46 46 14
Width: 1170
VWidth: 0
Flags: W
HStem: 1 292<293 585>
VStem: 293 292<1 293>
LayerCount: 2
Back
Fore
SplineSet
293 147 m 1
 293 293 l 1
 439 293 l 1
 585 293 l 1
 585 147 l 1
 585 1 l 1
 439 1 l 1
 293 1 l 1
 293 147 l 1
EndSplineSet
EndChar

StartChar: slash
Encoding: 47 47 15
Width: 1170
VWidth: 0
Flags: W
HStem: -145 292<146 293> 147 292<293 439> 439 293<439 585> 732 293<585 732> 1025 292<732 878> 1317 293<878 1024>
VStem: 146 147<-145 147> 293 146<147 439> 439 146<439 732> 585 147<732 1025> 732 146<1025 1317> 878 146<1317 1610>
LayerCount: 2
Back
Fore
SplineSet
878 1464 m 1x0810
 878 1610 l 1
 951 1610 l 1
 1024 1610 l 1
 1024 1464 l 1
 1024 1317 l 1
 951 1317 l 1x0410
 878 1317 l 1
 878 1171 l 1
 878 1025 l 1
 805 1025 l 1x0820
 732 1025 l 1
 732 878 l 1
 732 732 l 1
 659 732 l 1x1040
 585 732 l 1
 585 586 l 1
 585 439 l 1
 512 439 l 1x2080
 439 439 l 1
 439 293 l 1
 439 147 l 1
 366 147 l 1x41
 293 147 l 1
 293 1 l 1
 293 -145 l 1
 219 -145 l 1
 146 -145 l 1
 146 1 l 1
 146 147 l 1
 219 147 l 1
 293 147 l 1x82
 293 293 l 1
 293 439 l 1
 366 439 l 1
 439 439 l 1x41
 439 586 l 1
 439 732 l 1
 512 732 l 1
 585 732 l 1x2080
 585 878 l 1
 585 1025 l 1
 659 1025 l 1
 732 1025 l 1x1040
 732 1171 l 1
 732 1317 l 1
 805 1317 l 1
 878 1317 l 1x0820
 878 1464 l 1x0810
EndSplineSet
EndChar

StartChar: zero
Encoding: 48 48 16
Width: 1170
VWidth: 0
Flags: W
HStem: 1 146<293 878> 439 147<293 439> 586 146<439 585> 732 146<585 732> 878 147<732 878> 1171 146<293 878>
VStem: 146 293<439 586> 146 147<147 439 586 1171> 439 146<586 732> 585 147<732 878> 732 292<878 1025> 878 146<147 878 1025 1171>
LayerCount: 2
Back
Fore
SplineSet
585 805 m 1xa440
 585 878 l 1
 659 878 l 1
 732 878 l 1
 732 805 l 1
 732 732 l 1
 659 732 l 1x9440
 585 732 l 1
 585 659 l 1
 585 586 l 1
 512 586 l 1xa480
 439 586 l 1xc6
 439 659 l 1
 439 732 l 1
 512 732 l 1
 585 732 l 1xa480
 585 805 l 1xa440
293 1244 m 1x8550
 293 1317 l 1
 585 1317 l 1
 878 1317 l 1
 878 1244 l 1
 878 1171 l 1
 951 1171 l 1
 1024 1171 l 1
 1024 659 l 1
 1024 147 l 1
 951 147 l 1
 878 147 l 1
 878 74 l 1
 878 1 l 1
 585 1 l 1
 293 1 l 1
 293 74 l 1
 293 147 l 1
 219 147 l 1
 146 147 l 1
 146 659 l 1
 146 1171 l 1
 219 1171 l 1
 293 1171 l 1
 293 1244 l 1x8550
878 1098 m 1
 878 1171 l 1
 585 1171 l 1
 293 1171 l 1
 293 878 l 1
 293 586 l 1xcd50
 366 586 l 1
 439 586 l 1
 439 513 l 1
 439 439 l 1xce
 366 439 l 1
 293 439 l 1
 293 293 l 1
 293 147 l 1
 585 147 l 1
 878 147 l 1
 878 513 l 1
 878 878 l 1
 805 878 l 1xcd50
 732 878 l 1x9550
 732 951 l 1
 732 1025 l 1x8c20
 805 1025 l 1
 878 1025 l 1x8c10
 878 1098 l 1
EndSplineSet
EndChar

StartChar: one
Encoding: 49 49 17
Width: 1170
VWidth: 0
Flags: W
HStem: 1 21G<585 732> 732 146<146 293> 878 147<293 439> 1025 146<439 585> 1297 20G<585 732>
VStem: 146 147<732 878> 293 146<878 1025> 439 293<1025 1171> 585 147<1 1025 1171 1317>
LayerCount: 2
Back
Fore
SplineSet
585 1244 m 1x9880
 585 1317 l 1
 659 1317 l 1
 732 1317 l 1
 732 659 l 1
 732 1 l 1
 659 1 l 1
 585 1 l 1
 585 513 l 1
 585 1025 l 1
 512 1025 l 1x9880
 439 1025 l 1
 439 951 l 1
 439 878 l 1
 366 878 l 1xaa80
 293 878 l 1
 293 805 l 1
 293 732 l 1
 219 732 l 1
 146 732 l 1
 146 805 l 1
 146 878 l 1
 219 878 l 1
 293 878 l 1xcc
 293 951 l 1
 293 1025 l 1
 366 1025 l 1
 439 1025 l 1xaa
 439 1098 l 1
 439 1171 l 1x99
 512 1171 l 1
 585 1171 l 1
 585 1244 l 1x9880
EndSplineSet
EndChar

StartChar: two
Encoding: 50 50 18
Width: 1170
VWidth: 0
Flags: W
HStem: 1 292<146 293> 1 146<293 1024> 293 146<293 439> 439 147<439 585> 586 146<585 732> 732 146<732 878> 878 293<146 293 878 1024> 1171 146<293 878>
VStem: 146 147<147 293 878 1171> 293 146<293 439> 439 146<439 586> 585 147<586 732> 732 146<732 878> 878 146<878 1171>
LayerCount: 2
Back
Fore
SplineSet
293 1244 m 1x0240
 293 1317 l 1
 585 1317 l 1
 878 1317 l 1x0154
 878 1244 l 1
 878 1171 l 1
 951 1171 l 1
 1024 1171 l 1
 1024 1025 l 1
 1024 878 l 1
 951 878 l 1x0254
 878 878 l 1
 878 805 l 1
 878 732 l 1
 805 732 l 1x0408
 732 732 l 1
 732 659 l 1
 732 586 l 1
 659 586 l 1x0810
 585 586 l 1
 585 513 l 1
 585 439 l 1
 512 439 l 1x1020
 439 439 l 1
 439 366 l 1
 439 293 l 1
 366 293 l 1x2040
 293 293 l 1x8080
 293 220 l 1
 293 147 l 1
 658 147 l 1
 1024 147 l 1
 1024 74 l 1
 1024 1 l 1
 585 1 l 1x4094
 146 1 l 1x8094
 146 147 l 1x4094
 146 293 l 1
 219 293 l 1
 293 293 l 1x8094
 293 366 l 1
 293 439 l 1
 366 439 l 1
 439 439 l 1x2040
 439 513 l 1
 439 586 l 1
 512 586 l 1
 585 586 l 1x1020
 585 659 l 1
 585 732 l 1
 659 732 l 1
 732 732 l 1x0810
 732 805 l 1
 732 878 l 1
 805 878 l 1
 878 878 l 1x0408
 878 1025 l 1
 878 1171 l 1x0204
 585 1171 l 1x0114
 293 1171 l 1
 293 1025 l 1
 293 878 l 1
 219 878 l 1
 146 878 l 1
 146 1025 l 1
 146 1171 l 1
 219 1171 l 1
 293 1171 l 1x0294
 293 1244 l 1x0240
EndSplineSet
EndChar

StartChar: three
Encoding: 51 51 19
Width: 1170
VWidth: 0
Flags: W
HStem: 1 146<293 878> 147 146<146 293> 586 146<439 878> 1025 146<146 293> 1171 146<293 878>
VStem: 146 147<147 293 1025 1171> 878 146<147 586 732 1171>
LayerCount: 2
Back
Fore
SplineSet
293 1244 m 1x36
 293 1317 l 1
 585 1317 l 1
 878 1317 l 1
 878 1244 l 1
 878 1171 l 1
 951 1171 l 1
 1024 1171 l 1
 1024 951 l 1
 1024 732 l 1
 951 732 l 1
 878 732 l 1
 878 659 l 1
 878 586 l 1
 951 586 l 1
 1024 586 l 1
 1024 366 l 1
 1024 147 l 1
 951 147 l 1x6e
 878 147 l 1
 878 74 l 1
 878 1 l 1
 585 1 l 1
 293 1 l 1
 293 74 l 1
 293 147 l 1xa6
 219 147 l 1
 146 147 l 1
 146 220 l 1
 146 293 l 1
 219 293 l 1
 293 293 l 1x66
 293 220 l 1
 293 147 l 1
 585 147 l 1
 878 147 l 1
 878 366 l 1
 878 586 l 1
 659 586 l 1
 439 586 l 1
 439 659 l 1
 439 732 l 1
 659 732 l 1
 878 732 l 1
 878 951 l 1
 878 1171 l 1
 585 1171 l 1xae
 293 1171 l 1
 293 1098 l 1
 293 1025 l 1
 219 1025 l 1
 146 1025 l 1
 146 1098 l 1
 146 1171 l 1
 219 1171 l 1
 293 1171 l 1
 293 1244 l 1x36
EndSplineSet
EndChar

StartChar: four
Encoding: 52 52 20
Width: 1170
VWidth: 0
Flags: W
HStem: 1 21G<732 878> 439 293<146 293> 439 147<293 732 878 1024> 732 146<293 439> 878 147<439 585> 1025 146<585 732> 1297 20G<732 878>
VStem: 146 147<586 732> 293 146<732 878> 439 146<878 1025> 585 293<1025 1171> 732 146<1 439 586 1025 1171 1317>
LayerCount: 2
Back
Fore
SplineSet
732 1244 m 1x8610
 732 1317 l 1
 805 1317 l 1
 878 1317 l 1
 878 952 l 1
 878 586 l 1
 951 586 l 1
 1024 586 l 1
 1024 513 l 1
 1024 439 l 1
 951 439 l 1
 878 439 l 1
 878 220 l 1
 878 1 l 1
 805 1 l 1
 732 1 l 1
 732 220 l 1
 732 439 l 1
 439 439 l 1xa650
 146 439 l 1xc350
 146 586 l 1xa350
 146 732 l 1
 219 732 l 1
 293 732 l 1xc350
 293 805 l 1
 293 878 l 1
 366 878 l 1
 439 878 l 1x9280
 439 951 l 1
 439 1025 l 1
 512 1025 l 1
 585 1025 l 1x8a40
 585 1098 l 1
 585 1171 l 1x8620
 659 1171 l 1
 732 1171 l 1
 732 1244 l 1x8610
732 805 m 1
 732 1025 l 1
 659 1025 l 1xa710
 585 1025 l 1
 585 951 l 1
 585 878 l 1
 512 878 l 1x8b50
 439 878 l 1
 439 805 l 1
 439 732 l 1
 366 732 l 1x9280
 293 732 l 1xc3
 293 659 l 1
 293 586 l 1xa3
 512 586 l 1
 732 586 l 1
 732 805 l 1
EndSplineSet
EndChar

StartChar: five
Encoding: 53 53 21
Width: 1170
VWidth: 0
Flags: W
HStem: 1 146<293 878> 147 146<146 293> 732 146<293 878> 1171 146<293 1024>
VStem: 146 147<147 293 878 1171> 878 146<147 732>
LayerCount: 2
Back
Fore
SplineSet
146 1025 m 1xbc
 146 1317 l 1
 585 1317 l 1
 1024 1317 l 1
 1024 1244 l 1
 1024 1171 l 1
 658 1171 l 1
 293 1171 l 1
 293 1025 l 1
 293 878 l 1
 585 878 l 1
 878 878 l 1
 878 805 l 1
 878 732 l 1
 951 732 l 1
 1024 732 l 1
 1024 440 l 1
 1024 147 l 1
 951 147 l 1x7c
 878 147 l 1
 878 74 l 1
 878 1 l 1
 585 1 l 1
 293 1 l 1
 293 74 l 1
 293 147 l 1xbc
 219 147 l 1
 146 147 l 1
 146 220 l 1
 146 293 l 1
 219 293 l 1
 293 293 l 1x7c
 293 220 l 1
 293 147 l 1
 585 147 l 1
 878 147 l 1
 878 440 l 1
 878 732 l 1
 512 732 l 1
 146 732 l 1
 146 1025 l 1xbc
EndSplineSet
EndChar

StartChar: six
Encoding: 54 54 22
Width: 1170
VWidth: 0
Flags: W
HStem: 1 146<293 878> 732 146<293 878> 1171 146<293 878>
VStem: 146 147<147 732 878 1171> 878 146<147 732>
LayerCount: 2
Back
Fore
SplineSet
293 1244 m 1
 293 1317 l 1
 585 1317 l 1
 878 1317 l 1
 878 1244 l 1
 878 1171 l 1
 585 1171 l 1
 293 1171 l 1
 293 1025 l 1
 293 878 l 1
 585 878 l 1
 878 878 l 1
 878 805 l 1
 878 732 l 1
 951 732 l 1
 1024 732 l 1
 1024 440 l 1
 1024 147 l 1
 951 147 l 1
 878 147 l 1
 878 74 l 1
 878 1 l 1
 585 1 l 1
 293 1 l 1
 293 74 l 1
 293 147 l 1
 219 147 l 1
 146 147 l 1
 146 659 l 1
 146 1171 l 1
 219 1171 l 1
 293 1171 l 1
 293 1244 l 1
878 440 m 1
 878 732 l 1
 585 732 l 1
 293 732 l 1
 293 440 l 1
 293 147 l 1
 585 147 l 1
 878 147 l 1
 878 440 l 1
EndSplineSet
EndChar

StartChar: seven
Encoding: 55 55 23
Width: 1170
VWidth: 0
Flags: W
HStem: 1 21G<439 585> 439 293<585 732> 732 293<732 878> 1025 292<878 1024> 1171 146<146 878>
VStem: 439 146<1 439> 585 147<439 732> 732 146<732 1025> 878 146<1025 1171>
LayerCount: 2
Back
Fore
SplineSet
146 1244 m 1xa880
 146 1317 l 1
 585 1317 l 1xaa80
 1024 1317 l 1x9280
 1024 1171 l 1x8a80
 1024 1025 l 1
 951 1025 l 1x9280
 878 1025 l 1
 878 878 l 1
 878 732 l 1
 805 732 l 1xa1
 732 732 l 1
 732 586 l 1
 732 439 l 1xc2
 659 439 l 1
 585 439 l 1
 585 220 l 1
 585 1 l 1
 512 1 l 1
 439 1 l 1
 439 220 l 1
 439 439 l 1
 512 439 l 1
 585 439 l 1xc4
 585 586 l 1
 585 732 l 1
 659 732 l 1
 732 732 l 1xc2
 732 878 l 1
 732 1025 l 1
 805 1025 l 1
 878 1025 l 1xa1
 878 1098 l 1
 878 1171 l 1
 512 1171 l 1
 146 1171 l 1
 146 1244 l 1xa880
EndSplineSet
EndChar

StartChar: eight
Encoding: 56 56 24
Width: 1170
VWidth: 0
Flags: W
HStem: 1 146<293 878> 147 439<146 293 878 1024> 586 146<293 878> 732 439<146 293 878 1024> 1171 146<293 878>
VStem: 146 147<147 586 732 1171> 293 585<1 147 586 732 1171 1317> 878 146<147 586 732 1171>
LayerCount: 2
Back
Fore
SplineSet
293 1244 m 1x12
 293 1317 l 1
 585 1317 l 1
 878 1317 l 1x0a
 878 1244 l 1
 878 1171 l 1x12
 951 1171 l 1
 1024 1171 l 1
 1024 951 l 1
 1024 732 l 1
 951 732 l 1x11
 878 732 l 1x22
 878 659 l 1
 878 586 l 1x42
 951 586 l 1
 1024 586 l 1
 1024 366 l 1
 1024 147 l 1
 951 147 l 1x41
 878 147 l 1
 878 74 l 1
 878 1 l 1
 585 1 l 1
 293 1 l 1
 293 74 l 1x82
 293 147 l 1x84
 219 147 l 1
 146 147 l 1
 146 366 l 1
 146 586 l 1
 219 586 l 1
 293 586 l 1x44
 293 659 l 1x42
 293 732 l 1x24
 219 732 l 1
 146 732 l 1
 146 951 l 1
 146 1171 l 1
 219 1171 l 1
 293 1171 l 1x14
 293 1244 l 1x12
878 951 m 1x21
 878 1171 l 1x12
 585 1171 l 1x0a
 293 1171 l 1x14
 293 951 l 1
 293 732 l 1x24
 585 732 l 1
 878 732 l 1x22
 878 951 l 1x21
878 366 m 1x81
 878 586 l 1x42
 585 586 l 1x22
 293 586 l 1x44
 293 366 l 1
 293 147 l 1x84
 585 147 l 1
 878 147 l 1x82
 878 366 l 1x81
EndSplineSet
EndChar

StartChar: nine
Encoding: 57 57 25
Width: 1170
VWidth: 0
Flags: W
HStem: 1 146<293 732> 147 146<732 878> 586 146<293 878> 1171 146<293 878>
VStem: 146 147<732 1171> 732 146<147 293> 878 146<293 586 732 1171>
LayerCount: 2
Back
Fore
SplineSet
293 1244 m 1x7a
 293 1317 l 1
 585 1317 l 1
 878 1317 l 1
 878 1244 l 1
 878 1171 l 1
 951 1171 l 1
 1024 1171 l 1
 1024 732 l 1
 1024 293 l 1x7a
 951 293 l 1
 878 293 l 1
 878 220 l 1
 878 147 l 1
 805 147 l 1x7c
 732 147 l 1
 732 74 l 1
 732 1 l 1
 512 1 l 1
 293 1 l 1
 293 74 l 1
 293 147 l 1
 512 147 l 1
 732 147 l 1xbc
 732 220 l 1
 732 293 l 1
 805 293 l 1
 878 293 l 1x7c
 878 439 l 1
 878 586 l 1
 585 586 l 1
 293 586 l 1
 293 659 l 1
 293 732 l 1
 219 732 l 1
 146 732 l 1
 146 951 l 1
 146 1171 l 1
 219 1171 l 1
 293 1171 l 1
 293 1244 l 1x7a
878 951 m 1
 878 1171 l 1
 585 1171 l 1
 293 1171 l 1
 293 951 l 1
 293 732 l 1
 585 732 l 1
 878 732 l 1
 878 951 l 1
EndSplineSet
EndChar

StartChar: colon
Encoding: 58 58 26
Width: 1170
VWidth: 0
Flags: W
HStem: 1 292<439 732> 732 293<439 732>
VStem: 439 293<1 293 732 1025>
LayerCount: 2
Back
Fore
SplineSet
439 147 m 1
 439 293 l 1
 585 293 l 1
 732 293 l 1
 732 147 l 1
 732 1 l 1
 585 1 l 1
 439 1 l 1
 439 147 l 1
439 878 m 1
 439 1025 l 1
 585 1025 l 1
 732 1025 l 1
 732 878 l 1
 732 732 l 1
 585 732 l 1
 439 732 l 1
 439 878 l 1
EndSplineSet
EndChar

StartChar: semicolon
Encoding: 59 59 27
Width: 1170
VWidth: 0
Flags: W
HStem: -292 147<293 439> 1 292<293 439> 732 293<293 585>
VStem: 293 146<-292 -145> 439 146<-145 1>
LayerCount: 2
Back
Fore
SplineSet
293 147 m 1xf0
 293 293 l 1xf0
 439 293 l 1
 585 293 l 1
 585 74 l 1
 585 -145 l 1xe8
 512 -145 l 1
 439 -145 l 1
 439 -219 l 1
 439 -292 l 1
 366 -292 l 1
 293 -292 l 1
 293 -219 l 1
 293 -145 l 1
 366 -145 l 1
 439 -145 l 1xf0
 439 -72 l 1
 439 1 l 1xe8
 366 1 l 1
 293 1 l 1
 293 147 l 1xf0
293 878 m 1
 293 1025 l 1xf0
 439 1025 l 1
 585 1025 l 1
 585 878 l 1
 585 732 l 1
 439 732 l 1xe8
 293 732 l 1
 293 878 l 1
EndSplineSet
EndChar

StartChar: less
Encoding: 60 60 28
Width: 1170
VWidth: 0
Flags: W
HStem: -145 146<732 878> 1 146<585 732> 147 146<439 585> 293 146<293 439> 439 147<146 293> 586 146<293 439> 732 146<439 585> 878 147<585 732> 1025 146<732 878>
VStem: 146 147<439 586> 293 146<293 439 586 732> 439 146<147 293 732 878> 585 147<1 147 878 1025> 732 146<-145 1 1025 1171>
LayerCount: 2
Back
Fore
SplineSet
732 1098 m 1x0104
 732 1171 l 1
 805 1171 l 1
 878 1171 l 1
 878 1098 l 1
 878 1025 l 1
 805 1025 l 1x0084
 732 1025 l 1
 732 951 l 1
 732 878 l 1
 659 878 l 1x0108
 585 878 l 1
 585 805 l 1
 585 732 l 1
 512 732 l 1x0210
 439 732 l 1
 439 659 l 1
 439 586 l 1
 366 586 l 1x0420
 293 586 l 1x0840
 293 513 l 1
 293 439 l 1x1040
 366 439 l 1
 439 439 l 1x1020
 439 366 l 1
 439 293 l 1x2020
 512 293 l 1
 585 293 l 1x2010
 585 220 l 1
 585 147 l 1x4010
 659 147 l 1
 732 147 l 1x4008
 732 74 l 1
 732 1 l 1x8008
 805 1 l 1
 878 1 l 1
 878 -72 l 1
 878 -145 l 1
 805 -145 l 1
 732 -145 l 1
 732 -72 l 1x8004
 732 1 l 1x8008
 659 1 l 1
 585 1 l 1
 585 74 l 1x4008
 585 147 l 1x4010
 512 147 l 1
 439 147 l 1
 439 220 l 1x2010
 439 293 l 1x2020
 366 293 l 1
 293 293 l 1
 293 366 l 1x1020
 293 439 l 1x1040
 219 439 l 1
 146 439 l 1
 146 513 l 1
 146 586 l 1
 219 586 l 1
 293 586 l 1x0840
 293 659 l 1
 293 732 l 1
 366 732 l 1
 439 732 l 1x0420
 439 805 l 1
 439 878 l 1
 512 878 l 1
 585 878 l 1x0210
 585 951 l 1
 585 1025 l 1
 659 1025 l 1
 732 1025 l 1x0108
 732 1098 l 1x0104
EndSplineSet
EndChar

StartChar: equal
Encoding: 61 61 29
Width: 1170
VWidth: 0
Flags: W
HStem: 293 146<146 1024> 878 147<146 1024>
LayerCount: 2
Back
Fore
SplineSet
146 366 m 1
 146 439 l 1
 585 439 l 1
 1024 439 l 1
 1024 366 l 1
 1024 293 l 1
 585 293 l 1
 146 293 l 1
 146 366 l 1
146 951 m 1
 146 1025 l 1
 585 1025 l 1
 1024 1025 l 1
 1024 951 l 1
 1024 878 l 1
 585 878 l 1
 146 878 l 1
 146 951 l 1
EndSplineSet
EndChar

StartChar: greater
Encoding: 62 62 30
Width: 1170
VWidth: 0
Flags: W
HStem: -145 146<146 293> 1 146<293 439> 147 146<439 585> 293 146<585 732> 439 147<732 878> 586 146<585 732> 732 146<439 585> 878 147<293 439> 1025 146<146 293>
VStem: 146 147<-145 1 1025 1171> 293 146<1 147 878 1025> 439 146<147 293 732 878> 585 147<293 439 586 732> 732 146<439 586>
LayerCount: 2
Back
Fore
SplineSet
146 1098 m 1x00c0
 146 1171 l 1
 219 1171 l 1
 293 1171 l 1x00c0
 293 1098 l 1
 293 1025 l 1x0140
 366 1025 l 1
 439 1025 l 1x0120
 439 951 l 1
 439 878 l 1x0220
 512 878 l 1
 585 878 l 1x0210
 585 805 l 1
 585 732 l 1x0410
 659 732 l 1
 732 732 l 1x0408
 732 659 l 1
 732 586 l 1x0808
 805 586 l 1
 878 586 l 1
 878 513 l 1
 878 439 l 1
 805 439 l 1x0804
 732 439 l 1
 732 366 l 1
 732 293 l 1
 659 293 l 1x1008
 585 293 l 1
 585 220 l 1
 585 147 l 1
 512 147 l 1x2010
 439 147 l 1
 439 74 l 1
 439 1 l 1
 366 1 l 1x4020
 293 1 l 1
 293 -72 l 1
 293 -145 l 1
 219 -145 l 1
 146 -145 l 1
 146 -72 l 1
 146 1 l 1
 219 1 l 1
 293 1 l 1x8040
 293 74 l 1
 293 147 l 1
 366 147 l 1
 439 147 l 1x4020
 439 220 l 1
 439 293 l 1
 512 293 l 1
 585 293 l 1x2010
 585 366 l 1
 585 439 l 1
 659 439 l 1
 732 439 l 1x1008
 732 513 l 1x1004
 732 586 l 1x0808
 659 586 l 1
 585 586 l 1
 585 659 l 1x0408
 585 732 l 1x0410
 512 732 l 1
 439 732 l 1
 439 805 l 1x0210
 439 878 l 1x0220
 366 878 l 1
 293 878 l 1
 293 951 l 1x0120
 293 1025 l 1x0140
 219 1025 l 1
 146 1025 l 1
 146 1098 l 1x00c0
EndSplineSet
EndChar

StartChar: question
Encoding: 63 63 31
Width: 1170
VWidth: 0
Flags: W
HStem: 1 292<439 585> 439 147<439 585> 586 146<585 732> 732 146<732 878> 1171 146<146 293> 1317 147<293 878>
VStem: 146 147<1171 1317> 439 146<1 293 439 586> 585 147<586 732> 732 146<732 878> 878 146<878 1317>
LayerCount: 2
Back
Fore
SplineSet
439 147 m 1x83
 439 293 l 1
 512 293 l 1
 585 293 l 1
 585 147 l 1
 585 1 l 1
 512 1 l 1
 439 1 l 1
 439 147 l 1x83
293 1391 m 1
 293 1464 l 1
 585 1464 l 1
 878 1464 l 1
 878 1391 l 1
 878 1317 l 1
 951 1317 l 1
 1024 1317 l 1
 1024 1098 l 1
 1024 878 l 1x96a0
 951 878 l 1
 878 878 l 1
 878 805 l 1
 878 732 l 1
 805 732 l 1x9640
 732 732 l 1
 732 659 l 1
 732 586 l 1
 659 586 l 1xa280
 585 586 l 1
 585 513 l 1
 585 439 l 1
 512 439 l 1
 439 439 l 1
 439 513 l 1
 439 586 l 1
 512 586 l 1
 585 586 l 1xc3
 585 659 l 1
 585 732 l 1
 659 732 l 1
 732 732 l 1xa280
 732 805 l 1
 732 878 l 1
 805 878 l 1
 878 878 l 1x9240
 878 1098 l 1
 878 1317 l 1
 585 1317 l 1x96a0
 293 1317 l 1
 293 1244 l 1
 293 1171 l 1
 219 1171 l 1
 146 1171 l 1
 146 1244 l 1
 146 1317 l 1
 219 1317 l 1
 293 1317 l 1x8aa0
 293 1391 l 1
EndSplineSet
EndChar

StartChar: at
Encoding: 64 64 32
Width: 1170
VWidth: 0
Flags: W
HStem: 1 146<146 1024> 293 146<439 732> 439 147<732 878> 1025 146<439 878> 1317 147<146 878>
VStem: 0 146<147 1317> 293 146<439 1025> 439 293<293 439> 732 292<439 586> 878 146<293 439 586 1025 1171 1317>
LayerCount: 2
Back
Fore
SplineSet
146 1391 m 1xbd40
 146 1464 l 1
 512 1464 l 1
 878 1464 l 1
 878 1391 l 1
 878 1317 l 1
 951 1317 l 1
 1024 1317 l 1
 1024 805 l 1
 1024 293 l 1
 951 293 l 1
 878 293 l 1xdd40
 878 366 l 1
 878 439 l 1
 805 439 l 1xbd40
 732 439 l 1
 732 366 l 1
 732 293 l 1
 585 293 l 1
 439 293 l 1
 439 366 l 1xdd40
 439 439 l 1xde
 366 439 l 1
 293 439 l 1
 293 732 l 1
 293 1025 l 1
 366 1025 l 1
 439 1025 l 1xbe
 439 1098 l 1
 439 1171 l 1
 659 1171 l 1
 878 1171 l 1
 878 1244 l 1
 878 1317 l 1
 512 1317 l 1
 146 1317 l 1
 146 732 l 1
 146 147 l 1
 585 147 l 1
 1024 147 l 1
 1024 74 l 1
 1024 1 l 1
 585 1 l 1
 146 1 l 1
 146 74 l 1
 146 147 l 1
 73 147 l 1
 0 147 l 1
 0 732 l 1
 0 1317 l 1
 73 1317 l 1
 146 1317 l 1
 146 1391 l 1xbd40
878 805 m 1
 878 1025 l 1
 659 1025 l 1
 439 1025 l 1
 439 732 l 1
 439 439 l 1xde40
 585 439 l 1
 732 439 l 1xdd
 732 513 l 1
 732 586 l 1xbc80
 805 586 l 1
 878 586 l 1xbc40
 878 805 l 1
EndSplineSet
EndChar

StartChar: A
Encoding: 65 65 33
Width: 1170
VWidth: 0
Flags: W
HStem: 1 21G<146 293 878 1024> 586 146<293 878> 1171 146<293 878>
VStem: 146 147<1 586 732 1171> 878 146<1 586 732 1171>
LayerCount: 2
Back
Fore
SplineSet
293 1244 m 1
 293 1317 l 1
 585 1317 l 1
 878 1317 l 1
 878 1244 l 1
 878 1171 l 1
 951 1171 l 1
 1024 1171 l 1
 1024 586 l 1
 1024 1 l 1
 951 1 l 1
 878 1 l 1
 878 293 l 1
 878 586 l 1
 585 586 l 1
 293 586 l 1
 293 293 l 1
 293 1 l 1
 219 1 l 1
 146 1 l 1
 146 586 l 1
 146 1171 l 1
 219 1171 l 1
 293 1171 l 1
 293 1244 l 1
878 951 m 1
 878 1171 l 1
 585 1171 l 1
 293 1171 l 1
 293 951 l 1
 293 732 l 1
 585 732 l 1
 878 732 l 1
 878 951 l 1
EndSplineSet
EndChar

StartChar: B
Encoding: 66 66 34
Width: 1170
VWidth: 0
Flags: W
HStem: 1 146<293 878> 586 146<293 878> 1171 146<293 878>
VStem: 146 147<147 586 732 1171> 878 146<147 586 732 1171>
CounterMasks: 1 e0
LayerCount: 2
Back
Fore
SplineSet
146 659 m 1
 146 1317 l 1
 512 1317 l 1
 878 1317 l 1
 878 1244 l 1
 878 1171 l 1
 951 1171 l 1
 1024 1171 l 1
 1024 951 l 1
 1024 732 l 1
 951 732 l 1
 878 732 l 1
 878 659 l 1
 878 586 l 1
 951 586 l 1
 1024 586 l 1
 1024 366 l 1
 1024 147 l 1
 951 147 l 1
 878 147 l 1
 878 74 l 1
 878 1 l 1
 512 1 l 1
 146 1 l 1
 146 659 l 1
878 951 m 1
 878 1171 l 1
 585 1171 l 1
 293 1171 l 1
 293 951 l 1
 293 732 l 1
 585 732 l 1
 878 732 l 1
 878 951 l 1
878 366 m 1
 878 586 l 1
 585 586 l 1
 293 586 l 1
 293 366 l 1
 293 147 l 1
 585 147 l 1
 878 147 l 1
 878 366 l 1
EndSplineSet
EndChar

StartChar: C
Encoding: 67 67 35
Width: 1170
VWidth: 0
Flags: W
HStem: 1 146<293 878> 147 146<878 1024> 1025 146<878 1024> 1171 146<293 878>
VStem: 146 147<147 1171> 878 146<147 293 1025 1171>
LayerCount: 2
Back
Fore
SplineSet
293 1244 m 1x5c
 293 1317 l 1
 585 1317 l 1
 878 1317 l 1x5c
 878 1244 l 1
 878 1171 l 1
 951 1171 l 1
 1024 1171 l 1
 1024 1098 l 1
 1024 1025 l 1
 951 1025 l 1
 878 1025 l 1
 878 1098 l 1
 878 1171 l 1x2c
 585 1171 l 1
 293 1171 l 1
 293 659 l 1
 293 147 l 1
 585 147 l 1
 878 147 l 1x9c
 878 220 l 1
 878 293 l 1
 951 293 l 1
 1024 293 l 1
 1024 220 l 1
 1024 147 l 1
 951 147 l 1x4c
 878 147 l 1
 878 74 l 1
 878 1 l 1
 585 1 l 1
 293 1 l 1
 293 74 l 1
 293 147 l 1x8c
 219 147 l 1
 146 147 l 1
 146 659 l 1
 146 1171 l 1
 219 1171 l 1
 293 1171 l 1
 293 1244 l 1x5c
EndSplineSet
EndChar

StartChar: D
Encoding: 68 68 36
Width: 1170
VWidth: 0
Flags: W
HStem: 1 146<293 732> 147 146<732 878> 1025 146<732 878> 1171 146<293 732>
VStem: 146 147<147 1171> 732 146<147 293 1025 1171> 878 146<293 1025>
LayerCount: 2
Back
Fore
SplineSet
146 659 m 1x8c
 146 1317 l 1
 439 1317 l 1
 732 1317 l 1x9c
 732 1244 l 1
 732 1171 l 1
 805 1171 l 1
 878 1171 l 1
 878 1098 l 1
 878 1025 l 1x2c
 951 1025 l 1
 1024 1025 l 1
 1024 659 l 1
 1024 293 l 1x6a
 951 293 l 1
 878 293 l 1
 878 220 l 1
 878 147 l 1
 805 147 l 1x6c
 732 147 l 1
 732 74 l 1
 732 1 l 1
 439 1 l 1
 146 1 l 1
 146 659 l 1x8c
732 1098 m 1
 732 1171 l 1x6c
 512 1171 l 1
 293 1171 l 1
 293 659 l 1
 293 147 l 1
 512 147 l 1
 732 147 l 1x9c
 732 220 l 1
 732 293 l 1
 805 293 l 1
 878 293 l 1x4c
 878 659 l 1x4a
 878 1025 l 1
 805 1025 l 1
 732 1025 l 1x6c
 732 1098 l 1
EndSplineSet
EndChar

StartChar: E
Encoding: 69 69 37
Width: 1170
VWidth: 0
Flags: W
HStem: 1 146<293 1024> 586 146<293 732> 1171 146<293 1024>
VStem: 146 147<147 586 732 1171>
CounterMasks: 1 e0
LayerCount: 2
Back
Fore
SplineSet
146 659 m 1
 146 1317 l 1
 585 1317 l 1
 1024 1317 l 1
 1024 1244 l 1
 1024 1171 l 1
 658 1171 l 1
 293 1171 l 1
 293 951 l 1
 293 732 l 1
 512 732 l 1
 732 732 l 1
 732 659 l 1
 732 586 l 1
 512 586 l 1
 293 586 l 1
 293 366 l 1
 293 147 l 1
 658 147 l 1
 1024 147 l 1
 1024 74 l 1
 1024 1 l 1
 585 1 l 1
 146 1 l 1
 146 659 l 1
EndSplineSet
EndChar

StartChar: F
Encoding: 70 70 38
Width: 1170
VWidth: 0
Flags: W
HStem: 1 21G<146 293> 586 146<293 732> 1171 146<293 1024>
VStem: 146 147<1 586 732 1171>
LayerCount: 2
Back
Fore
SplineSet
146 659 m 1
 146 1317 l 1
 585 1317 l 1
 1024 1317 l 1
 1024 1244 l 1
 1024 1171 l 1
 658 1171 l 1
 293 1171 l 1
 293 951 l 1
 293 732 l 1
 512 732 l 1
 732 732 l 1
 732 659 l 1
 732 586 l 1
 512 586 l 1
 293 586 l 1
 293 293 l 1
 293 1 l 1
 219 1 l 1
 146 1 l 1
 146 659 l 1
EndSplineSet
EndChar

StartChar: G
Encoding: 71 71 39
Width: 1170
VWidth: 0
Flags: W
HStem: 1 146<293 878> 586 146<585 878> 1025 146<878 1024> 1171 146<293 878>
VStem: 146 147<147 1171> 878 146<147 586 1025 1171>
LayerCount: 2
Back
Fore
SplineSet
293 1244 m 1xdc
 293 1317 l 1
 585 1317 l 1
 878 1317 l 1xdc
 878 1244 l 1
 878 1171 l 1
 951 1171 l 1
 1024 1171 l 1
 1024 1098 l 1
 1024 1025 l 1
 951 1025 l 1
 878 1025 l 1
 878 1098 l 1
 878 1171 l 1xec
 585 1171 l 1
 293 1171 l 1
 293 659 l 1
 293 147 l 1
 585 147 l 1
 878 147 l 1
 878 366 l 1
 878 586 l 1
 732 586 l 1
 585 586 l 1
 585 659 l 1
 585 732 l 1
 805 732 l 1
 1024 732 l 1
 1024 440 l 1
 1024 147 l 1
 951 147 l 1
 878 147 l 1
 878 74 l 1
 878 1 l 1
 585 1 l 1
 293 1 l 1
 293 74 l 1
 293 147 l 1
 219 147 l 1
 146 147 l 1
 146 659 l 1
 146 1171 l 1
 219 1171 l 1
 293 1171 l 1
 293 1244 l 1xdc
EndSplineSet
EndChar

StartChar: H
Encoding: 72 72 40
Width: 1170
VWidth: 0
Flags: W
HStem: 1 21G<146 293 878 1024> 586 146<293 878> 1297 20G<146 293 878 1024>
VStem: 146 147<1 586 732 1317> 878 146<1 586 732 1317>
LayerCount: 2
Back
Fore
SplineSet
146 659 m 1
 146 1317 l 1
 219 1317 l 1
 293 1317 l 1
 293 1025 l 1
 293 732 l 1
 585 732 l 1
 878 732 l 1
 878 1025 l 1
 878 1317 l 1
 951 1317 l 1
 1024 1317 l 1
 1024 659 l 1
 1024 1 l 1
 951 1 l 1
 878 1 l 1
 878 293 l 1
 878 586 l 1
 585 586 l 1
 293 586 l 1
 293 293 l 1
 293 1 l 1
 219 1 l 1
 146 1 l 1
 146 659 l 1
EndSplineSet
EndChar

StartChar: I
Encoding: 73 73 41
Width: 1170
VWidth: 0
Flags: W
HStem: 1 146<293 439 585 732> 1171 146<293 439 585 732>
VStem: 293 439<1 147 1171 1317> 439 146<147 1171>
LayerCount: 2
Back
Fore
SplineSet
293 1244 m 1xe0
 293 1317 l 1
 512 1317 l 1
 732 1317 l 1
 732 1244 l 1
 732 1171 l 1xe0
 659 1171 l 1
 585 1171 l 1
 585 659 l 1
 585 147 l 1xd0
 659 147 l 1
 732 147 l 1
 732 74 l 1
 732 1 l 1
 512 1 l 1
 293 1 l 1
 293 74 l 1
 293 147 l 1xe0
 366 147 l 1
 439 147 l 1
 439 659 l 1
 439 1171 l 1xd0
 366 1171 l 1
 293 1171 l 1
 293 1244 l 1xe0
EndSplineSet
EndChar

StartChar: J
Encoding: 74 74 42
Width: 1170
VWidth: 0
Flags: W
HStem: 1 146<293 878> 147 292<146 293> 1297 20G<878 1024>
VStem: 146 147<147 439> 878 146<147 1317>
LayerCount: 2
Back
Fore
SplineSet
878 732 m 1xb8
 878 1317 l 1
 951 1317 l 1
 1024 1317 l 1
 1024 732 l 1
 1024 147 l 1
 951 147 l 1x78
 878 147 l 1
 878 74 l 1
 878 1 l 1
 585 1 l 1
 293 1 l 1
 293 74 l 1
 293 147 l 1xb8
 219 147 l 1
 146 147 l 1
 146 293 l 1
 146 439 l 1
 219 439 l 1
 293 439 l 1x78
 293 293 l 1
 293 147 l 1
 585 147 l 1
 878 147 l 1
 878 732 l 1xb8
EndSplineSet
EndChar

StartChar: K
Encoding: 75 75 43
Width: 1170
VWidth: 0
Flags: W
HStem: 1 146<878 1024> 147 146<732 878> 293 146<585 732> 439 147<439 585> 586 146<293 439> 732 146<439 585> 878 147<585 732> 1025 146<732 878> 1171 146<878 1024>
VStem: 146 293<586 732> 146 147<1 586 732 1317> 439 146<439 586 732 878> 585 147<293 439 878 1025> 732 146<147 293 1025 1171> 878 146<1 147 1171 1317>
LayerCount: 2
Back
Fore
SplineSet
146 659 m 1xa840
 146 1317 l 1
 219 1317 l 1
 293 1317 l 1xa8a0
 293 1025 l 1
 293 732 l 1x0920
 366 732 l 1
 439 732 l 1x0940
 439 805 l 1
 439 878 l 1
 512 878 l 1
 585 878 l 1x0410
 585 951 l 1
 585 1025 l 1
 659 1025 l 1
 732 1025 l 1x0208
 732 1098 l 1
 732 1171 l 1
 805 1171 l 1
 878 1171 l 1x0104
 878 1244 l 1
 878 1317 l 1
 951 1317 l 1
 1024 1317 l 1
 1024 1244 l 1
 1024 1171 l 1
 951 1171 l 1x0082
 878 1171 l 1
 878 1098 l 1
 878 1025 l 1
 805 1025 l 1x0104
 732 1025 l 1
 732 951 l 1
 732 878 l 1
 659 878 l 1x0208
 585 878 l 1
 585 805 l 1
 585 732 l 1
 512 732 l 1x0410
 439 732 l 1x0840
 439 659 l 1
 439 586 l 1x1040
 512 586 l 1
 585 586 l 1x1010
 585 513 l 1
 585 439 l 1x2010
 659 439 l 1
 732 439 l 1x2008
 732 366 l 1
 732 293 l 1x4008
 805 293 l 1
 878 293 l 1x4004
 878 220 l 1
 878 147 l 1x8004
 951 147 l 1
 1024 147 l 1
 1024 74 l 1
 1024 1 l 1
 951 1 l 1
 878 1 l 1
 878 74 l 1x8002
 878 147 l 1x8004
 805 147 l 1
 732 147 l 1
 732 220 l 1x4004
 732 293 l 1x4008
 659 293 l 1
 585 293 l 1
 585 366 l 1x2008
 585 439 l 1x2010
 512 439 l 1
 439 439 l 1
 439 513 l 1x1010
 439 586 l 1x1040
 366 586 l 1
 293 586 l 1
 293 293 l 1
 293 1 l 1
 219 1 l 1
 146 1 l 1xa820
 146 659 l 1xa840
EndSplineSet
EndChar

StartChar: L
Encoding: 76 76 44
Width: 1170
VWidth: 0
Flags: W
HStem: 1 146<293 1024> 1297 20G<146 293>
VStem: 146 147<147 1317>
LayerCount: 2
Back
Fore
SplineSet
146 659 m 1
 146 1317 l 1
 219 1317 l 1
 293 1317 l 1
 293 732 l 1
 293 147 l 1
 658 147 l 1
 1024 147 l 1
 1024 74 l 1
 1024 1 l 1
 585 1 l 1
 146 1 l 1
 146 659 l 1
EndSplineSet
EndChar

StartChar: M
Encoding: 77 77 45
Width: 1170
VWidth: 0
Flags: W
HStem: 1 21G<0 146 878 1024> 586 292<439 585> 878 147<293 439 585 732> 1025 146<146 293 732 878> 1297 20G<0 146 878 1024>
VStem: 0 293<1025 1171> 0 146<1 1025 1171 1317> 293 146<878 1025> 439 146<586 878> 585 147<878 1025> 732 292<1025 1171> 878 146<1 1025 1171 1317>
LayerCount: 2
Back
Fore
SplineSet
0 659 m 1x9a
 0 1317 l 1
 73 1317 l 1
 146 1317 l 1
 146 1244 l 1
 146 1171 l 1x9a
 219 1171 l 1
 293 1171 l 1x9c
 293 1098 l 1
 293 1025 l 1xac
 366 1025 l 1
 439 1025 l 1xa9
 439 951 l 1
 439 878 l 1xc9
 512 878 l 1
 585 878 l 1xc880
 585 951 l 1
 585 1025 l 1
 659 1025 l 1
 732 1025 l 1xa840
 732 1098 l 1
 732 1171 l 1x9820
 805 1171 l 1
 878 1171 l 1
 878 1244 l 1
 878 1317 l 1
 951 1317 l 1
 1024 1317 l 1
 1024 659 l 1
 1024 1 l 1
 951 1 l 1
 878 1 l 1
 878 513 l 1
 878 1025 l 1
 805 1025 l 1x9810
 732 1025 l 1
 732 951 l 1
 732 878 l 1
 659 878 l 1xa850
 585 878 l 1
 585 732 l 1
 585 586 l 1
 512 586 l 1
 439 586 l 1
 439 732 l 1xc880
 439 878 l 1xc9
 366 878 l 1
 293 878 l 1
 293 951 l 1xa9
 293 1025 l 1xac
 219 1025 l 1
 146 1025 l 1
 146 513 l 1
 146 1 l 1
 73 1 l 1
 0 1 l 1
 0 659 l 1x9a
EndSplineSet
EndChar

StartChar: N
Encoding: 78 78 46
Width: 1170
VWidth: 0
Flags: W
HStem: 1 292<732 878> 293 293<585 732> 586 292<439 585> 878 293<293 439> 1297 20G<146 293 878 1024>
VStem: 146 293<878 1171> 146 147<1 878 1171 1317> 439 146<586 878> 585 147<293 586> 732 292<1 293> 878 146<293 1317>
LayerCount: 2
Back
Fore
SplineSet
146 659 m 1x9a
 146 1317 l 1
 219 1317 l 1
 293 1317 l 1
 293 1244 l 1
 293 1171 l 1x9a
 366 1171 l 1
 439 1171 l 1x9c
 439 1025 l 1
 439 878 l 1x2c
 512 878 l 1
 585 878 l 1x29
 585 732 l 1
 585 586 l 1x49
 659 586 l 1
 732 586 l 1x4880
 732 439 l 1
 732 293 l 1
 805 293 l 1
 878 293 l 1
 878 805 l 1
 878 1317 l 1
 951 1317 l 1
 1024 1317 l 1
 1024 659 l 1x88a0
 1024 1 l 1x8840
 878 1 l 1x8820
 732 1 l 1
 732 147 l 1x8840
 732 293 l 1x8880
 659 293 l 1
 585 293 l 1
 585 439 l 1x4880
 585 586 l 1x49
 512 586 l 1
 439 586 l 1
 439 732 l 1x29
 439 878 l 1x2c
 366 878 l 1
 293 878 l 1
 293 440 l 1
 293 1 l 1
 219 1 l 1
 146 1 l 1
 146 659 l 1x9a
EndSplineSet
EndChar

StartChar: O
Encoding: 79 79 47
Width: 1170
VWidth: 0
Flags: W
HStem: 1 146<293 878> 1171 146<293 878>
VStem: 146 147<147 1171> 878 146<147 1171>
LayerCount: 2
Back
Fore
SplineSet
293 1244 m 1
 293 1317 l 1
 585 1317 l 1
 878 1317 l 1
 878 1244 l 1
 878 1171 l 1
 951 1171 l 1
 1024 1171 l 1
 1024 659 l 1
 1024 147 l 1
 951 147 l 1
 878 147 l 1
 878 74 l 1
 878 1 l 1
 585 1 l 1
 293 1 l 1
 293 74 l 1
 293 147 l 1
 219 147 l 1
 146 147 l 1
 146 659 l 1
 146 1171 l 1
 219 1171 l 1
 293 1171 l 1
 293 1244 l 1
878 659 m 1
 878 1171 l 1
 585 1171 l 1
 293 1171 l 1
 293 659 l 1
 293 147 l 1
 585 147 l 1
 878 147 l 1
 878 659 l 1
EndSplineSet
EndChar

StartChar: P
Encoding: 80 80 48
Width: 1170
VWidth: 0
Flags: W
HStem: 1 21G<146 293> 586 146<293 878> 1171 146<293 878>
VStem: 146 147<1 586 732 1171> 878 146<732 1171>
LayerCount: 2
Back
Fore
SplineSet
146 659 m 1
 146 1317 l 1
 512 1317 l 1
 878 1317 l 1
 878 1244 l 1
 878 1171 l 1
 951 1171 l 1
 1024 1171 l 1
 1024 951 l 1
 1024 732 l 1
 951 732 l 1
 878 732 l 1
 878 659 l 1
 878 586 l 1
 585 586 l 1
 293 586 l 1
 293 293 l 1
 293 1 l 1
 219 1 l 1
 146 1 l 1
 146 659 l 1
878 951 m 1
 878 1171 l 1
 585 1171 l 1
 293 1171 l 1
 293 951 l 1
 293 732 l 1
 585 732 l 1
 878 732 l 1
 878 951 l 1
EndSplineSet
EndChar

StartChar: Q
Encoding: 81 81 49
Width: 1170
VWidth: 0
Flags: W
HStem: -145 292<878 1024> 1 146<293 732> 147 146<732 878> 293 293<585 732> 1171 146<293 878>
VStem: 146 147<147 1171> 585 147<293 586> 732 146<147 293> 878 146<-145 147 293 1171>
LayerCount: 2
Back
Fore
SplineSet
585 439 m 1x1e
 585 586 l 1
 659 586 l 1
 732 586 l 1x1e
 732 439 l 1
 732 293 l 1x2e
 659 293 l 1
 585 293 l 1
 585 439 l 1x1e
293 1244 m 1
 293 1317 l 1
 585 1317 l 1
 878 1317 l 1
 878 1244 l 1
 878 1171 l 1
 951 1171 l 1
 1024 1171 l 1
 1024 732 l 1
 1024 293 l 1
 951 293 l 1x1e80
 878 293 l 1x2d
 878 220 l 1
 878 147 l 1x8d
 951 147 l 1
 1024 147 l 1x8c80
 1024 1 l 1x4c80
 1024 -145 l 1
 951 -145 l 1
 878 -145 l 1x8c80
 878 1 l 1x4c80
 878 147 l 1x8d
 805 147 l 1x2d
 732 147 l 1
 732 74 l 1
 732 1 l 1
 512 1 l 1
 293 1 l 1
 293 74 l 1
 293 147 l 1x4d
 219 147 l 1
 146 147 l 1x2d
 146 659 l 1
 146 1171 l 1
 219 1171 l 1
 293 1171 l 1
 293 1244 l 1
878 732 m 1
 878 1171 l 1
 585 1171 l 1x2e80
 293 1171 l 1
 293 659 l 1
 293 147 l 1
 512 147 l 1
 732 147 l 1
 732 220 l 1x4d
 732 293 l 1x2e
 805 293 l 1
 878 293 l 1x2d
 878 732 l 1
EndSplineSet
EndChar

StartChar: R
Encoding: 82 82 50
Width: 1170
VWidth: 0
Flags: W
HStem: 1 292<878 1024> 293 146<732 878> 439 293<585 732> 586 146<293 585 732 878> 1171 146<293 878>
VStem: 146 147<1 586 732 1171> 585 147<439 586> 732 146<293 439> 878 146<1 293 732 1171>
LayerCount: 2
Back
Fore
SplineSet
146 659 m 1x8e
 146 1317 l 1
 512 1317 l 1
 878 1317 l 1
 878 1244 l 1
 878 1171 l 1
 951 1171 l 1
 1024 1171 l 1
 1024 951 l 1
 1024 732 l 1
 951 732 l 1
 878 732 l 1
 878 659 l 1
 878 586 l 1
 805 586 l 1
 732 586 l 1
 732 513 l 1
 732 439 l 1x5e80
 805 439 l 1
 878 439 l 1x5d
 878 366 l 1
 878 293 l 1x8d
 951 293 l 1
 1024 293 l 1
 1024 147 l 1
 1024 1 l 1
 951 1 l 1
 878 1 l 1
 878 147 l 1x8c80
 878 293 l 1x8d
 805 293 l 1
 732 293 l 1
 732 366 l 1x4d
 732 439 l 1x4e
 659 439 l 1
 585 439 l 1x2e
 585 513 l 1
 585 586 l 1
 439 586 l 1
 293 586 l 1
 293 293 l 1x5e
 293 1 l 1
 219 1 l 1
 146 1 l 1
 146 659 l 1x8e
878 951 m 1
 878 1171 l 1
 585 1171 l 1
 293 1171 l 1
 293 951 l 1
 293 732 l 1x1e80
 585 732 l 1x2e80
 878 732 l 1
 878 951 l 1
EndSplineSet
EndChar

StartChar: S
Encoding: 83 83 51
Width: 1170
VWidth: 0
Flags: W
HStem: 1 146<293 878> 147 146<146 293> 586 146<293 878> 1025 146<878 1024> 1171 146<293 878>
VStem: 146 147<147 293 732 1171> 293 585<1 147 586 732 1171 1317> 878 146<147 586 1025 1171>
LayerCount: 2
Back
Fore
SplineSet
293 1244 m 1xaa
 293 1317 l 1
 585 1317 l 1
 878 1317 l 1xaa
 878 1244 l 1
 878 1171 l 1x32
 951 1171 l 1
 1024 1171 l 1
 1024 1098 l 1
 1024 1025 l 1
 951 1025 l 1
 878 1025 l 1
 878 1098 l 1x31
 878 1171 l 1x32
 585 1171 l 1
 293 1171 l 1
 293 951 l 1
 293 732 l 1x2c
 585 732 l 1
 878 732 l 1
 878 659 l 1
 878 586 l 1x2a
 951 586 l 1
 1024 586 l 1
 1024 366 l 1
 1024 147 l 1
 951 147 l 1x69
 878 147 l 1
 878 74 l 1
 878 1 l 1
 585 1 l 1
 293 1 l 1
 293 74 l 1xa2
 293 147 l 1xa4
 219 147 l 1
 146 147 l 1
 146 220 l 1
 146 293 l 1
 219 293 l 1
 293 293 l 1x64
 293 220 l 1
 293 147 l 1xa4
 585 147 l 1
 878 147 l 1xa2
 878 366 l 1xa1
 878 586 l 1
 585 586 l 1
 293 586 l 1
 293 659 l 1xa2
 293 732 l 1
 219 732 l 1
 146 732 l 1
 146 951 l 1
 146 1171 l 1
 219 1171 l 1
 293 1171 l 1xac
 293 1244 l 1xaa
EndSplineSet
EndChar

StartChar: T
Encoding: 84 84 52
Width: 1170
VWidth: 0
Flags: W
HStem: 1 21G<439 585> 1171 146<0 439 585 1024>
VStem: 439 146<1 1171>
LayerCount: 2
Back
Fore
SplineSet
0 1244 m 1
 0 1317 l 1
 512 1317 l 1
 1024 1317 l 1
 1024 1244 l 1
 1024 1171 l 1
 805 1171 l 1
 585 1171 l 1
 585 586 l 1
 585 1 l 1
 512 1 l 1
 439 1 l 1
 439 586 l 1
 439 1171 l 1
 220 1171 l 1
 0 1171 l 1
 0 1244 l 1
EndSplineSet
EndChar

StartChar: U
Encoding: 85 85 53
Width: 1170
VWidth: 0
Flags: W
HStem: 1 146<293 878> 1297 20G<146 293 878 1024>
VStem: 146 147<147 1317> 878 146<147 1317>
LayerCount: 2
Back
Fore
SplineSet
146 732 m 1
 146 1317 l 1
 219 1317 l 1
 293 1317 l 1
 293 732 l 1
 293 147 l 1
 585 147 l 1
 878 147 l 1
 878 732 l 1
 878 1317 l 1
 951 1317 l 1
 1024 1317 l 1
 1024 732 l 1
 1024 147 l 1
 951 147 l 1
 878 147 l 1
 878 74 l 1
 878 1 l 1
 585 1 l 1
 293 1 l 1
 293 74 l 1
 293 147 l 1
 219 147 l 1
 146 147 l 1
 146 732 l 1
EndSplineSet
EndChar

StartChar: V
Encoding: 86 86 54
Width: 1170
VWidth: 0
Flags: W
HStem: 1 292<439 732> 293 439<293 439 732 878> 1297 20G<146 293 878 1024>
VStem: 146 147<732 1317> 293 146<293 732> 439 293<1 293> 732 146<293 732> 878 146<732 1317>
LayerCount: 2
Back
Fore
SplineSet
146 1025 m 1x70
 146 1317 l 1
 219 1317 l 1
 293 1317 l 1
 293 1025 l 1
 293 732 l 1x70
 366 732 l 1
 439 732 l 1x68
 439 513 l 1
 439 293 l 1xa8
 585 293 l 1
 732 293 l 1xa4
 732 513 l 1
 732 732 l 1
 805 732 l 1
 878 732 l 1x62
 878 1025 l 1
 878 1317 l 1
 951 1317 l 1
 1024 1317 l 1
 1024 1025 l 1
 1024 732 l 1x61
 951 732 l 1
 878 732 l 1
 878 513 l 1
 878 293 l 1
 805 293 l 1x62
 732 293 l 1
 732 147 l 1
 732 1 l 1
 585 1 l 1
 439 1 l 1
 439 147 l 1xa4
 439 293 l 1xa8
 366 293 l 1
 293 293 l 1
 293 513 l 1x68
 293 732 l 1
 219 732 l 1
 146 732 l 1
 146 1025 l 1x70
EndSplineSet
EndChar

StartChar: W
Encoding: 87 87 55
Width: 1170
VWidth: 0
Flags: W
HStem: 1 438<146 293 732 878> 439 147<293 439 585 732> 1005 20G<439 585> 1297 20G<0 146 878 1024>
VStem: 0 146<439 1317> 146 147<1 439> 293 146<439 586> 439 146<586 1025> 585 147<439 586> 732 146<1 439> 878 146<439 1317>
LayerCount: 2
Back
Fore
SplineSet
0 878 m 1x78
 0 1317 l 1
 73 1317 l 1
 146 1317 l 1
 146 878 l 1
 146 439 l 1xb8
 219 439 l 1
 293 439 l 1xb4
 293 513 l 1
 293 586 l 1
 366 586 l 1
 439 586 l 1x72
 439 805 l 1
 439 1025 l 1
 512 1025 l 1
 585 1025 l 1
 585 805 l 1
 585 586 l 1x71
 659 586 l 1
 732 586 l 1x7080
 732 513 l 1
 732 439 l 1xb080
 805 439 l 1
 878 439 l 1xb040
 878 878 l 1
 878 1317 l 1
 951 1317 l 1
 1024 1317 l 1
 1024 878 l 1
 1024 439 l 1
 951 439 l 1x7020
 878 439 l 1
 878 220 l 1
 878 1 l 1
 805 1 l 1
 732 1 l 1
 732 220 l 1xb040
 732 439 l 1xb080
 659 439 l 1
 585 439 l 1
 585 513 l 1x7080
 585 586 l 1x71
 512 586 l 1
 439 586 l 1
 439 513 l 1
 439 439 l 1
 366 439 l 1x72
 293 439 l 1
 293 220 l 1
 293 1 l 1
 219 1 l 1
 146 1 l 1
 146 220 l 1xb4
 146 439 l 1xb8
 73 439 l 1
 0 439 l 1
 0 878 l 1x78
EndSplineSet
EndChar

StartChar: X
Encoding: 88 88 56
Width: 1170
VWidth: 0
Flags: W
HStem: 1 292<146 293 878 1024> 293 293<293 439 732 878> 586 146<439 732> 732 293<293 439 732 878> 1025 292<146 293 878 1024>
VStem: 146 147<1 293 1025 1317> 293 146<293 586 732 1025> 439 293<586 732> 732 146<293 586 732 1025> 878 146<1 293 1025 1317>
LayerCount: 2
Back
Fore
SplineSet
146 1171 m 1x0c
 146 1317 l 1
 219 1317 l 1
 293 1317 l 1x0c
 293 1171 l 1
 293 1025 l 1x14
 366 1025 l 1
 439 1025 l 1x12
 439 878 l 1
 439 732 l 1x22
 585 732 l 1
 732 732 l 1x21
 732 878 l 1
 732 1025 l 1
 805 1025 l 1
 878 1025 l 1x1080
 878 1171 l 1
 878 1317 l 1
 951 1317 l 1
 1024 1317 l 1
 1024 1171 l 1
 1024 1025 l 1
 951 1025 l 1x0840
 878 1025 l 1
 878 878 l 1
 878 732 l 1
 805 732 l 1x1080
 732 732 l 1x21
 732 659 l 1
 732 586 l 1x41
 805 586 l 1
 878 586 l 1x4080
 878 439 l 1
 878 293 l 1x8080
 951 293 l 1
 1024 293 l 1
 1024 147 l 1
 1024 1 l 1
 951 1 l 1
 878 1 l 1
 878 147 l 1x8040
 878 293 l 1x8080
 805 293 l 1
 732 293 l 1
 732 439 l 1x4080
 732 586 l 1x41
 585 586 l 1x21
 439 586 l 1
 439 439 l 1
 439 293 l 1
 366 293 l 1x42
 293 293 l 1
 293 147 l 1
 293 1 l 1
 219 1 l 1
 146 1 l 1
 146 147 l 1
 146 293 l 1
 219 293 l 1
 293 293 l 1x84
 293 439 l 1
 293 586 l 1
 366 586 l 1
 439 586 l 1x42
 439 659 l 1x41
 439 732 l 1x22
 366 732 l 1
 293 732 l 1
 293 878 l 1x12
 293 1025 l 1x14
 219 1025 l 1
 146 1025 l 1
 146 1171 l 1x0c
EndSplineSet
EndChar

StartChar: Y
Encoding: 89 89 57
Width: 1170
VWidth: 0
Flags: W
HStem: 1 21G<439 585> 586 146<293 439 585 732> 732 293<146 293 732 878> 1025 292<0 146 878 1024>
VStem: 0 146<1025 1317> 146 147<732 1025> 293 146<586 732> 439 146<1 586> 585 147<586 732> 732 146<732 1025> 878 146<1025 1317>
LayerCount: 2
Back
Fore
SplineSet
0 1171 m 1x98
 0 1317 l 1
 73 1317 l 1
 146 1317 l 1x98
 146 1171 l 1
 146 1025 l 1xa8
 219 1025 l 1
 293 1025 l 1xa4
 293 878 l 1
 293 732 l 1xc4
 366 732 l 1
 439 732 l 1
 439 659 l 1
 439 586 l 1xc2
 512 586 l 1
 585 586 l 1xc1
 585 659 l 1
 585 732 l 1
 659 732 l 1
 732 732 l 1xc080
 732 878 l 1
 732 1025 l 1
 805 1025 l 1
 878 1025 l 1xa040
 878 1171 l 1
 878 1317 l 1
 951 1317 l 1
 1024 1317 l 1
 1024 1171 l 1
 1024 1025 l 1
 951 1025 l 1x9020
 878 1025 l 1
 878 878 l 1
 878 732 l 1
 805 732 l 1xa040
 732 732 l 1
 732 659 l 1
 732 586 l 1xc080
 659 586 l 1
 585 586 l 1
 585 293 l 1
 585 1 l 1
 512 1 l 1
 439 1 l 1
 439 293 l 1xc1
 439 586 l 1
 366 586 l 1
 293 586 l 1
 293 659 l 1xc2
 293 732 l 1xc4
 219 732 l 1
 146 732 l 1
 146 878 l 1xa4
 146 1025 l 1xa8
 73 1025 l 1
 0 1025 l 1
 0 1171 l 1x98
EndSplineSet
EndChar

StartChar: Z
Encoding: 90 90 58
Width: 1170
VWidth: 0
Flags: W
HStem: 1 146<293 1024> 439 147<293 439> 586 146<439 585> 732 146<585 732> 878 147<732 878> 1025 292<878 1024> 1171 146<146 878>
VStem: 146 147<147 439> 293 146<439 586> 439 146<586 732> 585 147<732 878> 732 146<878 1025> 878 146<1025 1171>
LayerCount: 2
Back
Fore
SplineSet
146 1244 m 1x8b08
 146 1317 l 1
 585 1317 l 1x8b28
 1024 1317 l 1x8528
 1024 1171 l 1x8328
 1024 1025 l 1
 951 1025 l 1x8528
 878 1025 l 1
 878 951 l 1
 878 878 l 1
 805 878 l 1x8810
 732 878 l 1
 732 805 l 1
 732 732 l 1
 659 732 l 1x9020
 585 732 l 1
 585 659 l 1
 585 586 l 1
 512 586 l 1xa040
 439 586 l 1
 439 513 l 1
 439 439 l 1xc080
 366 439 l 1
 293 439 l 1
 293 293 l 1
 293 147 l 1
 658 147 l 1
 1024 147 l 1
 1024 74 l 1
 1024 1 l 1
 585 1 l 1
 146 1 l 1
 146 220 l 1
 146 439 l 1
 219 439 l 1
 293 439 l 1xc128
 293 513 l 1
 293 586 l 1
 366 586 l 1
 439 586 l 1xc080
 439 659 l 1
 439 732 l 1
 512 732 l 1
 585 732 l 1xa040
 585 805 l 1
 585 878 l 1
 659 878 l 1
 732 878 l 1x9020
 732 951 l 1
 732 1025 l 1
 805 1025 l 1
 878 1025 l 1x8810
 878 1098 l 1
 878 1171 l 1
 512 1171 l 1
 146 1171 l 1
 146 1244 l 1x8b08
EndSplineSet
EndChar

StartChar: bracketleft
Encoding: 91 91 59
Width: 1170
VWidth: 0
Flags: W
HStem: -145 146<585 878> 1317 147<585 878>
VStem: 439 439<-145 1 1317 1464> 439 146<1 1317>
LayerCount: 2
Back
Fore
SplineSet
439 659 m 1xd0
 439 1464 l 1
 659 1464 l 1
 878 1464 l 1
 878 1391 l 1
 878 1317 l 1xe0
 732 1317 l 1
 585 1317 l 1
 585 659 l 1
 585 1 l 1xd0
 732 1 l 1
 878 1 l 1
 878 -72 l 1
 878 -145 l 1
 659 -145 l 1
 439 -145 l 1xe0
 439 659 l 1xd0
EndSplineSet
EndChar

StartChar: backslash
Encoding: 92 92 60
Width: 1170
VWidth: 0
Flags: W
HStem: -145 292<878 1024> 147 292<732 878> 439 293<585 732> 732 293<439 585> 1025 292<293 439> 1317 293<146 293>
VStem: 146 147<1317 1610> 293 146<1025 1317> 439 146<732 1025> 585 147<439 732> 732 146<147 439> 878 146<-145 147>
LayerCount: 2
Back
Fore
SplineSet
146 1464 m 1x06
 146 1610 l 1
 219 1610 l 1
 293 1610 l 1x06
 293 1464 l 1
 293 1317 l 1x0a
 366 1317 l 1
 439 1317 l 1x09
 439 1171 l 1
 439 1025 l 1x11
 512 1025 l 1
 585 1025 l 1x1080
 585 878 l 1
 585 732 l 1x2080
 659 732 l 1
 732 732 l 1x2040
 732 586 l 1
 732 439 l 1x4040
 805 439 l 1
 878 439 l 1x4020
 878 293 l 1
 878 147 l 1x8020
 951 147 l 1
 1024 147 l 1
 1024 1 l 1
 1024 -145 l 1
 951 -145 l 1
 878 -145 l 1
 878 1 l 1x8010
 878 147 l 1x8020
 805 147 l 1
 732 147 l 1
 732 293 l 1x4020
 732 439 l 1x4040
 659 439 l 1
 585 439 l 1
 585 586 l 1x2040
 585 732 l 1x2080
 512 732 l 1
 439 732 l 1
 439 878 l 1x1080
 439 1025 l 1x11
 366 1025 l 1
 293 1025 l 1
 293 1171 l 1x09
 293 1317 l 1x0a
 219 1317 l 1
 146 1317 l 1
 146 1464 l 1x06
EndSplineSet
EndChar

StartChar: bracketright
Encoding: 93 93 61
Width: 1170
VWidth: 0
Flags: W
HStem: -145 146<293 585> 1317 147<293 585>
VStem: 293 439<-145 1 1317 1464> 585 147<1 1317>
LayerCount: 2
Back
Fore
SplineSet
293 1391 m 1xe0
 293 1464 l 1
 512 1464 l 1
 732 1464 l 1xe0
 732 659 l 1xd0
 732 -145 l 1
 512 -145 l 1
 293 -145 l 1
 293 -72 l 1
 293 1 l 1xe0
 439 1 l 1
 585 1 l 1
 585 659 l 1
 585 1317 l 1xd0
 439 1317 l 1
 293 1317 l 1
 293 1391 l 1xe0
EndSplineSet
EndChar

StartChar: asciicircum
Encoding: 94 94 62
Width: 1170
VWidth: 0
Flags: W
HStem: 1025 146<146 293 732 878> 1171 146<293 439 585 732> 1317 147<439 585>
VStem: 146 147<1025 1171> 293 146<1171 1317> 439 146<1317 1464> 585 147<1171 1317> 732 146<1025 1171>
LayerCount: 2
Back
Fore
SplineSet
439 1391 m 1x44
 439 1464 l 1
 512 1464 l 1
 585 1464 l 1x24
 585 1391 l 1
 585 1317 l 1x44
 659 1317 l 1
 732 1317 l 1x42
 732 1244 l 1
 732 1171 l 1x82
 805 1171 l 1
 878 1171 l 1
 878 1098 l 1
 878 1025 l 1
 805 1025 l 1
 732 1025 l 1
 732 1098 l 1x81
 732 1171 l 1x82
 659 1171 l 1
 585 1171 l 1
 585 1244 l 1x42
 585 1317 l 1x44
 512 1317 l 1x24
 439 1317 l 1
 439 1244 l 1
 439 1171 l 1
 366 1171 l 1x48
 293 1171 l 1
 293 1098 l 1
 293 1025 l 1
 219 1025 l 1
 146 1025 l 1
 146 1098 l 1
 146 1171 l 1
 219 1171 l 1
 293 1171 l 1x90
 293 1244 l 1
 293 1317 l 1
 366 1317 l 1
 439 1317 l 1x48
 439 1391 l 1x44
EndSplineSet
EndChar

StartChar: underscore
Encoding: 95 95 63
Width: 1170
VWidth: 0
Flags: W
HStem: -145 146<0 1170>
LayerCount: 2
Back
Fore
SplineSet
0 -72 m 1
 0 1 l 1
 585 1 l 1
 1170 1 l 1
 1170 -72 l 1
 1170 -145 l 1
 585 -145 l 1
 0 -145 l 1
 0 -72 l 1
EndSplineSet
EndChar

StartChar: grave
Encoding: 96 96 64
Width: 1170
VWidth: 0
Flags: W
HStem: 1025 146<439 585> 1171 146<293 439> 1317 147<146 293>
VStem: 146 147<1317 1464> 293 146<1171 1317> 439 146<1025 1171>
LayerCount: 2
Back
Fore
SplineSet
146 1391 m 1x30
 146 1464 l 1
 219 1464 l 1
 293 1464 l 1x30
 293 1391 l 1
 293 1317 l 1x50
 366 1317 l 1
 439 1317 l 1x48
 439 1244 l 1
 439 1171 l 1x88
 512 1171 l 1
 585 1171 l 1
 585 1098 l 1
 585 1025 l 1
 512 1025 l 1
 439 1025 l 1
 439 1098 l 1x84
 439 1171 l 1x88
 366 1171 l 1
 293 1171 l 1
 293 1244 l 1x48
 293 1317 l 1x50
 219 1317 l 1
 146 1317 l 1
 146 1391 l 1x30
EndSplineSet
EndChar

StartChar: a
Encoding: 97 97 65
Width: 1170
VWidth: 0
Flags: W
HStem: 1 146<293 732> 147 146<732 878> 586 146<293 878> 878 147<293 878>
VStem: 146 147<147 586> 732 292<147 293> 878 146<1 147 293 586 732 878>
LayerCount: 2
Back
Fore
SplineSet
293 951 m 1x7a
 293 1025 l 1
 585 1025 l 1
 878 1025 l 1
 878 951 l 1
 878 878 l 1
 951 878 l 1
 1024 878 l 1
 1024 440 l 1
 1024 1 l 1
 951 1 l 1
 878 1 l 1xba
 878 74 l 1
 878 147 l 1
 805 147 l 1x7a
 732 147 l 1
 732 74 l 1
 732 1 l 1
 512 1 l 1
 293 1 l 1
 293 74 l 1
 293 147 l 1xbc
 219 147 l 1
 146 147 l 1
 146 366 l 1
 146 586 l 1
 219 586 l 1
 293 586 l 1
 293 659 l 1
 293 732 l 1
 585 732 l 1
 878 732 l 1
 878 805 l 1
 878 878 l 1
 585 878 l 1
 293 878 l 1
 293 951 l 1x7a
878 439 m 1
 878 586 l 1x7a
 585 586 l 1
 293 586 l 1
 293 366 l 1
 293 147 l 1
 512 147 l 1
 732 147 l 1xbc
 732 220 l 1
 732 293 l 1x7c
 805 293 l 1
 878 293 l 1x7a
 878 439 l 1
EndSplineSet
EndChar

StartChar: b
Encoding: 98 98 66
Width: 1170
VWidth: 0
Flags: W
HStem: 1 146<293 878> 732 146<293 439> 878 147<439 878> 1444 20G<146 293>
VStem: 146 293<732 878> 146 147<147 732 878 1464> 878 146<147 878>
LayerCount: 2
Back
Fore
SplineSet
146 732 m 1xda
 146 1464 l 1
 219 1464 l 1
 293 1464 l 1
 293 1171 l 1
 293 878 l 1xd6
 366 878 l 1
 439 878 l 1xda
 439 951 l 1
 439 1025 l 1xba
 659 1025 l 1
 878 1025 l 1
 878 951 l 1
 878 878 l 1
 951 878 l 1
 1024 878 l 1
 1024 513 l 1
 1024 147 l 1
 951 147 l 1
 878 147 l 1
 878 74 l 1
 878 1 l 1
 512 1 l 1
 146 1 l 1xb6
 146 732 l 1xda
878 513 m 1
 878 878 l 1
 659 878 l 1xb6
 439 878 l 1
 439 805 l 1
 439 732 l 1xda
 366 732 l 1
 293 732 l 1
 293 440 l 1
 293 147 l 1
 585 147 l 1
 878 147 l 1
 878 513 l 1
EndSplineSet
EndChar

StartChar: c
Encoding: 99 99 67
Width: 1170
VWidth: 0
Flags: W
HStem: 1 146<293 878> 147 146<878 1024> 732 146<878 1024> 878 147<293 878>
VStem: 146 147<147 878> 878 146<147 293 732 878>
LayerCount: 2
Back
Fore
SplineSet
293 951 m 1x5c
 293 1025 l 1
 585 1025 l 1
 878 1025 l 1x5c
 878 951 l 1
 878 878 l 1
 951 878 l 1
 1024 878 l 1
 1024 805 l 1
 1024 732 l 1
 951 732 l 1
 878 732 l 1
 878 805 l 1
 878 878 l 1x2c
 585 878 l 1
 293 878 l 1
 293 513 l 1
 293 147 l 1
 585 147 l 1
 878 147 l 1x9c
 878 220 l 1
 878 293 l 1
 951 293 l 1
 1024 293 l 1
 1024 220 l 1
 1024 147 l 1
 951 147 l 1x4c
 878 147 l 1
 878 74 l 1
 878 1 l 1
 585 1 l 1
 293 1 l 1
 293 74 l 1
 293 147 l 1x8c
 219 147 l 1
 146 147 l 1
 146 513 l 1
 146 878 l 1
 219 878 l 1
 293 878 l 1
 293 951 l 1x5c
EndSplineSet
EndChar

StartChar: d
Encoding: 100 100 68
Width: 1170
VWidth: 0
Flags: W
HStem: 1 146<293 732> 147 146<732 878> 878 147<293 878> 1444 20G<878 1024>
VStem: 146 147<147 878> 732 292<147 293> 878 146<1 147 293 878 1025 1464>
LayerCount: 2
Back
Fore
SplineSet
878 1244 m 1x7a
 878 1464 l 1
 951 1464 l 1
 1024 1464 l 1
 1024 732 l 1
 1024 1 l 1
 951 1 l 1
 878 1 l 1xba
 878 74 l 1
 878 147 l 1
 805 147 l 1x7a
 732 147 l 1
 732 74 l 1
 732 1 l 1
 512 1 l 1
 293 1 l 1
 293 74 l 1
 293 147 l 1xbc
 219 147 l 1
 146 147 l 1
 146 513 l 1
 146 878 l 1
 219 878 l 1
 293 878 l 1
 293 951 l 1
 293 1025 l 1
 585 1025 l 1
 878 1025 l 1
 878 1244 l 1x7a
878 586 m 1
 878 878 l 1x7a
 585 878 l 1
 293 878 l 1
 293 513 l 1
 293 147 l 1
 512 147 l 1
 732 147 l 1xbc
 732 220 l 1
 732 293 l 1x7c
 805 293 l 1
 878 293 l 1x7a
 878 586 l 1
EndSplineSet
EndChar

StartChar: e
Encoding: 101 101 69
Width: 1170
VWidth: 0
Flags: W
HStem: 1 146<293 1024> 439 147<293 878> 878 147<293 878>
VStem: 146 147<147 439 586 878> 878 146<586 878>
LayerCount: 2
Back
Fore
SplineSet
293 951 m 1
 293 1025 l 1
 585 1025 l 1
 878 1025 l 1
 878 951 l 1
 878 878 l 1
 951 878 l 1
 1024 878 l 1
 1024 659 l 1
 1024 439 l 1
 658 439 l 1
 293 439 l 1
 293 293 l 1
 293 147 l 1
 658 147 l 1
 1024 147 l 1
 1024 74 l 1
 1024 1 l 1
 658 1 l 1
 293 1 l 1
 293 74 l 1
 293 147 l 1
 219 147 l 1
 146 147 l 1
 146 513 l 1
 146 878 l 1
 219 878 l 1
 293 878 l 1
 293 951 l 1
878 732 m 1
 878 878 l 1
 585 878 l 1
 293 878 l 1
 293 732 l 1
 293 586 l 1
 585 586 l 1
 878 586 l 1
 878 732 l 1
EndSplineSet
EndChar

StartChar: f
Encoding: 102 102 70
Width: 1170
VWidth: 0
Flags: W
HStem: 1 21G<293 439> 732 146<439 878> 1317 147<439 878>
VStem: 293 146<1 732 878 1317>
LayerCount: 2
Back
Fore
SplineSet
439 1391 m 1
 439 1464 l 1
 659 1464 l 1
 878 1464 l 1
 878 1391 l 1
 878 1317 l 1
 659 1317 l 1
 439 1317 l 1
 439 1098 l 1
 439 878 l 1
 659 878 l 1
 878 878 l 1
 878 805 l 1
 878 732 l 1
 659 732 l 1
 439 732 l 1
 439 366 l 1
 439 1 l 1
 366 1 l 1
 293 1 l 1
 293 659 l 1
 293 1317 l 1
 366 1317 l 1
 439 1317 l 1
 439 1391 l 1
EndSplineSet
EndChar

StartChar: g
Encoding: 103 103 71
Width: 1170
VWidth: 0
Flags: W
HStem: -438 146<293 878> 1 146<293 732> 147 146<732 878> 878 147<293 878>
VStem: 146 147<147 878> 732 292<147 293> 878 146<-292 147 293 878>
LayerCount: 2
Back
Fore
SplineSet
293 951 m 1xbc
 293 1025 l 1
 658 1025 l 1
 1024 1025 l 1
 1024 366 l 1
 1024 -292 l 1
 951 -292 l 1
 878 -292 l 1
 878 -365 l 1
 878 -438 l 1
 585 -438 l 1
 293 -438 l 1
 293 -365 l 1
 293 -292 l 1
 585 -292 l 1
 878 -292 l 1
 878 -72 l 1
 878 147 l 1
 805 147 l 1xba
 732 147 l 1
 732 74 l 1
 732 1 l 1
 512 1 l 1
 293 1 l 1
 293 74 l 1
 293 147 l 1xdc
 219 147 l 1
 146 147 l 1
 146 513 l 1
 146 878 l 1
 219 878 l 1
 293 878 l 1
 293 951 l 1xbc
878 586 m 1
 878 878 l 1xba
 585 878 l 1
 293 878 l 1
 293 513 l 1
 293 147 l 1
 512 147 l 1
 732 147 l 1xdc
 732 220 l 1
 732 293 l 1xbc
 805 293 l 1
 878 293 l 1
 878 586 l 1
EndSplineSet
EndChar

StartChar: h
Encoding: 104 104 72
Width: 1170
VWidth: 0
Flags: W
HStem: 1 21G<146 293 878 1024> 732 146<293 439> 878 147<439 878> 1444 20G<146 293>
VStem: 146 293<732 878> 146 147<1 732 878 1464> 878 146<1 878>
LayerCount: 2
Back
Fore
SplineSet
146 732 m 1xda
 146 1464 l 1
 219 1464 l 1
 293 1464 l 1
 293 1171 l 1
 293 878 l 1xd6
 366 878 l 1
 439 878 l 1xda
 439 951 l 1
 439 1025 l 1
 659 1025 l 1
 878 1025 l 1
 878 951 l 1
 878 878 l 1
 951 878 l 1
 1024 878 l 1
 1024 440 l 1
 1024 1 l 1
 951 1 l 1
 878 1 l 1
 878 440 l 1
 878 878 l 1
 659 878 l 1xba
 439 878 l 1
 439 805 l 1
 439 732 l 1xda
 366 732 l 1
 293 732 l 1
 293 366 l 1
 293 1 l 1
 219 1 l 1
 146 1 l 1xd6
 146 732 l 1xda
EndSplineSet
EndChar

StartChar: i
Encoding: 105 105 73
Width: 1170
VWidth: 0
Flags: W
HStem: 1 146<585 878> 878 147<146 439> 1171 293<439 585>
VStem: 439 146<147 878 1171 1464>
LayerCount: 2
Back
Fore
SplineSet
146 951 m 1
 146 1025 l 1
 366 1025 l 1
 585 1025 l 1
 585 586 l 1
 585 147 l 1
 732 147 l 1
 878 147 l 1
 878 74 l 1
 878 1 l 1
 659 1 l 1
 439 1 l 1
 439 440 l 1
 439 878 l 1
 293 878 l 1
 146 878 l 1
 146 951 l 1
439 1317 m 1
 439 1464 l 1
 512 1464 l 1
 585 1464 l 1
 585 1317 l 1
 585 1171 l 1
 512 1171 l 1
 439 1171 l 1
 439 1317 l 1
EndSplineSet
EndChar

StartChar: j
Encoding: 106 106 74
Width: 1170
VWidth: 0
Flags: W
HStem: -438 146<146 585> 878 147<439 585> 1171 293<585 732>
VStem: 439 293<878 1025> 585 147<-292 878 1171 1464>
LayerCount: 2
Back
Fore
SplineSet
439 951 m 1xf0
 439 1025 l 1xf0
 585 1025 l 1xe8
 732 1025 l 1xf0
 732 366 l 1
 732 -292 l 1
 659 -292 l 1
 585 -292 l 1
 585 -365 l 1
 585 -438 l 1
 366 -438 l 1
 146 -438 l 1
 146 -365 l 1
 146 -292 l 1
 366 -292 l 1
 585 -292 l 1
 585 293 l 1
 585 878 l 1xe8
 512 878 l 1
 439 878 l 1
 439 951 l 1xf0
585 1317 m 1xe8
 585 1464 l 1
 659 1464 l 1
 732 1464 l 1
 732 1317 l 1
 732 1171 l 1
 659 1171 l 1
 585 1171 l 1
 585 1317 l 1xe8
EndSplineSet
EndChar

StartChar: k
Encoding: 107 107 75
Width: 1170
VWidth: 0
Flags: W
HStem: 1 146<878 1024> 147 146<732 878> 293 146<585 732> 439 147<293 585> 586 146<585 732> 732 146<732 878> 1444 20G<146 293>
VStem: 146 147<1 439 586 1464> 585 147<293 439 586 732> 732 146<147 293 732 878> 878 146<1 147>
LayerCount: 2
Back
Fore
SplineSet
146 732 m 1x9780
 146 1464 l 1
 219 1464 l 1
 293 1464 l 1
 293 1025 l 1
 293 586 l 1
 439 586 l 1
 585 586 l 1x9780
 585 659 l 1
 585 732 l 1
 659 732 l 1
 732 732 l 1x0b80
 732 805 l 1
 732 878 l 1
 805 878 l 1
 878 878 l 1
 878 805 l 1
 878 732 l 1
 805 732 l 1x0740
 732 732 l 1
 732 659 l 1
 732 586 l 1
 659 586 l 1x0b80
 585 586 l 1x1380
 585 513 l 1
 585 439 l 1
 659 439 l 1
 732 439 l 1x2380
 732 366 l 1
 732 293 l 1x4380
 805 293 l 1
 878 293 l 1x4340
 878 220 l 1
 878 147 l 1x8340
 951 147 l 1
 1024 147 l 1
 1024 74 l 1
 1024 1 l 1
 951 1 l 1
 878 1 l 1
 878 74 l 1x8320
 878 147 l 1x8340
 805 147 l 1
 732 147 l 1
 732 220 l 1x4340
 732 293 l 1x4380
 659 293 l 1
 585 293 l 1
 585 366 l 1
 585 439 l 1x2380
 439 439 l 1
 293 439 l 1
 293 220 l 1
 293 1 l 1
 219 1 l 1
 146 1 l 1
 146 732 l 1x9780
EndSplineSet
EndChar

StartChar: l
Encoding: 108 108 76
Width: 1170
VWidth: 0
Flags: W
HStem: 1 146<585 1024> 1317 147<293 439>
VStem: 293 292<1317 1464> 439 146<147 1317>
LayerCount: 2
Back
Fore
SplineSet
293 1391 m 1xe0
 293 1464 l 1xe0
 439 1464 l 1xd0
 585 1464 l 1xe0
 585 805 l 1
 585 147 l 1
 805 147 l 1
 1024 147 l 1
 1024 74 l 1
 1024 1 l 1
 805 1 l 1
 585 1 l 1
 585 74 l 1
 585 147 l 1
 512 147 l 1
 439 147 l 1
 439 732 l 1
 439 1317 l 1xd0
 366 1317 l 1
 293 1317 l 1
 293 1391 l 1xe0
EndSplineSet
EndChar

StartChar: m
Encoding: 109 109 77
Width: 1170
VWidth: 0
Flags: W
HStem: 1 21G<0 146 439 585 878 1024> 878 147<146 439 585 878>
VStem: 0 146<1 878> 439 146<1 878> 878 146<1 878>
CounterMasks: 1 38
LayerCount: 2
Back
Fore
SplineSet
0 513 m 1
 0 1025 l 1
 439 1025 l 1
 878 1025 l 1
 878 951 l 1
 878 878 l 1
 951 878 l 1
 1024 878 l 1
 1024 440 l 1
 1024 1 l 1
 951 1 l 1
 878 1 l 1
 878 440 l 1
 878 878 l 1
 732 878 l 1
 585 878 l 1
 585 440 l 1
 585 1 l 1
 512 1 l 1
 439 1 l 1
 439 440 l 1
 439 878 l 1
 293 878 l 1
 146 878 l 1
 146 440 l 1
 146 1 l 1
 73 1 l 1
 0 1 l 1
 0 513 l 1
EndSplineSet
EndChar

StartChar: n
Encoding: 110 110 78
Width: 1170
VWidth: 0
Flags: W
HStem: 1 21G<146 293 878 1024> 878 147<293 878>
VStem: 146 147<1 878> 878 146<1 878>
LayerCount: 2
Back
Fore
SplineSet
146 513 m 1
 146 1025 l 1
 512 1025 l 1
 878 1025 l 1
 878 951 l 1
 878 878 l 1
 951 878 l 1
 1024 878 l 1
 1024 440 l 1
 1024 1 l 1
 951 1 l 1
 878 1 l 1
 878 440 l 1
 878 878 l 1
 585 878 l 1
 293 878 l 1
 293 440 l 1
 293 1 l 1
 219 1 l 1
 146 1 l 1
 146 513 l 1
EndSplineSet
EndChar

StartChar: o
Encoding: 111 111 79
Width: 1170
VWidth: 0
Flags: W
HStem: 1 146<293 878> 878 147<293 878>
VStem: 146 147<147 878> 878 146<147 878>
LayerCount: 2
Back
Fore
SplineSet
293 951 m 1
 293 1025 l 1
 585 1025 l 1
 878 1025 l 1
 878 951 l 1
 878 878 l 1
 951 878 l 1
 1024 878 l 1
 1024 513 l 1
 1024 147 l 1
 951 147 l 1
 878 147 l 1
 878 74 l 1
 878 1 l 1
 585 1 l 1
 293 1 l 1
 293 74 l 1
 293 147 l 1
 219 147 l 1
 146 147 l 1
 146 513 l 1
 146 878 l 1
 219 878 l 1
 293 878 l 1
 293 951 l 1
878 513 m 1
 878 878 l 1
 585 878 l 1
 293 878 l 1
 293 513 l 1
 293 147 l 1
 585 147 l 1
 878 147 l 1
 878 513 l 1
EndSplineSet
EndChar

StartChar: p
Encoding: 112 112 80
Width: 1170
VWidth: 0
Flags: W
HStem: -438 21G<146 293> 1 146<293 878> 732 146<293 439> 878 147<439 878>
VStem: 146 293<732 878> 146 147<-438 1 147 732 878 1025> 878 146<147 878>
LayerCount: 2
Back
Fore
SplineSet
146 293 m 1xd6
 146 1025 l 1
 219 1025 l 1
 293 1025 l 1xd6
 293 951 l 1
 293 878 l 1xe6
 366 878 l 1
 439 878 l 1xea
 439 951 l 1
 439 1025 l 1xda
 659 1025 l 1
 878 1025 l 1
 878 951 l 1
 878 878 l 1
 951 878 l 1
 1024 878 l 1
 1024 513 l 1
 1024 147 l 1
 951 147 l 1
 878 147 l 1
 878 74 l 1
 878 1 l 1
 585 1 l 1
 293 1 l 1
 293 -219 l 1
 293 -438 l 1
 219 -438 l 1
 146 -438 l 1
 146 293 l 1xd6
878 513 m 1
 878 878 l 1
 659 878 l 1xd6
 439 878 l 1
 439 805 l 1
 439 732 l 1xea
 366 732 l 1
 293 732 l 1xe6
 293 440 l 1
 293 147 l 1
 585 147 l 1
 878 147 l 1
 878 513 l 1
EndSplineSet
EndChar

StartChar: q
Encoding: 113 113 81
Width: 1170
VWidth: 0
Flags: W
HStem: -438 21G<878 1024> 1 146<293 732> 147 146<732 878> 878 147<293 878>
VStem: 146 147<147 878> 732 292<147 293> 878 146<-438 147 293 878>
LayerCount: 2
Back
Fore
SplineSet
293 951 m 1xbc
 293 1025 l 1
 658 1025 l 1
 1024 1025 l 1xba
 1024 293 l 1xbc
 1024 -438 l 1
 951 -438 l 1
 878 -438 l 1
 878 -145 l 1
 878 147 l 1
 805 147 l 1xba
 732 147 l 1
 732 74 l 1
 732 1 l 1
 512 1 l 1
 293 1 l 1
 293 74 l 1
 293 147 l 1xdc
 219 147 l 1
 146 147 l 1
 146 513 l 1
 146 878 l 1
 219 878 l 1
 293 878 l 1
 293 951 l 1xbc
878 586 m 1
 878 878 l 1xba
 585 878 l 1
 293 878 l 1
 293 513 l 1
 293 147 l 1
 512 147 l 1
 732 147 l 1xdc
 732 220 l 1
 732 293 l 1xbc
 805 293 l 1
 878 293 l 1
 878 586 l 1
EndSplineSet
EndChar

StartChar: r
Encoding: 114 114 82
Width: 1170
VWidth: 0
Flags: W
HStem: 1 21G<146 293> 732 146<293 439 878 1024> 878 147<439 878>
VStem: 146 293<732 878> 146 147<1 732 878 1025> 878 146<732 878>
LayerCount: 2
Back
Fore
SplineSet
146 513 m 1xcc
 146 1025 l 1
 219 1025 l 1
 293 1025 l 1xac
 293 951 l 1
 293 878 l 1xcc
 366 878 l 1
 439 878 l 1xd4
 439 951 l 1
 439 1025 l 1
 659 1025 l 1
 878 1025 l 1xb4
 878 951 l 1
 878 878 l 1
 951 878 l 1
 1024 878 l 1
 1024 805 l 1
 1024 732 l 1
 951 732 l 1
 878 732 l 1
 878 805 l 1
 878 878 l 1xd4
 659 878 l 1xb4
 439 878 l 1
 439 805 l 1
 439 732 l 1xd4
 366 732 l 1
 293 732 l 1
 293 366 l 1
 293 1 l 1
 219 1 l 1
 146 1 l 1
 146 513 l 1xcc
EndSplineSet
EndChar

StartChar: s
Encoding: 115 115 83
Width: 1170
VWidth: 0
Flags: W
HStem: 1 146<146 878> 147 292<878 1024> 439 147<293 878> 586 292<146 293> 878 147<293 878>
VStem: 146 147<586 878> 878 146<147 439>
LayerCount: 2
Back
Fore
SplineSet
293 951 m 1x16
 293 1025 l 1
 585 1025 l 1
 878 1025 l 1
 878 951 l 1
 878 878 l 1
 585 878 l 1x0e
 293 878 l 1x16
 293 732 l 1
 293 586 l 1
 585 586 l 1
 878 586 l 1x26
 878 513 l 1
 878 439 l 1
 951 439 l 1
 1024 439 l 1
 1024 293 l 1
 1024 147 l 1
 951 147 l 1x46
 878 147 l 1
 878 74 l 1
 878 1 l 1
 512 1 l 1
 146 1 l 1
 146 74 l 1
 146 147 l 1
 512 147 l 1
 878 147 l 1x86
 878 293 l 1
 878 439 l 1x46
 585 439 l 1
 293 439 l 1
 293 513 l 1
 293 586 l 1x26
 219 586 l 1
 146 586 l 1
 146 732 l 1
 146 878 l 1
 219 878 l 1
 293 878 l 1
 293 951 l 1x16
EndSplineSet
EndChar

StartChar: t
Encoding: 116 116 84
Width: 1170
VWidth: 0
Flags: W
HStem: 1 146<585 878> 878 147<293 439 585 878> 1444 20G<439 585>
VStem: 439 146<147 878 1025 1464> 585 293<1 147>
LayerCount: 2
Back
Fore
SplineSet
439 1244 m 1xf0
 439 1464 l 1
 512 1464 l 1
 585 1464 l 1
 585 1244 l 1
 585 1025 l 1xf0
 732 1025 l 1
 878 1025 l 1
 878 951 l 1
 878 878 l 1xe8
 732 878 l 1
 585 878 l 1
 585 513 l 1
 585 147 l 1xf0
 732 147 l 1
 878 147 l 1
 878 74 l 1
 878 1 l 1
 732 1 l 1
 585 1 l 1
 585 74 l 1xe8
 585 147 l 1
 512 147 l 1
 439 147 l 1
 439 513 l 1
 439 878 l 1
 366 878 l 1
 293 878 l 1
 293 951 l 1
 293 1025 l 1
 366 1025 l 1
 439 1025 l 1
 439 1244 l 1xf0
EndSplineSet
EndChar

StartChar: u
Encoding: 117 117 85
Width: 1170
VWidth: 0
Flags: W
HStem: 1 146<293 732> 147 146<732 878> 1005 20G<146 293 878 1024>
VStem: 146 147<147 1025> 732 292<147 293> 878 146<1 147 293 1025>
LayerCount: 2
Back
Fore
SplineSet
146 586 m 1x78
 146 1025 l 1
 219 1025 l 1
 293 1025 l 1
 293 586 l 1
 293 147 l 1
 512 147 l 1
 732 147 l 1xb8
 732 220 l 1
 732 293 l 1x78
 805 293 l 1
 878 293 l 1x74
 878 659 l 1
 878 1025 l 1
 951 1025 l 1
 1024 1025 l 1
 1024 513 l 1
 1024 1 l 1
 951 1 l 1
 878 1 l 1xb4
 878 74 l 1
 878 147 l 1
 805 147 l 1x74
 732 147 l 1
 732 74 l 1
 732 1 l 1
 512 1 l 1
 293 1 l 1
 293 74 l 1
 293 147 l 1xb8
 219 147 l 1
 146 147 l 1
 146 586 l 1x78
EndSplineSet
EndChar

StartChar: v
Encoding: 118 118 86
Width: 1170
VWidth: 0
Flags: W
HStem: 1 292<439 732> 293 293<293 439 732 878> 586 439<146 293 878 1024>
VStem: 146 147<586 1025> 293 146<293 586> 439 293<1 293> 732 146<293 586> 878 146<586 1025>
LayerCount: 2
Back
Fore
SplineSet
146 805 m 1x30
 146 1025 l 1
 219 1025 l 1
 293 1025 l 1x30
 293 805 l 1
 293 586 l 1x50
 366 586 l 1
 439 586 l 1x48
 439 439 l 1
 439 293 l 1x88
 585 293 l 1
 732 293 l 1x84
 732 439 l 1
 732 586 l 1
 805 586 l 1
 878 586 l 1x42
 878 805 l 1
 878 1025 l 1
 951 1025 l 1
 1024 1025 l 1
 1024 805 l 1
 1024 586 l 1
 951 586 l 1x21
 878 586 l 1
 878 439 l 1
 878 293 l 1
 805 293 l 1x42
 732 293 l 1
 732 147 l 1
 732 1 l 1
 585 1 l 1
 439 1 l 1
 439 147 l 1x84
 439 293 l 1x88
 366 293 l 1
 293 293 l 1
 293 439 l 1x48
 293 586 l 1x50
 219 586 l 1
 146 586 l 1
 146 805 l 1x30
EndSplineSet
EndChar

StartChar: w
Encoding: 119 119 87
Width: 1170
VWidth: 0
Flags: W
HStem: 1 292<146 293 732 878> 293 146<293 439 585 732> 439 293<439 585> 1005 20G<0 146 878 1024>
VStem: 0 146<293 1025> 146 147<1 293> 293 146<293 439> 439 146<439 732> 585 147<293 439> 732 146<1 293> 878 146<293 1025>
LayerCount: 2
Back
Fore
SplineSet
0 659 m 1x58
 0 1025 l 1
 73 1025 l 1
 146 1025 l 1
 146 659 l 1
 146 293 l 1x98
 219 293 l 1
 293 293 l 1x94
 293 366 l 1
 293 439 l 1
 366 439 l 1
 439 439 l 1x52
 439 586 l 1
 439 732 l 1
 512 732 l 1
 585 732 l 1x31
 585 586 l 1
 585 439 l 1x51
 659 439 l 1
 732 439 l 1x5080
 732 366 l 1
 732 293 l 1x9080
 805 293 l 1
 878 293 l 1x9040
 878 659 l 1
 878 1025 l 1
 951 1025 l 1
 1024 1025 l 1
 1024 659 l 1
 1024 293 l 1
 951 293 l 1x5020
 878 293 l 1
 878 147 l 1
 878 1 l 1
 805 1 l 1
 732 1 l 1
 732 147 l 1x9040
 732 293 l 1x9080
 659 293 l 1
 585 293 l 1
 585 366 l 1x5080
 585 439 l 1x51
 512 439 l 1x31
 439 439 l 1
 439 366 l 1
 439 293 l 1
 366 293 l 1x52
 293 293 l 1
 293 147 l 1
 293 1 l 1
 219 1 l 1
 146 1 l 1
 146 147 l 1x94
 146 293 l 1x98
 73 293 l 1
 0 293 l 1
 0 659 l 1x58
EndSplineSet
EndChar

StartChar: x
Encoding: 120 120 88
Width: 1170
VWidth: 0
Flags: W
HStem: 1 292<146 293 878 1024> 293 146<293 439 732 878> 439 147<439 732> 586 146<293 439 732 878> 732 293<146 293 878 1024>
VStem: 146 147<1 293 732 1025> 293 146<293 439 586 732> 439 293<439 586> 732 146<293 439 586 732> 878 146<1 293 732 1025>
LayerCount: 2
Back
Fore
SplineSet
146 878 m 1x0c
 146 1025 l 1
 219 1025 l 1
 293 1025 l 1x0c
 293 878 l 1
 293 732 l 1x14
 366 732 l 1
 439 732 l 1x12
 439 659 l 1
 439 586 l 1x22
 585 586 l 1
 732 586 l 1x21
 732 659 l 1
 732 732 l 1
 805 732 l 1
 878 732 l 1x1080
 878 878 l 1
 878 1025 l 1
 951 1025 l 1
 1024 1025 l 1
 1024 878 l 1
 1024 732 l 1
 951 732 l 1x0840
 878 732 l 1
 878 659 l 1
 878 586 l 1
 805 586 l 1x1080
 732 586 l 1x21
 732 513 l 1
 732 439 l 1x41
 805 439 l 1
 878 439 l 1x4080
 878 366 l 1
 878 293 l 1x8080
 951 293 l 1
 1024 293 l 1
 1024 147 l 1
 1024 1 l 1
 951 1 l 1
 878 1 l 1
 878 147 l 1x8040
 878 293 l 1x8080
 805 293 l 1
 732 293 l 1
 732 366 l 1x4080
 732 439 l 1x41
 585 439 l 1x21
 439 439 l 1
 439 366 l 1
 439 293 l 1
 366 293 l 1x42
 293 293 l 1
 293 147 l 1
 293 1 l 1
 219 1 l 1
 146 1 l 1
 146 147 l 1
 146 293 l 1
 219 293 l 1
 293 293 l 1x84
 293 366 l 1
 293 439 l 1
 366 439 l 1
 439 439 l 1x42
 439 513 l 1x41
 439 586 l 1x22
 366 586 l 1
 293 586 l 1
 293 659 l 1x12
 293 732 l 1x14
 219 732 l 1
 146 732 l 1
 146 878 l 1x0c
EndSplineSet
EndChar

StartChar: y
Encoding: 121 121 89
Width: 1170
VWidth: 0
Flags: W
HStem: -438 146<293 878> 1 146<293 732> 147 146<732 878> 1005 20G<146 293 878 1024>
VStem: 146 147<147 1025> 732 292<147 293> 878 146<-292 147 293 1025>
LayerCount: 2
Back
Fore
SplineSet
146 586 m 1xbc
 146 1025 l 1
 219 1025 l 1
 293 1025 l 1
 293 586 l 1
 293 147 l 1
 512 147 l 1
 732 147 l 1xdc
 732 220 l 1
 732 293 l 1xbc
 805 293 l 1
 878 293 l 1
 878 659 l 1
 878 1025 l 1
 951 1025 l 1
 1024 1025 l 1
 1024 366 l 1
 1024 -292 l 1
 951 -292 l 1
 878 -292 l 1
 878 -365 l 1
 878 -438 l 1
 585 -438 l 1
 293 -438 l 1
 293 -365 l 1
 293 -292 l 1
 585 -292 l 1
 878 -292 l 1
 878 -72 l 1
 878 147 l 1
 805 147 l 1xba
 732 147 l 1
 732 74 l 1
 732 1 l 1
 512 1 l 1
 293 1 l 1
 293 74 l 1
 293 147 l 1xdc
 219 147 l 1
 146 147 l 1
 146 586 l 1xbc
EndSplineSet
EndChar

StartChar: z
Encoding: 122 122 90
Width: 1170
VWidth: 0
Flags: W
HStem: 1 292<146 293> 1 146<293 1024> 293 146<293 439> 439 147<439 585> 586 146<585 732> 732 293<732 878> 878 147<146 732 878 1024>
VStem: 146 147<147 293> 293 146<293 439> 439 146<439 586> 585 147<586 732> 732 146<732 878>
LayerCount: 2
Back
Fore
SplineSet
146 951 m 1x0b50
 146 1025 l 1
 585 1025 l 1x0b20
 1024 1025 l 1
 1024 951 l 1
 1024 878 l 1
 951 878 l 1
 878 878 l 1x0a10
 878 805 l 1
 878 732 l 1
 805 732 l 1x0410
 732 732 l 1
 732 659 l 1
 732 586 l 1
 659 586 l 1x0820
 585 586 l 1
 585 513 l 1
 585 439 l 1
 512 439 l 1x1040
 439 439 l 1
 439 366 l 1
 439 293 l 1
 366 293 l 1x2080
 293 293 l 1x81
 293 220 l 1
 293 147 l 1
 658 147 l 1
 1024 147 l 1
 1024 74 l 1
 1024 1 l 1
 585 1 l 1x4120
 146 1 l 1x8120
 146 147 l 1x4120
 146 293 l 1
 219 293 l 1
 293 293 l 1x8120
 293 366 l 1
 293 439 l 1
 366 439 l 1
 439 439 l 1x2080
 439 513 l 1
 439 586 l 1
 512 586 l 1
 585 586 l 1x1040
 585 659 l 1
 585 732 l 1
 659 732 l 1
 732 732 l 1x0820
 732 805 l 1
 732 878 l 1
 439 878 l 1
 146 878 l 1
 146 951 l 1x0b50
EndSplineSet
EndChar

StartChar: braceleft
Encoding: 123 123 91
Width: 1170
VWidth: 0
Flags: W
HStem: -292 147<585 1024> 439 147<0 439> 1317 147<585 1024>
VStem: 439 146<-145 439 586 1317> 585 439<-292 -145 1317 1464>
LayerCount: 2
Back
Fore
SplineSet
585 1391 m 1xe8
 585 1464 l 1
 805 1464 l 1
 1024 1464 l 1
 1024 1391 l 1
 1024 1317 l 1xe8
 805 1317 l 1
 585 1317 l 1
 585 952 l 1
 585 586 l 1
 512 586 l 1
 439 586 l 1
 439 513 l 1
 439 439 l 1
 512 439 l 1
 585 439 l 1
 585 147 l 1
 585 -145 l 1xf0
 805 -145 l 1
 1024 -145 l 1
 1024 -219 l 1
 1024 -292 l 1
 805 -292 l 1
 585 -292 l 1
 585 -219 l 1xe8
 585 -145 l 1
 512 -145 l 1
 439 -145 l 1
 439 147 l 1
 439 439 l 1
 220 439 l 1
 0 439 l 1
 0 513 l 1
 0 586 l 1
 220 586 l 1
 439 586 l 1
 439 952 l 1
 439 1317 l 1
 512 1317 l 1
 585 1317 l 1xf0
 585 1391 l 1xe8
EndSplineSet
EndChar

StartChar: bar
Encoding: 124 124 92
Width: 1170
VWidth: 0
Flags: W
HStem: 1444 20G<439 585>
VStem: 439 146<-292 1464>
LayerCount: 2
Back
Fore
SplineSet
439 586 m 1
 439 1464 l 1
 512 1464 l 1
 585 1464 l 1
 585 586 l 1
 585 -292 l 1
 512 -292 l 1
 439 -292 l 1
 439 586 l 1
EndSplineSet
EndChar

StartChar: braceright
Encoding: 125 125 93
Width: 1170
VWidth: 0
Flags: W
HStem: -292 147<146 585> 439 147<732 1170> 1317 147<146 585>
VStem: 146 439<-292 -145 1317 1464> 585 147<-145 439 586 1317>
LayerCount: 2
Back
Fore
SplineSet
146 1391 m 1xf0
 146 1464 l 1
 366 1464 l 1
 585 1464 l 1
 585 1391 l 1
 585 1317 l 1xf0
 659 1317 l 1
 732 1317 l 1
 732 952 l 1
 732 586 l 1
 951 586 l 1
 1170 586 l 1
 1170 513 l 1
 1170 439 l 1
 951 439 l 1
 732 439 l 1
 732 147 l 1
 732 -145 l 1xe8
 659 -145 l 1
 585 -145 l 1
 585 -219 l 1
 585 -292 l 1
 366 -292 l 1
 146 -292 l 1
 146 -219 l 1
 146 -145 l 1
 366 -145 l 1
 585 -145 l 1xf0
 585 147 l 1
 585 439 l 1
 659 439 l 1
 732 439 l 1
 732 513 l 1
 732 586 l 1
 659 586 l 1
 585 586 l 1
 585 952 l 1xe8
 585 1317 l 1
 366 1317 l 1
 146 1317 l 1
 146 1391 l 1xf0
EndSplineSet
EndChar

StartChar: asciitilde
Encoding: 126 126 94
Width: 1170
VWidth: 0
Flags: W
HStem: 439 147<585 878> 586 146<439 585> 732 146<146 439>
VStem: 0 146<439 732> 146 293<732 878> 439 146<586 732> 585 293<439 586> 878 146<586 878>
LayerCount: 2
Back
Fore
SplineSet
146 805 m 1x28
 146 878 l 1
 293 878 l 1
 439 878 l 1x28
 439 805 l 1
 439 732 l 1x48
 512 732 l 1
 585 732 l 1x44
 585 659 l 1
 585 586 l 1x84
 732 586 l 1
 878 586 l 1x82
 878 732 l 1
 878 878 l 1
 951 878 l 1
 1024 878 l 1
 1024 732 l 1xa1
 1024 586 l 1
 951 586 l 1x41
 878 586 l 1
 878 513 l 1
 878 439 l 1
 732 439 l 1
 585 439 l 1
 585 513 l 1x82
 585 586 l 1x84
 512 586 l 1
 439 586 l 1
 439 659 l 1x44
 439 732 l 1x48
 293 732 l 1
 146 732 l 1x30
 146 586 l 1x50
 146 439 l 1
 73 439 l 1
 0 439 l 1x90
 0 586 l 1x50
 0 732 l 1
 73 732 l 1
 146 732 l 1x30
 146 805 l 1x28
EndSplineSet
EndChar

StartChar: exclamdown
Encoding: 161 161 96
Width: 1170
VWidth: 0
Flags: W
HStem: 1 21G<439 585> 1005 20G<439 585> 1171 293<439 585>
VStem: 439 146<1 1025 1171 1464>
LayerCount: 2
Back
Fore
SplineSet
439 513 m 1
 439 1025 l 1
 512 1025 l 1
 585 1025 l 1
 585 513 l 1
 585 1 l 1
 512 1 l 1
 439 1 l 1
 439 513 l 1
439 1317 m 1
 439 1464 l 1
 512 1464 l 1
 585 1464 l 1
 585 1317 l 1
 585 1171 l 1
 512 1171 l 1
 439 1171 l 1
 439 1317 l 1
EndSplineSet
EndChar

StartChar: cent
Encoding: 162 162 97
Width: 1170
VWidth: 0
Flags: W
HStem: 1 146<146 439 585 878> 147 146<878 1024> 732 146<878 1024> 878 147<146 439 585 878> 1297 20G<439 585>
VStem: 0 146<147 878> 439 146<-292 1 147 878 1025 1317> 878 146<147 293 732 878>
CounterMasks: 1 07
LayerCount: 2
Back
Fore
SplineSet
439 1171 m 1x5f
 439 1317 l 1
 512 1317 l 1
 585 1317 l 1
 585 1171 l 1
 585 1025 l 1
 732 1025 l 1
 878 1025 l 1x5f
 878 951 l 1
 878 878 l 1
 951 878 l 1
 1024 878 l 1
 1024 805 l 1
 1024 732 l 1
 951 732 l 1
 878 732 l 1
 878 805 l 1
 878 878 l 1x2f
 732 878 l 1
 585 878 l 1
 585 513 l 1
 585 147 l 1
 732 147 l 1
 878 147 l 1x9f
 878 220 l 1
 878 293 l 1
 951 293 l 1
 1024 293 l 1
 1024 220 l 1
 1024 147 l 1
 951 147 l 1x4f
 878 147 l 1
 878 74 l 1
 878 1 l 1
 732 1 l 1
 585 1 l 1
 585 -145 l 1
 585 -292 l 1
 512 -292 l 1
 439 -292 l 1
 439 -145 l 1
 439 1 l 1
 293 1 l 1
 146 1 l 1
 146 74 l 1
 146 147 l 1x8f
 73 147 l 1
 0 147 l 1
 0 513 l 1
 0 878 l 1
 73 878 l 1
 146 878 l 1
 146 951 l 1
 146 1025 l 1
 293 1025 l 1
 439 1025 l 1
 439 1171 l 1x5f
439 513 m 1
 439 878 l 1
 293 878 l 1
 146 878 l 1
 146 513 l 1
 146 147 l 1
 293 147 l 1
 439 147 l 1x9f
 439 513 l 1
EndSplineSet
EndChar

StartChar: sterling
Encoding: 163 163 98
Width: 1170
VWidth: 0
Flags: W
HStem: 1 146<146 293 439 878> 147 146<878 1024> 732 146<146 293 439 732> 1171 146<732 878> 1317 147<439 732>
VStem: 146 147<1 147> 293 146<147 732 878 1317> 439 293<1317 1464> 732 146<1171 1317> 878 146<147 293>
LayerCount: 2
Back
Fore
SplineSet
439 1391 m 1xa9
 439 1464 l 1
 585 1464 l 1
 732 1464 l 1xa9
 732 1391 l 1
 732 1317 l 1x31
 805 1317 l 1
 878 1317 l 1
 878 1244 l 1
 878 1171 l 1
 805 1171 l 1
 732 1171 l 1
 732 1244 l 1x3080
 732 1317 l 1x31
 585 1317 l 1
 439 1317 l 1
 439 1098 l 1
 439 878 l 1
 585 878 l 1
 732 878 l 1
 732 805 l 1
 732 732 l 1x2a80
 585 732 l 1
 439 732 l 1
 439 440 l 1
 439 147 l 1
 659 147 l 1
 878 147 l 1xaa40
 878 220 l 1
 878 293 l 1
 951 293 l 1
 1024 293 l 1
 1024 220 l 1
 1024 147 l 1
 951 147 l 1x6240
 878 147 l 1
 878 74 l 1
 878 1 l 1
 659 1 l 1
 439 1 l 1
 439 74 l 1xa140
 439 147 l 1xa2
 366 147 l 1x62
 293 147 l 1
 293 74 l 1
 293 1 l 1
 219 1 l 1
 146 1 l 1
 146 74 l 1
 146 147 l 1
 219 147 l 1
 293 147 l 1xa4
 293 440 l 1
 293 732 l 1xa2
 219 732 l 1
 146 732 l 1
 146 805 l 1
 146 878 l 1xa4
 219 878 l 1
 293 878 l 1
 293 1098 l 1
 293 1317 l 1
 366 1317 l 1
 439 1317 l 1xaa
 439 1391 l 1xa9
EndSplineSet
EndChar

StartChar: currency
Encoding: 164 164 99
Width: 1170
VWidth: 0
Flags: W
HStem: 1 146<0 146 878 1024> 147 146<293 732> 732 146<293 732> 878 147<0 146 878 1024>
VStem: 0 146<1 147 878 1025> 146 147<293 732> 732 146<293 732> 878 146<1 147 878 1025>
LayerCount: 2
Back
Fore
SplineSet
0 951 m 1x98
 0 1025 l 1
 73 1025 l 1
 146 1025 l 1
 146 951 l 1
 146 878 l 1x98
 512 878 l 1x28
 878 878 l 1
 878 951 l 1
 878 1025 l 1
 951 1025 l 1
 1024 1025 l 1
 1024 951 l 1
 1024 878 l 1
 951 878 l 1
 878 878 l 1x19
 878 513 l 1x12
 878 147 l 1
 951 147 l 1
 1024 147 l 1
 1024 74 l 1
 1024 1 l 1
 951 1 l 1
 878 1 l 1
 878 74 l 1
 878 147 l 1x91
 512 147 l 1x41
 146 147 l 1
 146 74 l 1
 146 1 l 1
 73 1 l 1
 0 1 l 1
 0 74 l 1
 0 147 l 1
 73 147 l 1
 146 147 l 1x89
 146 513 l 1x84
 146 878 l 1
 73 878 l 1
 0 878 l 1
 0 951 l 1x98
732 513 m 1x66
 732 732 l 1
 512 732 l 1
 293 732 l 1
 293 513 l 1
 293 293 l 1
 512 293 l 1
 732 293 l 1
 732 513 l 1x66
EndSplineSet
EndChar

StartChar: yen
Encoding: 165 165 100
Width: 1170
VWidth: 0
Flags: W
HStem: 1 21G<439 585> 293 146<146 439 585 878> 586 146<146 439 585 878> 878 147<293 439 585 732> 1025 146<146 293 732 878> 1171 293<0 146 878 1024>
VStem: 0 146<1171 1464> 146 147<1025 1171> 293 146<878 1025> 439 146<1 293 439 586 732 878> 585 147<878 1025> 732 146<1025 1171> 878 146<1171 1464>
LayerCount: 2
Back
Fore
SplineSet
0 1317 m 1xe6
 0 1464 l 1
 73 1464 l 1
 146 1464 l 1xe6
 146 1317 l 1
 146 1171 l 1xea
 219 1171 l 1
 293 1171 l 1xe9
 293 1098 l 1
 293 1025 l 1xf1
 366 1025 l 1
 439 1025 l 1
 439 951 l 1
 439 878 l 1xf080
 512 878 l 1
 585 878 l 1xf040
 585 951 l 1
 585 1025 l 1
 659 1025 l 1
 732 1025 l 1xf020
 732 1098 l 1
 732 1171 l 1
 805 1171 l 1
 878 1171 l 1xe810
 878 1317 l 1
 878 1464 l 1
 951 1464 l 1
 1024 1464 l 1
 1024 1317 l 1
 1024 1171 l 1
 951 1171 l 1xe408
 878 1171 l 1
 878 1098 l 1
 878 1025 l 1
 805 1025 l 1xe810
 732 1025 l 1
 732 951 l 1
 732 878 l 1xf020
 659 878 l 1
 585 878 l 1
 585 805 l 1
 585 732 l 1
 732 732 l 1xf050
 878 732 l 1
 878 659 l 1
 878 586 l 1xf008
 732 586 l 1
 585 586 l 1
 585 513 l 1
 585 439 l 1
 732 439 l 1xf050
 878 439 l 1
 878 366 l 1
 878 293 l 1xf008
 732 293 l 1
 585 293 l 1
 585 147 l 1
 585 1 l 1
 512 1 l 1
 439 1 l 1
 439 147 l 1
 439 293 l 1xf050
 293 293 l 1xf080
 146 293 l 1
 146 366 l 1
 146 439 l 1xf1
 293 439 l 1xf080
 439 439 l 1
 439 513 l 1
 439 586 l 1xf040
 293 586 l 1xf080
 146 586 l 1
 146 659 l 1
 146 732 l 1xf1
 293 732 l 1xf080
 439 732 l 1
 439 805 l 1xf040
 439 878 l 1
 366 878 l 1
 293 878 l 1
 293 951 l 1xf080
 293 1025 l 1xf1
 219 1025 l 1
 146 1025 l 1
 146 1098 l 1xe9
 146 1171 l 1xea
 73 1171 l 1
 0 1171 l 1
 0 1317 l 1xe6
EndSplineSet
EndChar

StartChar: brokenbar
Encoding: 166 166 101
Width: 1170
VWidth: 0
Flags: W
HStem: 1444 20G<439 585>
VStem: 439 146<-292 439 732 1464>
LayerCount: 2
Back
Fore
SplineSet
439 74 m 1
 439 439 l 1
 512 439 l 1
 585 439 l 1
 585 74 l 1
 585 -292 l 1
 512 -292 l 1
 439 -292 l 1
 439 74 l 1
439 1098 m 1
 439 1464 l 1
 512 1464 l 1
 585 1464 l 1
 585 1098 l 1
 585 732 l 1
 512 732 l 1
 439 732 l 1
 439 1098 l 1
EndSplineSet
EndChar

StartChar: section
Encoding: 167 167 102
Width: 1170
VWidth: 0
Flags: W
HStem: -292 147<293 732> -145 292<732 878> -145 146<146 293> 147 146<439 732> 293 146<293 439> 732 146<585 732> 878 147<293 585> 1025 292<146 293> 1171 146<732 878> 1317 147<293 732>
VStem: 146 147<-145 1 439 878 1025 1317> 293 292<878 1025> 293 146<293 439> 439 293<147 293> 585 147<732 878> 732 146<-145 147 293 732 1171 1317>
LayerCount: 2
Back
Fore
SplineSet
293 1391 m 1x0108
 293 1464 l 1
 512 1464 l 1
 732 1464 l 1x0049
 732 1391 l 1
 732 1317 l 1
 805 1317 l 1
 878 1317 l 1
 878 1244 l 1
 878 1171 l 1
 805 1171 l 1
 732 1171 l 1
 732 1244 l 1
 732 1317 l 1x0089
 512 1317 l 1x0049
 293 1317 l 1x0121
 293 1171 l 1
 293 1025 l 1
 439 1025 l 1x02a4
 585 1025 l 1x0290
 585 951 l 1
 585 878 l 1x0410
 659 878 l 1
 732 878 l 1
 732 805 l 1
 732 732 l 1x0402
 805 732 l 1
 878 732 l 1
 878 513 l 1
 878 293 l 1
 805 293 l 1x0c01
 732 293 l 1x1004
 732 220 l 1
 732 147 l 1x4004
 805 147 l 1
 878 147 l 1x4001
 878 1 l 1x2001
 878 -145 l 1
 805 -145 l 1x4001
 732 -145 l 1
 732 -219 l 1
 732 -292 l 1
 512 -292 l 1
 293 -292 l 1
 293 -219 l 1x8009
 293 -145 l 1x8020
 219 -145 l 1
 146 -145 l 1
 146 -72 l 1
 146 1 l 1
 219 1 l 1
 293 1 l 1x2020
 293 -72 l 1
 293 -145 l 1
 512 -145 l 1
 732 -145 l 1x8021
 732 1 l 1x2021
 732 147 l 1x4004
 585 147 l 1x1002
 439 147 l 1
 439 220 l 1x1004
 439 293 l 1x1008
 366 293 l 1
 293 293 l 1
 293 366 l 1x0808
 293 439 l 1
 219 439 l 1
 146 439 l 1
 146 659 l 1
 146 878 l 1
 219 878 l 1
 293 878 l 1x0a20
 293 951 l 1x0a10
 293 1025 l 1x0a20
 219 1025 l 1
 146 1025 l 1x0120
 146 1171 l 1x00a0
 146 1317 l 1
 219 1317 l 1
 293 1317 l 1x0120
 293 1391 l 1x0108
585 805 m 1x1402
 585 878 l 1x1410
 439 878 l 1
 293 878 l 1
 293 659 l 1
 293 439 l 1x0a24
 366 439 l 1
 439 439 l 1x0a08
 439 366 l 1
 439 293 l 1
 585 293 l 1x100a
 732 293 l 1x1004
 732 513 l 1x1001
 732 732 l 1
 659 732 l 1
 585 732 l 1
 585 805 l 1x1402
EndSplineSet
EndChar

StartChar: dieresis
Encoding: 168 168 103
Width: 1170
VWidth: 0
Flags: W
HStem: 1171 293<293 439 732 878>
VStem: 293 146<1171 1464> 732 146<1171 1464>
LayerCount: 2
Back
Fore
SplineSet
732 1317 m 1
 732 1464 l 1
 805 1464 l 1
 878 1464 l 1
 878 1317 l 1
 878 1171 l 1
 805 1171 l 1
 732 1171 l 1
 732 1317 l 1
293 1317 m 1
 293 1464 l 1
 366 1464 l 1
 439 1464 l 1
 439 1317 l 1
 439 1171 l 1
 366 1171 l 1
 293 1171 l 1
 293 1317 l 1
EndSplineSet
EndChar

StartChar: copyright
Encoding: 169 169 104
Width: 1170
VWidth: 0
Flags: W
HStem: 1 146<293 878> 147 146<146 293 878 1024> 293 146<439 732> 439 147<732 878> 732 146<732 878> 878 147<439 732> 1025 146<146 293 878 1024> 1171 146<293 878>
VStem: 0 146<293 1025> 146 147<147 293 1025 1171> 293 146<439 878> 439 293<293 439 878 1025> 732 146<439 586 732 878> 878 146<147 293 1025 1171> 1024 146<293 1025>
LayerCount: 2
Back
Fore
SplineSet
439 951 m 1x1410
 439 1025 l 1
 585 1025 l 1
 732 1025 l 1x1410
 732 951 l 1
 732 878 l 1x0810
 805 878 l 1
 878 878 l 1
 878 805 l 1
 878 732 l 1
 805 732 l 1
 732 732 l 1
 732 805 l 1x0808
 732 878 l 1x0810
 585 878 l 1
 439 878 l 1
 439 659 l 1
 439 439 l 1x2420
 585 439 l 1
 732 439 l 1x2410
 732 513 l 1
 732 586 l 1
 805 586 l 1
 878 586 l 1
 878 513 l 1
 878 439 l 1
 805 439 l 1x1008
 732 439 l 1
 732 366 l 1
 732 293 l 1
 585 293 l 1
 439 293 l 1
 439 366 l 1x2010
 439 439 l 1x2020
 366 439 l 1
 293 439 l 1
 293 659 l 1
 293 878 l 1
 366 878 l 1
 439 878 l 1x1420
 439 951 l 1x1410
293 1244 m 1x2220
 293 1317 l 1
 585 1317 l 1
 878 1317 l 1x0124
 878 1244 l 1
 878 1171 l 1
 951 1171 l 1
 1024 1171 l 1
 1024 1098 l 1
 1024 1025 l 1x0224
 1097 1025 l 1
 1170 1025 l 1
 1170 659 l 1
 1170 293 l 1
 1097 293 l 1x2202
 1024 293 l 1
 1024 220 l 1
 1024 147 l 1
 951 147 l 1x4004
 878 147 l 1
 878 74 l 1
 878 1 l 1
 585 1 l 1
 293 1 l 1
 293 74 l 1x8024
 293 147 l 1x8040
 219 147 l 1
 146 147 l 1
 146 220 l 1x4040
 146 293 l 1x4080
 73 293 l 1
 0 293 l 1
 0 659 l 1
 0 1025 l 1
 73 1025 l 1
 146 1025 l 1x2280
 146 1098 l 1
 146 1171 l 1
 219 1171 l 1
 293 1171 l 1x2240
 293 1244 l 1x2220
878 1098 m 1
 878 1171 l 1x4204
 585 1171 l 1x0104
 293 1171 l 1
 293 1098 l 1
 293 1025 l 1x0244
 219 1025 l 1
 146 1025 l 1
 146 659 l 1
 146 293 l 1x4280
 219 293 l 1
 293 293 l 1x4240
 293 220 l 1
 293 147 l 1
 585 147 l 1
 878 147 l 1x8044
 878 220 l 1
 878 293 l 1
 951 293 l 1
 1024 293 l 1x4044
 1024 659 l 1x4002
 1024 1025 l 1
 951 1025 l 1
 878 1025 l 1x4204
 878 1098 l 1
EndSplineSet
EndChar

StartChar: ordfeminine
Encoding: 170 170 105
Width: 1170
VWidth: 0
Flags: W
HStem: 439 147<146 878> 732 146<293 732> 878 147<146 293> 1025 146<293 732> 1317 147<293 732>
VStem: 146 147<878 1025> 732 146<878 1025 1171 1317>
LayerCount: 2
Back
Fore
SplineSet
146 513 m 1x8e
 146 586 l 1
 512 586 l 1
 878 586 l 1
 878 513 l 1
 878 439 l 1
 512 439 l 1
 146 439 l 1
 146 513 l 1x8e
293 1391 m 1
 293 1464 l 1
 512 1464 l 1
 732 1464 l 1
 732 1391 l 1
 732 1317 l 1
 805 1317 l 1
 878 1317 l 1
 878 1025 l 1
 878 732 l 1
 585 732 l 1
 293 732 l 1
 293 805 l 1
 293 878 l 1xde
 219 878 l 1
 146 878 l 1
 146 951 l 1
 146 1025 l 1
 219 1025 l 1
 293 1025 l 1xae
 293 1098 l 1
 293 1171 l 1
 512 1171 l 1
 732 1171 l 1x9e
 732 1244 l 1
 732 1317 l 1
 512 1317 l 1
 293 1317 l 1
 293 1391 l 1
732 951 m 1
 732 1025 l 1
 512 1025 l 1xde
 293 1025 l 1xae
 293 951 l 1
 293 878 l 1
 512 878 l 1
 732 878 l 1
 732 951 l 1
EndSplineSet
EndChar

StartChar: guillemotleft
Encoding: 171 171 106
Width: 1170
VWidth: 0
Flags: W
HStem: 1 146<439 585 878 1024> 147 146<293 439 732 878> 293 146<146 293 585 732> 439 147<0 146 439 585> 586 146<146 293 585 732> 732 146<293 439 732 878> 878 147<439 585 878 1024>
VStem: 0 146<439 586> 146 147<293 439 586 732> 293 146<147 293 732 878> 439 146<1 147 439 586 878 1025> 585 147<293 439 586 732> 732 146<147 293 732 878> 878 146<1 147 878 1025>
LayerCount: 2
Back
Fore
SplineSet
878 951 m 1x0404
 878 1025 l 1
 951 1025 l 1
 1024 1025 l 1
 1024 951 l 1
 1024 878 l 1
 951 878 l 1x0204
 878 878 l 1
 878 805 l 1
 878 732 l 1
 805 732 l 1x0408
 732 732 l 1
 732 659 l 1
 732 586 l 1
 659 586 l 1x0810
 585 586 l 1x1020
 585 513 l 1
 585 439 l 1x2020
 659 439 l 1
 732 439 l 1x2010
 732 366 l 1
 732 293 l 1x4010
 805 293 l 1
 878 293 l 1x4008
 878 220 l 1
 878 147 l 1x8008
 951 147 l 1
 1024 147 l 1
 1024 74 l 1
 1024 1 l 1
 951 1 l 1
 878 1 l 1
 878 74 l 1x8004
 878 147 l 1x8008
 805 147 l 1
 732 147 l 1
 732 220 l 1x4008
 732 293 l 1x4010
 659 293 l 1
 585 293 l 1
 585 366 l 1x2010
 585 439 l 1x2020
 512 439 l 1
 439 439 l 1
 439 513 l 1
 439 586 l 1
 512 586 l 1
 585 586 l 1x1020
 585 659 l 1
 585 732 l 1
 659 732 l 1
 732 732 l 1x0810
 732 805 l 1
 732 878 l 1
 805 878 l 1
 878 878 l 1x0408
 878 951 l 1x0404
439 951 m 1x0420
 439 1025 l 1
 512 1025 l 1
 585 1025 l 1
 585 951 l 1
 585 878 l 1
 512 878 l 1x0220
 439 878 l 1
 439 805 l 1
 439 732 l 1
 366 732 l 1x0440
 293 732 l 1
 293 659 l 1
 293 586 l 1
 219 586 l 1x0880
 146 586 l 1x11
 146 513 l 1
 146 439 l 1x21
 219 439 l 1
 293 439 l 1x2080
 293 366 l 1
 293 293 l 1x4080
 366 293 l 1
 439 293 l 1x4040
 439 220 l 1
 439 147 l 1x8040
 512 147 l 1
 585 147 l 1
 585 74 l 1
 585 1 l 1
 512 1 l 1
 439 1 l 1
 439 74 l 1x8020
 439 147 l 1x8040
 366 147 l 1
 293 147 l 1
 293 220 l 1x4040
 293 293 l 1x4080
 219 293 l 1
 146 293 l 1
 146 366 l 1x2080
 146 439 l 1x21
 73 439 l 1
 0 439 l 1
 0 513 l 1
 0 586 l 1
 73 586 l 1
 146 586 l 1x11
 146 659 l 1
 146 732 l 1
 219 732 l 1
 293 732 l 1x0880
 293 805 l 1
 293 878 l 1
 366 878 l 1
 439 878 l 1x0440
 439 951 l 1x0420
EndSplineSet
EndChar

StartChar: logicalnot
Encoding: 172 172 107
Width: 1170
VWidth: 0
Flags: W
HStem: 732 146<146 878>
VStem: 878 146<293 732>
LayerCount: 2
Back
Fore
SplineSet
146 805 m 1
 146 878 l 1
 585 878 l 1
 1024 878 l 1
 1024 586 l 1
 1024 293 l 1
 951 293 l 1
 878 293 l 1
 878 513 l 1
 878 732 l 1
 512 732 l 1
 146 732 l 1
 146 805 l 1
EndSplineSet
EndChar

StartChar: softhyphen
Encoding: 173 173 108
Width: 1170
VWidth: 0
Flags: W
HStem: 439 147<293 878>
VStem: 293 585<439 586>
LayerCount: 2
Back
Fore
SplineSet
293 513 m 1
 293 586 l 1
 585 586 l 1
 878 586 l 1
 878 513 l 1
 878 439 l 1
 585 439 l 1
 293 439 l 1
 293 513 l 1
EndSplineSet
EndChar

StartChar: registered
Encoding: 174 174 109
Width: 1170
VWidth: 0
Flags: W
HStem: 1 146<293 878> 147 146<146 293 878 1024> 293 146<732 878> 439 293<585 732> 586 146<439 585> 732 146<732 878> 878 147<439 732> 1025 146<146 293 878 1024> 1171 146<293 878>
VStem: 0 146<293 1025> 146 147<147 293 1025 1171> 293 146<293 586 732 878> 585 147<439 586> 732 146<293 439 732 878> 878 146<147 293 1025 1171> 1024 146<293 1025>
LayerCount: 2
Back
Fore
SplineSet
293 659 m 1x4010
 293 1025 l 1x4120
 512 1025 l 1
 732 1025 l 1x0224
 732 951 l 1
 732 878 l 1
 805 878 l 1
 878 878 l 1
 878 805 l 1
 878 732 l 1
 805 732 l 1x0424
 732 732 l 1x1024
 732 586 l 1
 732 439 l 1x2808
 805 439 l 1
 878 439 l 1x2804
 878 366 l 1
 878 293 l 1x4004
 805 293 l 1
 732 293 l 1
 732 366 l 1x2004
 732 439 l 1x2008
 659 439 l 1
 585 439 l 1x1008
 585 513 l 1
 585 586 l 1
 512 586 l 1
 439 586 l 1x0818
 439 439 l 1x1018
 439 293 l 1
 366 293 l 1x2018
 293 293 l 1x4020
 293 659 l 1x4010
732 805 m 1x1004
 732 878 l 1x0404
 585 878 l 1
 439 878 l 1
 439 805 l 1
 439 732 l 1x0a18
 585 732 l 1x1018
 732 732 l 1
 732 805 l 1x1004
293 1244 m 1x2110
 293 1317 l 1
 585 1317 l 1
 878 1317 l 1x009a
 878 1244 l 1
 878 1171 l 1
 951 1171 l 1
 1024 1171 l 1
 1024 1098 l 1
 1024 1025 l 1x011a
 1097 1025 l 1
 1170 1025 l 1
 1170 659 l 1
 1170 293 l 1
 1097 293 l 1x2101
 1024 293 l 1
 1024 220 l 1
 1024 147 l 1
 951 147 l 1x4002
 878 147 l 1
 878 74 l 1
 878 1 l 1
 585 1 l 1
 293 1 l 1
 293 74 l 1x801a
 293 147 l 1x8020
 219 147 l 1
 146 147 l 1
 146 220 l 1x4020
 146 293 l 1x4040
 73 293 l 1
 0 293 l 1
 0 659 l 1
 0 1025 l 1
 73 1025 l 1
 146 1025 l 1x2140
 146 1098 l 1
 146 1171 l 1
 219 1171 l 1
 293 1171 l 1x2120
 293 1244 l 1x2110
878 1098 m 1
 878 1171 l 1x4102
 585 1171 l 1x008a
 293 1171 l 1
 293 1098 l 1
 293 1025 l 1x012a
 219 1025 l 1
 146 1025 l 1
 146 659 l 1
 146 293 l 1x4140
 219 293 l 1
 293 293 l 1x4120
 293 220 l 1
 293 147 l 1
 585 147 l 1
 878 147 l 1
 878 220 l 1x802a
 878 293 l 1x4004
 951 293 l 1
 1024 293 l 1x4002
 1024 659 l 1x4001
 1024 1025 l 1
 951 1025 l 1
 878 1025 l 1x4102
 878 1098 l 1
EndSplineSet
EndChar

StartChar: macron
Encoding: 175 175 110
Width: 1170
VWidth: 0
Flags: W
HStem: 1317 147<146 1024>
LayerCount: 2
Back
Fore
SplineSet
146 1391 m 1
 146 1464 l 1
 585 1464 l 1
 1024 1464 l 1
 1024 1391 l 1
 1024 1317 l 1
 585 1317 l 1
 146 1317 l 1
 146 1391 l 1
EndSplineSet
EndChar

StartChar: degree
Encoding: 176 176 111
Width: 1170
VWidth: 0
Flags: W
HStem: 878 147<439 732> 1025 292<293 439 732 878> 1317 147<439 732>
VStem: 293 146<1025 1317> 439 293<878 1025 1317 1464> 732 146<1025 1317>
LayerCount: 2
Back
Fore
SplineSet
439 1391 m 1x48
 439 1464 l 1
 585 1464 l 1
 732 1464 l 1x28
 732 1391 l 1
 732 1317 l 1x48
 805 1317 l 1
 878 1317 l 1
 878 1171 l 1
 878 1025 l 1
 805 1025 l 1x44
 732 1025 l 1
 732 951 l 1
 732 878 l 1
 585 878 l 1
 439 878 l 1
 439 951 l 1x88
 439 1025 l 1x90
 366 1025 l 1
 293 1025 l 1
 293 1171 l 1
 293 1317 l 1
 366 1317 l 1
 439 1317 l 1x50
 439 1391 l 1x48
732 1171 m 1x84
 732 1317 l 1x48
 585 1317 l 1x28
 439 1317 l 1x50
 439 1171 l 1
 439 1025 l 1x90
 585 1025 l 1
 732 1025 l 1x88
 732 1171 l 1x84
EndSplineSet
EndChar

StartChar: plusminus
Encoding: 177 177 112
Width: 1170
VWidth: 0
Flags: W
HStem: 1 146<146 878> 586 146<146 439 585 878> 1005 20G<439 585>
VStem: 439 146<293 586 732 1025>
LayerCount: 2
Back
Fore
SplineSet
146 74 m 1
 146 147 l 1
 512 147 l 1
 878 147 l 1
 878 74 l 1
 878 1 l 1
 512 1 l 1
 146 1 l 1
 146 74 l 1
439 878 m 1
 439 1025 l 1
 512 1025 l 1
 585 1025 l 1
 585 878 l 1
 585 732 l 1
 732 732 l 1
 878 732 l 1
 878 659 l 1
 878 586 l 1
 732 586 l 1
 585 586 l 1
 585 439 l 1
 585 293 l 1
 512 293 l 1
 439 293 l 1
 439 439 l 1
 439 586 l 1
 293 586 l 1
 146 586 l 1
 146 659 l 1
 146 732 l 1
 293 732 l 1
 439 732 l 1
 439 878 l 1
EndSplineSet
EndChar

StartChar: twosuperior
Encoding: 178 178 113
Width: 1170
VWidth: 0
Flags: W
HStem: 732 293<439 585> 732 146<293 439 585 878> 1025 146<585 732> 1171 146<293 439 732 878> 1317 147<439 732>
VStem: 293 146<1171 1317> 439 146<878 1025> 585 147<1025 1171> 732 146<1171 1317>
LayerCount: 2
Back
Fore
SplineSet
439 1391 m 1x12
 439 1464 l 1x0a
 585 1464 l 1x09
 732 1464 l 1x0880
 732 1391 l 1
 732 1317 l 1
 805 1317 l 1
 878 1317 l 1
 878 1244 l 1
 878 1171 l 1
 805 1171 l 1x1080
 732 1171 l 1
 732 1098 l 1
 732 1025 l 1
 659 1025 l 1x21
 585 1025 l 1x82
 585 951 l 1
 585 878 l 1
 732 878 l 1
 878 878 l 1
 878 805 l 1
 878 732 l 1x4280
 585 732 l 1x81
 293 732 l 1
 293 805 l 1
 293 878 l 1x45
 366 878 l 1
 439 878 l 1x42
 439 951 l 1
 439 1025 l 1
 512 1025 l 1
 585 1025 l 1x82
 585 1098 l 1
 585 1171 l 1
 659 1171 l 1
 732 1171 l 1x21
 732 1244 l 1
 732 1317 l 1x1080
 585 1317 l 1x09
 439 1317 l 1
 439 1244 l 1
 439 1171 l 1
 366 1171 l 1
 293 1171 l 1
 293 1244 l 1
 293 1317 l 1
 366 1317 l 1
 439 1317 l 1x15
 439 1391 l 1x12
EndSplineSet
EndChar

StartChar: threesuperior
Encoding: 179 179 114
Width: 1170
VWidth: 0
Flags: W
HStem: 732 146<293 732> 878 147<732 878> 1025 146<439 732> 1171 146<732 878> 1317 147<293 732>
VStem: 293 439<732 878 1317 1464> 439 293<1025 1171> 732 146<878 1025 1171 1317>
LayerCount: 2
Back
Fore
SplineSet
293 1391 m 1x0c
 293 1464 l 1
 512 1464 l 1
 732 1464 l 1x0c
 732 1391 l 1
 732 1317 l 1x14
 805 1317 l 1
 878 1317 l 1
 878 1244 l 1
 878 1171 l 1
 805 1171 l 1x11
 732 1171 l 1x22
 732 1098 l 1
 732 1025 l 1x42
 805 1025 l 1
 878 1025 l 1
 878 951 l 1
 878 878 l 1
 805 878 l 1x41
 732 878 l 1
 732 805 l 1
 732 732 l 1
 512 732 l 1
 293 732 l 1
 293 805 l 1
 293 878 l 1
 512 878 l 1
 732 878 l 1x84
 732 951 l 1x81
 732 1025 l 1x42
 585 1025 l 1
 439 1025 l 1
 439 1098 l 1
 439 1171 l 1
 585 1171 l 1
 732 1171 l 1x22
 732 1244 l 1x21
 732 1317 l 1x14
 512 1317 l 1
 293 1317 l 1
 293 1391 l 1x0c
EndSplineSet
EndChar

StartChar: acute
Encoding: 180 180 115
Width: 1170
VWidth: 0
Flags: W
HStem: 1317 147<439 585> 1464 146<585 732>
VStem: 439 146<1317 1464> 585 147<1464 1610>
LayerCount: 2
Back
Fore
SplineSet
585 1537 m 1x90
 585 1610 l 1
 659 1610 l 1
 732 1610 l 1
 732 1537 l 1
 732 1464 l 1
 659 1464 l 1x50
 585 1464 l 1
 585 1391 l 1
 585 1317 l 1
 512 1317 l 1
 439 1317 l 1
 439 1391 l 1
 439 1464 l 1
 512 1464 l 1
 585 1464 l 1xa0
 585 1537 l 1x90
EndSplineSet
EndChar

StartChar: mu
Encoding: 181 956 116
Width: 1170
VWidth: 0
Flags: W
HStem: -438 21G<146 293> 1 146<293 732> 147 146<732 878> 1005 20G<146 293 878 1024>
VStem: 146 147<-438 1 147 1025> 732 292<147 293> 878 146<1 147 293 1025>
LayerCount: 2
Back
Fore
SplineSet
146 293 m 1xbc
 146 1025 l 1
 219 1025 l 1
 293 1025 l 1
 293 586 l 1
 293 147 l 1
 512 147 l 1
 732 147 l 1xdc
 732 220 l 1
 732 293 l 1xbc
 805 293 l 1
 878 293 l 1xba
 878 659 l 1
 878 1025 l 1
 951 1025 l 1
 1024 1025 l 1
 1024 513 l 1
 1024 1 l 1
 951 1 l 1
 878 1 l 1xda
 878 74 l 1
 878 147 l 1
 805 147 l 1xba
 732 147 l 1
 732 74 l 1
 732 1 l 1
 512 1 l 1
 293 1 l 1xdc
 293 -219 l 1
 293 -438 l 1
 219 -438 l 1
 146 -438 l 1
 146 293 l 1xbc
EndSplineSet
EndChar

StartChar: paragraph
Encoding: 182 182 117
Width: 1170
VWidth: 0
Flags: W
HStem: 1 21G<439 585 878 1024> 1317 147<585 878>
VStem: 0 585<732 1317> 439 146<1 586> 878 146<1 1317>
LayerCount: 2
Back
Fore
SplineSet
146 1391 m 1xe8
 146 1464 l 1
 585 1464 l 1xd8
 1024 1464 l 1
 1024 732 l 1
 1024 1 l 1
 951 1 l 1
 878 1 l 1
 878 659 l 1
 878 1317 l 1
 732 1317 l 1
 585 1317 l 1xe8
 585 659 l 1
 585 1 l 1
 512 1 l 1
 439 1 l 1
 439 293 l 1
 439 586 l 1xd8
 293 586 l 1
 146 586 l 1
 146 659 l 1
 146 732 l 1
 73 732 l 1
 0 732 l 1
 0 1025 l 1
 0 1317 l 1
 73 1317 l 1
 146 1317 l 1
 146 1391 l 1xe8
EndSplineSet
EndChar

StartChar: periodcentered
Encoding: 183 183 118
Width: 1170
VWidth: 0
Flags: W
HStem: 439 293<293 585>
VStem: 293 292<439 732>
LayerCount: 2
Back
Fore
SplineSet
293 586 m 1
 293 732 l 1
 439 732 l 1
 585 732 l 1
 585 586 l 1
 585 439 l 1
 439 439 l 1
 293 439 l 1
 293 586 l 1
EndSplineSet
EndChar

StartChar: cedilla
Encoding: 184 184 119
Width: 1170
VWidth: 0
Flags: W
HStem: -438 146<293 439> -292 293<439 585>
VStem: 293 146<-438 -292> 439 146<-292 1>
LayerCount: 2
Back
Fore
SplineSet
439 -145 m 1x90
 439 1 l 1
 512 1 l 1
 585 1 l 1
 585 -145 l 1
 585 -292 l 1
 512 -292 l 1x50
 439 -292 l 1
 439 -365 l 1
 439 -438 l 1
 366 -438 l 1
 293 -438 l 1
 293 -365 l 1
 293 -292 l 1
 366 -292 l 1
 439 -292 l 1xa0
 439 -145 l 1x90
EndSplineSet
EndChar

StartChar: onesuperior
Encoding: 185 185 120
Width: 1170
VWidth: 0
Flags: W
HStem: 732 146<293 439 585 732> 1171 146<293 439> 1444 20G<439 585>
VStem: 293 292<1171 1317> 439 146<878 1171 1317 1464>
LayerCount: 2
Back
Fore
SplineSet
439 1391 m 1xe8
 439 1464 l 1
 512 1464 l 1
 585 1464 l 1xe8
 585 1171 l 1xf0
 585 878 l 1xe8
 659 878 l 1
 732 878 l 1
 732 805 l 1
 732 732 l 1
 512 732 l 1
 293 732 l 1
 293 805 l 1
 293 878 l 1xf0
 366 878 l 1
 439 878 l 1
 439 1025 l 1
 439 1171 l 1xe8
 366 1171 l 1
 293 1171 l 1
 293 1244 l 1
 293 1317 l 1xf0
 366 1317 l 1
 439 1317 l 1
 439 1391 l 1xe8
EndSplineSet
EndChar

StartChar: ordmasculine
Encoding: 186 186 121
Width: 1170
VWidth: 0
Flags: W
HStem: 439 147<146 878> 732 146<293 732> 878 439<146 293 732 878> 1317 147<293 732>
VStem: 146 147<878 1317> 293 439<732 878 1317 1464> 732 146<878 1317>
LayerCount: 2
Back
Fore
SplineSet
146 513 m 1x8a
 146 586 l 1
 512 586 l 1
 878 586 l 1
 878 513 l 1
 878 439 l 1
 512 439 l 1
 146 439 l 1
 146 513 l 1x8a
293 1391 m 1xa4
 293 1464 l 1
 512 1464 l 1
 732 1464 l 1x94
 732 1391 l 1
 732 1317 l 1xa4
 805 1317 l 1
 878 1317 l 1
 878 1098 l 1
 878 878 l 1
 805 878 l 1xa2
 732 878 l 1
 732 805 l 1
 732 732 l 1
 512 732 l 1
 293 732 l 1
 293 805 l 1xc4
 293 878 l 1xc8
 219 878 l 1
 146 878 l 1
 146 1098 l 1
 146 1317 l 1
 219 1317 l 1
 293 1317 l 1xa8
 293 1391 l 1xa4
732 1098 m 1xc2
 732 1317 l 1xa4
 512 1317 l 1x94
 293 1317 l 1xa8
 293 1098 l 1
 293 878 l 1xc8
 512 878 l 1
 732 878 l 1xc4
 732 1098 l 1xc2
EndSplineSet
EndChar

StartChar: guillemotright
Encoding: 187 187 122
Width: 1170
VWidth: 0
Flags: W
HStem: 1 146<0 146 439 585> 147 146<146 293 585 732> 293 146<293 439 732 878> 439 147<439 585 878 1024> 586 146<293 439 732 878> 732 146<146 293 585 732> 878 147<0 146 439 585>
VStem: 0 146<1 147 878 1025> 146 147<147 293 732 878> 293 146<293 439 586 732> 439 146<1 147 439 586 878 1025> 585 147<147 293 732 878> 732 146<293 439 586 732> 878 146<439 586>
LayerCount: 2
Back
Fore
SplineSet
439 951 m 1x0220
 439 1025 l 1
 512 1025 l 1
 585 1025 l 1x0220
 585 951 l 1
 585 878 l 1x0420
 659 878 l 1
 732 878 l 1x0410
 732 805 l 1
 732 732 l 1x0810
 805 732 l 1
 878 732 l 1x0808
 878 659 l 1
 878 586 l 1x1008
 951 586 l 1
 1024 586 l 1
 1024 513 l 1
 1024 439 l 1
 951 439 l 1x1004
 878 439 l 1
 878 366 l 1
 878 293 l 1
 805 293 l 1x2008
 732 293 l 1
 732 220 l 1
 732 147 l 1
 659 147 l 1x4010
 585 147 l 1
 585 74 l 1
 585 1 l 1
 512 1 l 1
 439 1 l 1
 439 74 l 1
 439 147 l 1
 512 147 l 1
 585 147 l 1x8020
 585 220 l 1
 585 293 l 1
 659 293 l 1
 732 293 l 1x4010
 732 366 l 1
 732 439 l 1
 805 439 l 1
 878 439 l 1x2008
 878 513 l 1x2004
 878 586 l 1x1008
 805 586 l 1
 732 586 l 1
 732 659 l 1x0808
 732 732 l 1x0810
 659 732 l 1
 585 732 l 1
 585 805 l 1x0410
 585 878 l 1x0420
 512 878 l 1
 439 878 l 1
 439 951 l 1x0220
0 951 m 1x03
 0 1025 l 1
 73 1025 l 1
 146 1025 l 1x03
 146 951 l 1
 146 878 l 1x05
 219 878 l 1
 293 878 l 1x0480
 293 805 l 1
 293 732 l 1x0880
 366 732 l 1
 439 732 l 1x0840
 439 659 l 1
 439 586 l 1x1040
 512 586 l 1
 585 586 l 1
 585 513 l 1
 585 439 l 1
 512 439 l 1x1020
 439 439 l 1
 439 366 l 1
 439 293 l 1
 366 293 l 1x2040
 293 293 l 1
 293 220 l 1
 293 147 l 1
 219 147 l 1x4080
 146 147 l 1
 146 74 l 1
 146 1 l 1
 73 1 l 1
 0 1 l 1
 0 74 l 1
 0 147 l 1
 73 147 l 1
 146 147 l 1x81
 146 220 l 1
 146 293 l 1
 219 293 l 1
 293 293 l 1x4080
 293 366 l 1
 293 439 l 1
 366 439 l 1
 439 439 l 1x2040
 439 513 l 1x2020
 439 586 l 1x1040
 366 586 l 1
 293 586 l 1
 293 659 l 1x0840
 293 732 l 1x0880
 219 732 l 1
 146 732 l 1
 146 805 l 1x0480
 146 878 l 1x05
 73 878 l 1
 0 878 l 1
 0 951 l 1x03
EndSplineSet
EndChar

StartChar: onequarter
Encoding: 188 188 123
Width: 1170
VWidth: 0
Flags: W
HStem: 1 146<439 585 732 878> 147 146<0 146> 293 146<146 293 732 878> 439 147<293 439> 586 146<439 585> 732 146<585 732> 878 147<732 878> 1025 146<878 1024> 1317 147<146 293>
VStem: 0 146<147 293> 146 147<293 439> 293 146<439 586 878 1317 1464 1610> 439 146<586 732> 585 147<147 293 732 878> 732 146<878 1025> 878 146<-292 1 147 293 439 586 1025 1171>
LayerCount: 2
Back
Fore
SplineSet
878 513 m 1xa081
 878 586 l 1
 951 586 l 1
 1024 586 l 1
 1024 147 l 1x4881
 1024 -292 l 1
 951 -292 l 1
 878 -292 l 1
 878 -145 l 1
 878 1 l 1
 659 1 l 1
 439 1 l 1
 439 74 l 1
 439 147 l 1x8089
 512 147 l 1
 585 147 l 1
 585 220 l 1
 585 293 l 1
 659 293 l 1
 732 293 l 1xa084
 732 366 l 1
 732 439 l 1xa082
 805 439 l 1
 878 439 l 1
 878 513 l 1xa081
878 220 m 1
 878 293 l 1
 805 293 l 1
 732 293 l 1
 732 220 l 1
 732 147 l 1
 805 147 l 1
 878 147 l 1xa085
 878 220 l 1
878 1098 m 1
 878 1171 l 1
 951 1171 l 1
 1024 1171 l 1
 1024 1098 l 1
 1024 1025 l 1
 951 1025 l 1x0181
 878 1025 l 1
 878 951 l 1
 878 878 l 1
 805 878 l 1x0282
 732 878 l 1
 732 805 l 1
 732 732 l 1
 659 732 l 1x0484
 585 732 l 1
 585 659 l 1
 585 586 l 1
 512 586 l 1x0888
 439 586 l 1
 439 513 l 1
 439 439 l 1
 366 439 l 1x1090
 293 439 l 1
 293 366 l 1
 293 293 l 1
 219 293 l 1x20a0
 146 293 l 1
 146 220 l 1
 146 147 l 1
 73 147 l 1
 0 147 l 1
 0 220 l 1
 0 293 l 1
 73 293 l 1
 146 293 l 1x40c0
 146 366 l 1
 146 439 l 1
 219 439 l 1
 293 439 l 1x20a0
 293 513 l 1
 293 586 l 1
 366 586 l 1
 439 586 l 1x1090
 439 659 l 1
 439 732 l 1
 512 732 l 1
 585 732 l 1x0888
 585 805 l 1
 585 878 l 1
 659 878 l 1
 732 878 l 1x0484
 732 951 l 1
 732 1025 l 1
 805 1025 l 1
 878 1025 l 1x0282
 878 1098 l 1
293 1537 m 1x0290
 293 1610 l 1
 366 1610 l 1
 439 1610 l 1
 439 1244 l 1
 439 878 l 1
 366 878 l 1
 293 878 l 1
 293 1098 l 1
 293 1317 l 1x0290
 219 1317 l 1
 146 1317 l 1
 146 1391 l 1
 146 1464 l 1x02a0
 219 1464 l 1
 293 1464 l 1
 293 1537 l 1x0290
EndSplineSet
EndChar

StartChar: onehalf
Encoding: 189 189 124
Width: 1170
VWidth: 0
Flags: W
HStem: -292 293<585 732> -292 147<439 585 732 1024> 1 146<732 878> 147 146<0 146 439 585 878 1024> 293 146<146 293 585 878> 439 147<293 439> 586 146<439 585> 732 146<585 732> 878 147<732 878> 1025 146<878 1024> 1317 147<146 293>
VStem: 0 146<147 293> 146 147<293 439> 293 146<439 586 878 1317 1464 1610> 439 146<147 293 586 732> 585 147<-145 1 732 878> 732 146<1 147 878 1025> 878 146<147 293 1025 1171>
LayerCount: 2
Back
Fore
SplineSet
585 366 m 1x1021
 585 439 l 1x0821
 732 439 l 1x082080
 878 439 l 1x082040
 878 366 l 1
 878 293 l 1
 951 293 l 1
 1024 293 l 1
 1024 220 l 1
 1024 147 l 1
 951 147 l 1x102040
 878 147 l 1
 878 74 l 1
 878 1 l 1
 805 1 l 1x202080
 732 1 l 1x8021
 732 -72 l 1
 732 -145 l 1
 878 -145 l 1
 1024 -145 l 1
 1024 -219 l 1
 1024 -292 l 1x402140
 732 -292 l 1x802080
 439 -292 l 1
 439 -219 l 1
 439 -145 l 1x402280
 512 -145 l 1
 585 -145 l 1x4021
 585 -72 l 1
 585 1 l 1
 659 1 l 1
 732 1 l 1x8021
 732 74 l 1
 732 147 l 1
 805 147 l 1
 878 147 l 1x202080
 878 220 l 1
 878 293 l 1x102040
 732 293 l 1x082080
 585 293 l 1
 585 220 l 1
 585 147 l 1
 512 147 l 1
 439 147 l 1
 439 220 l 1
 439 293 l 1
 512 293 l 1
 585 293 l 1x102280
 585 366 l 1x1021
878 1098 m 1x00a040
 878 1171 l 1
 951 1171 l 1
 1024 1171 l 1
 1024 1098 l 1
 1024 1025 l 1
 951 1025 l 1x006040
 878 1025 l 1
 878 951 l 1
 878 878 l 1
 805 878 l 1x00a080
 732 878 l 1
 732 805 l 1
 732 732 l 1
 659 732 l 1x0121
 585 732 l 1
 585 659 l 1
 585 586 l 1
 512 586 l 1x0222
 439 586 l 1
 439 513 l 1
 439 439 l 1
 366 439 l 1x0424
 293 439 l 1
 293 366 l 1
 293 293 l 1
 219 293 l 1x0828
 146 293 l 1
 146 220 l 1
 146 147 l 1
 73 147 l 1
 0 147 l 1
 0 220 l 1
 0 293 l 1
 73 293 l 1
 146 293 l 1x1030
 146 366 l 1
 146 439 l 1
 219 439 l 1
 293 439 l 1x0828
 293 513 l 1
 293 586 l 1
 366 586 l 1
 439 586 l 1x0424
 439 659 l 1
 439 732 l 1
 512 732 l 1
 585 732 l 1x0222
 585 805 l 1
 585 878 l 1
 659 878 l 1
 732 878 l 1x0121
 732 951 l 1
 732 1025 l 1
 805 1025 l 1
 878 1025 l 1x00a080
 878 1098 l 1x00a040
293 1537 m 1x00a4
 293 1610 l 1
 366 1610 l 1
 439 1610 l 1
 439 1244 l 1
 439 878 l 1
 366 878 l 1
 293 878 l 1
 293 1098 l 1
 293 1317 l 1x00a4
 219 1317 l 1
 146 1317 l 1
 146 1391 l 1
 146 1464 l 1x00a8
 219 1464 l 1
 293 1464 l 1
 293 1537 l 1x00a4
EndSplineSet
EndChar

StartChar: threequarters
Encoding: 190 190 125
Width: 1170
VWidth: 0
Flags: W
HStem: 1 146<439 585 732 878> 147 146<0 146> 293 146<146 293 732 878> 439 147<293 439> 586 146<439 585> 732 146<585 732> 878 147<0 439 732 878> 1025 146<439 585 878 1024> 1171 146<146 439> 1317 147<439 585> 1464 146<0 439>
VStem: 0 146<147 293> 146 147<293 439> 293 146<439 586> 439 146<586 732 1025 1171 1317 1464> 585 147<147 293 732 878> 732 146<878 1025> 878 146<-292 1 147 293 439 586 1025 1171>
LayerCount: 2
Back
Fore
SplineSet
878 513 m 1xa00040
 878 586 l 1
 951 586 l 1
 1024 586 l 1
 1024 147 l 1x480040
 1024 -292 l 1
 951 -292 l 1
 878 -292 l 1
 878 -145 l 1
 878 1 l 1
 659 1 l 1
 439 1 l 1
 439 74 l 1
 439 147 l 1x800240
 512 147 l 1
 585 147 l 1
 585 220 l 1
 585 293 l 1
 659 293 l 1
 732 293 l 1xa001
 732 366 l 1
 732 439 l 1xa00080
 805 439 l 1
 878 439 l 1
 878 513 l 1xa00040
878 220 m 1
 878 293 l 1
 805 293 l 1
 732 293 l 1
 732 220 l 1
 732 147 l 1
 805 147 l 1
 878 147 l 1xa00140
 878 220 l 1
878 1098 m 1
 878 1171 l 1
 951 1171 l 1
 1024 1171 l 1
 1024 1098 l 1
 1024 1025 l 1
 951 1025 l 1x010040
 878 1025 l 1
 878 951 l 1
 878 878 l 1
 805 878 l 1x020080
 732 878 l 1
 732 805 l 1
 732 732 l 1
 659 732 l 1x0401
 585 732 l 1
 585 659 l 1
 585 586 l 1
 512 586 l 1x0802
 439 586 l 1
 439 513 l 1
 439 439 l 1
 366 439 l 1x1004
 293 439 l 1
 293 366 l 1
 293 293 l 1
 219 293 l 1x2008
 146 293 l 1
 146 220 l 1
 146 147 l 1
 73 147 l 1
 0 147 l 1
 0 220 l 1
 0 293 l 1
 73 293 l 1
 146 293 l 1x4010
 146 366 l 1
 146 439 l 1
 219 439 l 1
 293 439 l 1x2008
 293 513 l 1
 293 586 l 1
 366 586 l 1
 439 586 l 1x1004
 439 659 l 1
 439 732 l 1
 512 732 l 1
 585 732 l 1x0802
 585 805 l 1
 585 878 l 1
 659 878 l 1
 732 878 l 1x0401
 732 951 l 1
 732 1025 l 1
 805 1025 l 1
 878 1025 l 1x020080
 878 1098 l 1
0 1537 m 1x0032
 0 1610 l 1
 220 1610 l 1
 439 1610 l 1x0032
 439 1537 l 1
 439 1464 l 1
 512 1464 l 1
 585 1464 l 1
 585 1391 l 1
 585 1317 l 1
 512 1317 l 1x0052
 439 1317 l 1x0092
 439 1244 l 1
 439 1171 l 1
 512 1171 l 1
 585 1171 l 1
 585 1098 l 1
 585 1025 l 1
 512 1025 l 1x0112
 439 1025 l 1
 439 951 l 1
 439 878 l 1
 220 878 l 1
 0 878 l 1
 0 951 l 1
 0 1025 l 1
 220 1025 l 1
 439 1025 l 1x0212
 439 1098 l 1
 439 1171 l 1x0112
 293 1171 l 1x0084
 146 1171 l 1
 146 1244 l 1
 146 1317 l 1x0088
 293 1317 l 1x0084
 439 1317 l 1x0082
 439 1391 l 1
 439 1464 l 1x0042
 220 1464 l 1
 0 1464 l 1
 0 1537 l 1x0032
EndSplineSet
EndChar

StartChar: question
Encoding: 191 63 126
Width: 1170
VWidth: 0
Flags: W
HStem: 1 146<293 878> 147 146<878 1024> 586 146<293 439> 732 146<439 585> 878 147<585 732> 1171 293<585 732>
VStem: 146 147<147 586> 293 146<586 732> 439 146<732 878> 585 147<878 1025 1171 1464> 878 146<147 293>
LayerCount: 2
Back
Fore
SplineSet
585 951 m 1x1460
 585 1025 l 1
 659 1025 l 1
 732 1025 l 1
 732 951 l 1
 732 878 l 1
 659 878 l 1x0c60
 585 878 l 1
 585 805 l 1
 585 732 l 1
 512 732 l 1x14a0
 439 732 l 1
 439 659 l 1
 439 586 l 1x2520
 366 586 l 1
 293 586 l 1
 293 366 l 1
 293 147 l 1
 585 147 l 1
 878 147 l 1xa660
 878 220 l 1
 878 293 l 1
 951 293 l 1
 1024 293 l 1
 1024 220 l 1
 1024 147 l 1
 951 147 l 1x4660
 878 147 l 1
 878 74 l 1
 878 1 l 1
 585 1 l 1
 293 1 l 1
 293 74 l 1x8560
 293 147 l 1x8620
 219 147 l 1
 146 147 l 1
 146 366 l 1
 146 586 l 1
 219 586 l 1
 293 586 l 1x6620
 293 659 l 1
 293 732 l 1
 366 732 l 1
 439 732 l 1x6520
 439 805 l 1
 439 878 l 1
 512 878 l 1
 585 878 l 1x14a0
 585 951 l 1x1460
585 1317 m 1
 585 1464 l 1
 659 1464 l 1
 732 1464 l 1
 732 1317 l 1
 732 1171 l 1
 659 1171 l 1
 585 1171 l 1
 585 1317 l 1
EndSplineSet
EndChar

StartChar: Agrave
Encoding: 192 192 127
Width: 1170
VWidth: 0
Flags: W
HStem: 1 21G<146 293 878 1024> 586 146<293 878> 1171 293<585 732> 1171 146<293 585 732 878> 1464 146<439 585>
VStem: 146 147<1 586 732 1171> 439 146<1464 1610> 585 147<1317 1464> 878 146<1 586 732 1171>
LayerCount: 2
Back
Fore
SplineSet
439 1537 m 1xce80
 439 1610 l 1
 512 1610 l 1
 585 1610 l 1xce80
 585 1537 l 1
 585 1464 l 1xe680
 659 1464 l 1
 732 1464 l 1xe580
 732 1391 l 1
 732 1317 l 1
 805 1317 l 1
 878 1317 l 1
 878 1244 l 1
 878 1171 l 1
 951 1171 l 1
 1024 1171 l 1
 1024 586 l 1
 1024 1 l 1
 951 1 l 1
 878 1 l 1
 878 293 l 1
 878 586 l 1
 585 586 l 1xd580
 293 586 l 1
 293 293 l 1
 293 1 l 1
 219 1 l 1
 146 1 l 1
 146 586 l 1
 146 1171 l 1
 219 1171 l 1
 293 1171 l 1
 293 1244 l 1
 293 1317 l 1
 439 1317 l 1xd680
 585 1317 l 1
 585 1391 l 1xd580
 585 1464 l 1xe680
 512 1464 l 1
 439 1464 l 1
 439 1537 l 1xce80
878 951 m 1
 878 1171 l 1xd580
 585 1171 l 1xe580
 293 1171 l 1
 293 951 l 1
 293 732 l 1
 585 732 l 1xd580
 878 732 l 1
 878 951 l 1
EndSplineSet
EndChar

StartChar: Aacute
Encoding: 193 193 128
Width: 1170
VWidth: 0
Flags: W
HStem: 1 21G<146 293 878 1024> 586 146<293 878> 1171 293<439 585> 1171 146<293 439 585 878> 1464 146<585 732>
VStem: 146 147<1 586 732 1171> 439 146<1317 1464> 585 147<1464 1610> 878 146<1 586 732 1171>
LayerCount: 2
Back
Fore
SplineSet
585 1537 m 1xe580
 585 1610 l 1
 659 1610 l 1
 732 1610 l 1
 732 1537 l 1
 732 1464 l 1
 659 1464 l 1xcd80
 585 1464 l 1xe680
 585 1391 l 1
 585 1317 l 1xd680
 732 1317 l 1
 878 1317 l 1
 878 1244 l 1
 878 1171 l 1
 951 1171 l 1
 1024 1171 l 1
 1024 586 l 1
 1024 1 l 1
 951 1 l 1
 878 1 l 1
 878 293 l 1
 878 586 l 1
 585 586 l 1xd580
 293 586 l 1
 293 293 l 1
 293 1 l 1
 219 1 l 1
 146 1 l 1
 146 586 l 1
 146 1171 l 1
 219 1171 l 1
 293 1171 l 1
 293 1244 l 1
 293 1317 l 1
 366 1317 l 1
 439 1317 l 1xd680
 439 1391 l 1
 439 1464 l 1
 512 1464 l 1
 585 1464 l 1xe680
 585 1537 l 1xe580
878 951 m 1
 878 1171 l 1xd580
 585 1171 l 1xe580
 293 1171 l 1xd580
 293 951 l 1
 293 732 l 1
 585 732 l 1
 878 732 l 1
 878 951 l 1
EndSplineSet
EndChar

StartChar: Acircumflex
Encoding: 194 194 129
Width: 1170
VWidth: 0
Flags: W
HStem: 1 21G<146 293 878 1024> 439 147<293 878> 1025 146<293 878> 1317 147<293 439 732 878> 1464 146<439 732>
VStem: 146 147<1 439 586 1025> 293 146<1317 1464> 439 293<1464 1610> 732 146<1317 1464> 878 146<1 439 586 1025>
LayerCount: 2
Back
Fore
SplineSet
293 1098 m 1xe2
 293 1171 l 1xe2
 585 1171 l 1
 878 1171 l 1
 878 1098 l 1
 878 1025 l 1
 951 1025 l 1
 1024 1025 l 1
 1024 513 l 1
 1024 1 l 1
 951 1 l 1
 878 1 l 1
 878 220 l 1
 878 439 l 1
 585 439 l 1
 293 439 l 1
 293 220 l 1
 293 1 l 1
 219 1 l 1
 146 1 l 1
 146 513 l 1
 146 1025 l 1
 219 1025 l 1
 293 1025 l 1xe440
 293 1098 l 1xe2
878 805 m 1xe440
 878 1025 l 1
 585 1025 l 1
 293 1025 l 1
 293 805 l 1
 293 586 l 1
 585 586 l 1
 878 586 l 1
 878 805 l 1xe440
439 1537 m 1xf1
 439 1610 l 1
 585 1610 l 1
 732 1610 l 1xe9
 732 1537 l 1
 732 1464 l 1xf1
 805 1464 l 1
 878 1464 l 1
 878 1391 l 1
 878 1317 l 1
 805 1317 l 1
 732 1317 l 1
 732 1391 l 1xf080
 732 1464 l 1xf1
 585 1464 l 1xe9
 439 1464 l 1
 439 1391 l 1
 439 1317 l 1
 366 1317 l 1
 293 1317 l 1
 293 1391 l 1
 293 1464 l 1
 366 1464 l 1
 439 1464 l 1xf2
 439 1537 l 1xf1
EndSplineSet
EndChar

StartChar: Atilde
Encoding: 195 195 130
Width: 1170
VWidth: 0
Flags: W
HStem: 1 21G<146 293 878 1024> 439 147<293 878> 1025 146<293 878> 1317 147<146 293 585 878> 1464 146<293 585 878 1024>
VStem: 146 147<1 439 586 1025 1317 1464> 293 292<1464 1610> 585 293<1317 1464> 878 146<1 439 586 1025 1464 1610>
LayerCount: 2
Back
Fore
SplineSet
293 1098 m 1xe2
 293 1171 l 1xe2
 585 1171 l 1xe1
 878 1171 l 1
 878 1098 l 1
 878 1025 l 1
 951 1025 l 1
 1024 1025 l 1
 1024 513 l 1
 1024 1 l 1
 951 1 l 1
 878 1 l 1
 878 220 l 1
 878 439 l 1xe080
 585 439 l 1
 293 439 l 1
 293 220 l 1
 293 1 l 1
 219 1 l 1
 146 1 l 1
 146 513 l 1
 146 1025 l 1
 219 1025 l 1
 293 1025 l 1xe5
 293 1098 l 1xe2
878 805 m 1xe080
 878 1025 l 1xe080
 585 1025 l 1
 293 1025 l 1
 293 805 l 1
 293 586 l 1
 585 586 l 1xe5
 878 586 l 1
 878 805 l 1xe080
293 1537 m 1xf2
 293 1610 l 1
 439 1610 l 1
 585 1610 l 1xea
 585 1537 l 1
 585 1464 l 1xf2
 732 1464 l 1
 878 1464 l 1xf1
 878 1537 l 1
 878 1610 l 1
 951 1610 l 1
 1024 1610 l 1
 1024 1537 l 1
 1024 1464 l 1
 951 1464 l 1xe880
 878 1464 l 1
 878 1391 l 1
 878 1317 l 1
 732 1317 l 1
 585 1317 l 1
 585 1391 l 1xf1
 585 1464 l 1xf2
 439 1464 l 1xea
 293 1464 l 1
 293 1391 l 1
 293 1317 l 1
 219 1317 l 1
 146 1317 l 1
 146 1391 l 1
 146 1464 l 1
 219 1464 l 1
 293 1464 l 1xf4
 293 1537 l 1xf2
EndSplineSet
EndChar

StartChar: Adieresis
Encoding: 196 196 131
Width: 1170
VWidth: 0
Flags: W
HStem: 1 21G<146 293 878 1024> 439 147<293 878> 1025 146<293 878> 1317 293<293 439 732 878>
VStem: 146 147<1 439 586 1025> 293 146<1317 1610> 732 146<1317 1610> 878 146<1 439 586 1025>
LayerCount: 2
Back
Fore
SplineSet
293 1098 m 1xf4
 293 1171 l 1xf4
 585 1171 l 1
 878 1171 l 1
 878 1098 l 1
 878 1025 l 1
 951 1025 l 1
 1024 1025 l 1
 1024 513 l 1
 1024 1 l 1
 951 1 l 1
 878 1 l 1
 878 220 l 1
 878 439 l 1
 585 439 l 1
 293 439 l 1
 293 220 l 1
 293 1 l 1
 219 1 l 1
 146 1 l 1
 146 513 l 1
 146 1025 l 1
 219 1025 l 1
 293 1025 l 1xf9
 293 1098 l 1xf4
878 805 m 1xf9
 878 1025 l 1
 585 1025 l 1
 293 1025 l 1
 293 805 l 1
 293 586 l 1
 585 586 l 1
 878 586 l 1
 878 805 l 1xf9
732 1464 m 1xf2
 732 1610 l 1
 805 1610 l 1
 878 1610 l 1
 878 1464 l 1
 878 1317 l 1
 805 1317 l 1
 732 1317 l 1
 732 1464 l 1xf2
293 1464 m 1xf4
 293 1610 l 1
 366 1610 l 1
 439 1610 l 1
 439 1464 l 1
 439 1317 l 1
 366 1317 l 1
 293 1317 l 1
 293 1464 l 1xf4
EndSplineSet
EndChar

StartChar: Aring
Encoding: 197 197 132
Width: 1170
VWidth: 0
Flags: W
HStem: 1 21G<146 293 878 1024> 439 147<293 878> 1025 292<439 732> 1025 146<293 439 732 878> 1317 147<293 439 732 878> 1464 146<439 732>
VStem: 146 147<1 439 586 1025> 293 146<1317 1464> 439 293<1171 1317 1464 1610> 732 146<1317 1464> 878 146<1 439 586 1025>
LayerCount: 2
Back
Fore
SplineSet
439 1537 m 1xc880
 439 1610 l 1
 585 1610 l 1
 732 1610 l 1xc480
 732 1537 l 1
 732 1464 l 1xc880
 805 1464 l 1
 878 1464 l 1
 878 1391 l 1
 878 1317 l 1
 805 1317 l 1xc840
 732 1317 l 1xe080
 732 1244 l 1
 732 1171 l 1
 805 1171 l 1
 878 1171 l 1
 878 1098 l 1
 878 1025 l 1
 951 1025 l 1
 1024 1025 l 1
 1024 513 l 1
 1024 1 l 1
 951 1 l 1
 878 1 l 1
 878 220 l 1
 878 439 l 1
 585 439 l 1
 293 439 l 1
 293 220 l 1
 293 1 l 1
 219 1 l 1
 146 1 l 1
 146 513 l 1
 146 1025 l 1
 219 1025 l 1
 293 1025 l 1xd2a0
 293 1098 l 1
 293 1171 l 1xd1
 366 1171 l 1
 439 1171 l 1
 439 1244 l 1xd080
 439 1317 l 1xe1
 366 1317 l 1
 293 1317 l 1
 293 1391 l 1
 293 1464 l 1
 366 1464 l 1
 439 1464 l 1xc9
 439 1537 l 1xc880
732 1391 m 1xe040
 732 1464 l 1xc880
 585 1464 l 1xc480
 439 1464 l 1xc9
 439 1391 l 1
 439 1317 l 1xe1
 585 1317 l 1
 732 1317 l 1xe080
 732 1391 l 1xe040
878 805 m 1xd220
 878 1025 l 1xd220
 585 1025 l 1xe220
 293 1025 l 1
 293 805 l 1
 293 586 l 1
 585 586 l 1
 878 586 l 1
 878 805 l 1xd220
EndSplineSet
EndChar

StartChar: AE
Encoding: 198 198 133
Width: 1170
VWidth: 0
Flags: W
HStem: 1 146<585 1024> 732 146<146 439 585 878> 1317 147<146 439 585 1024>
VStem: 0 146<1 732 878 1317> 439 146<147 732 878 1317>
LayerCount: 2
Back
Fore
SplineSet
146 1391 m 1
 146 1464 l 1
 585 1464 l 1
 1024 1464 l 1
 1024 1391 l 1
 1024 1317 l 1
 805 1317 l 1
 585 1317 l 1
 585 1098 l 1
 585 878 l 1
 732 878 l 1
 878 878 l 1
 878 805 l 1
 878 732 l 1
 732 732 l 1
 585 732 l 1
 585 440 l 1
 585 147 l 1
 805 147 l 1
 1024 147 l 1
 1024 74 l 1
 1024 1 l 1
 732 1 l 1
 439 1 l 1
 439 366 l 1
 439 732 l 1
 293 732 l 1
 146 732 l 1
 146 366 l 1
 146 1 l 1
 73 1 l 1
 0 1 l 1
 0 659 l 1
 0 1317 l 1
 73 1317 l 1
 146 1317 l 1
 146 1391 l 1
439 1098 m 1
 439 1317 l 1
 293 1317 l 1
 146 1317 l 1
 146 1098 l 1
 146 878 l 1
 293 878 l 1
 439 878 l 1
 439 1098 l 1
EndSplineSet
EndChar

StartChar: Ccedilla
Encoding: 199 199 134
Width: 1170
VWidth: 0
Flags: W
HStem: -292 147<293 439> -145 292<439 585> 1 146<293 439 585 878> 147 146<878 1024> 1171 146<878 1024> 1317 147<293 878>
VStem: 146 147<147 1317> 293 146<-292 -145> 439 146<-145 1> 878 146<147 293 1171 1317>
LayerCount: 2
Back
Fore
SplineSet
293 1391 m 1x1540
 293 1464 l 1x1540
 585 1464 l 1
 878 1464 l 1x14c0
 878 1391 l 1
 878 1317 l 1
 951 1317 l 1
 1024 1317 l 1
 1024 1244 l 1
 1024 1171 l 1
 951 1171 l 1
 878 1171 l 1
 878 1244 l 1
 878 1317 l 1x08c0
 585 1317 l 1
 293 1317 l 1
 293 732 l 1
 293 147 l 1x26c0
 585 147 l 1x42c0
 878 147 l 1x22c0
 878 220 l 1
 878 293 l 1
 951 293 l 1
 1024 293 l 1
 1024 220 l 1
 1024 147 l 1
 951 147 l 1x12c0
 878 147 l 1
 878 74 l 1
 878 1 l 1
 732 1 l 1
 585 1 l 1x22c0
 585 -72 l 1
 585 -145 l 1
 512 -145 l 1x42c0
 439 -145 l 1
 439 -219 l 1
 439 -292 l 1
 366 -292 l 1
 293 -292 l 1
 293 -219 l 1
 293 -145 l 1
 366 -145 l 1
 439 -145 l 1x8140
 439 -72 l 1
 439 1 l 1xa0c0
 366 1 l 1
 293 1 l 1
 293 74 l 1xa140
 293 147 l 1xa240
 219 147 l 1
 146 147 l 1
 146 732 l 1
 146 1317 l 1
 219 1317 l 1
 293 1317 l 1x1640
 293 1391 l 1x1540
EndSplineSet
EndChar

StartChar: Egrave
Encoding: 200 200 135
Width: 1170
VWidth: 0
Flags: W
HStem: 1 146<293 1024> 586 146<293 732> 1171 293<585 732> 1171 146<293 585 732 1024> 1464 146<439 585>
VStem: 146 147<147 586 732 1171> 439 146<1464 1610> 585 147<1317 1464>
LayerCount: 2
Back
Fore
SplineSet
439 1537 m 1xce
 439 1610 l 1
 512 1610 l 1
 585 1610 l 1xce
 585 1537 l 1
 585 1464 l 1xe6
 659 1464 l 1
 732 1464 l 1xe5
 732 1391 l 1
 732 1317 l 1
 878 1317 l 1
 1024 1317 l 1
 1024 1244 l 1
 1024 1171 l 1xd5
 658 1171 l 1xe5
 293 1171 l 1
 293 951 l 1
 293 732 l 1
 512 732 l 1
 732 732 l 1
 732 659 l 1
 732 586 l 1
 512 586 l 1
 293 586 l 1
 293 366 l 1
 293 147 l 1
 658 147 l 1
 1024 147 l 1
 1024 74 l 1
 1024 1 l 1
 585 1 l 1
 146 1 l 1
 146 659 l 1
 146 1317 l 1
 366 1317 l 1
 585 1317 l 1
 585 1391 l 1xd5
 585 1464 l 1xe6
 512 1464 l 1
 439 1464 l 1
 439 1537 l 1xce
EndSplineSet
EndChar

StartChar: Eacute
Encoding: 201 201 136
Width: 1170
VWidth: 0
Flags: W
HStem: 1 146<293 1024> 586 146<293 732> 1171 293<439 585> 1171 146<293 439 585 1024> 1464 146<585 732>
VStem: 146 147<147 586 732 1171> 439 146<1317 1464> 585 147<1464 1610>
LayerCount: 2
Back
Fore
SplineSet
585 1537 m 1xe5
 585 1610 l 1
 659 1610 l 1
 732 1610 l 1
 732 1537 l 1
 732 1464 l 1
 659 1464 l 1xcd
 585 1464 l 1xe6
 585 1391 l 1
 585 1317 l 1xd6
 805 1317 l 1
 1024 1317 l 1
 1024 1244 l 1
 1024 1171 l 1
 658 1171 l 1
 293 1171 l 1
 293 951 l 1
 293 732 l 1
 512 732 l 1
 732 732 l 1
 732 659 l 1
 732 586 l 1
 512 586 l 1
 293 586 l 1
 293 366 l 1
 293 147 l 1
 658 147 l 1
 1024 147 l 1
 1024 74 l 1
 1024 1 l 1
 585 1 l 1xd5
 146 1 l 1
 146 659 l 1
 146 1317 l 1
 293 1317 l 1
 439 1317 l 1xd6
 439 1391 l 1
 439 1464 l 1
 512 1464 l 1
 585 1464 l 1xe6
 585 1537 l 1xe5
EndSplineSet
EndChar

StartChar: Ecircumflex
Encoding: 202 202 137
Width: 1170
VWidth: 0
Flags: W
HStem: 1 146<293 1024> 586 146<293 732> 1025 146<293 1024> 1317 147<293 439 732 878> 1464 146<439 732>
VStem: 146 147<147 586 732 1025> 293 146<1317 1464> 439 293<1464 1610> 732 146<1317 1464>
LayerCount: 2
Back
Fore
SplineSet
146 586 m 1xe480
 146 1171 l 1
 585 1171 l 1
 1024 1171 l 1
 1024 1098 l 1
 1024 1025 l 1
 658 1025 l 1
 293 1025 l 1
 293 878 l 1
 293 732 l 1
 512 732 l 1
 732 732 l 1
 732 659 l 1
 732 586 l 1
 512 586 l 1
 293 586 l 1
 293 366 l 1
 293 147 l 1
 658 147 l 1
 1024 147 l 1
 1024 74 l 1
 1024 1 l 1
 585 1 l 1
 146 1 l 1
 146 586 l 1xe480
439 1537 m 1xf1
 439 1610 l 1
 585 1610 l 1
 732 1610 l 1xe9
 732 1537 l 1
 732 1464 l 1xf1
 805 1464 l 1
 878 1464 l 1
 878 1391 l 1
 878 1317 l 1
 805 1317 l 1
 732 1317 l 1
 732 1391 l 1xf080
 732 1464 l 1xf1
 585 1464 l 1xe9
 439 1464 l 1
 439 1391 l 1
 439 1317 l 1
 366 1317 l 1
 293 1317 l 1
 293 1391 l 1
 293 1464 l 1
 366 1464 l 1
 439 1464 l 1xf2
 439 1537 l 1xf1
EndSplineSet
EndChar

StartChar: Edieresis
Encoding: 203 203 138
Width: 1170
VWidth: 0
Flags: W
HStem: 1 146<293 1024> 586 146<293 732> 1025 146<293 1024> 1317 293<293 439 732 878>
VStem: 146 147<147 586 732 1025> 293 146<1317 1610> 732 146<1317 1610>
LayerCount: 2
Back
Fore
SplineSet
146 586 m 1xfa
 146 1171 l 1
 585 1171 l 1
 1024 1171 l 1
 1024 1098 l 1
 1024 1025 l 1
 658 1025 l 1
 293 1025 l 1
 293 878 l 1
 293 732 l 1
 512 732 l 1
 732 732 l 1
 732 659 l 1
 732 586 l 1
 512 586 l 1
 293 586 l 1
 293 366 l 1
 293 147 l 1
 658 147 l 1
 1024 147 l 1
 1024 74 l 1
 1024 1 l 1
 585 1 l 1
 146 1 l 1
 146 586 l 1xfa
732 1464 m 1
 732 1610 l 1
 805 1610 l 1
 878 1610 l 1
 878 1464 l 1
 878 1317 l 1
 805 1317 l 1
 732 1317 l 1
 732 1464 l 1
293 1464 m 1xf6
 293 1610 l 1
 366 1610 l 1
 439 1610 l 1
 439 1464 l 1
 439 1317 l 1
 366 1317 l 1
 293 1317 l 1
 293 1464 l 1xf6
EndSplineSet
EndChar

StartChar: Igrave
Encoding: 204 204 139
Width: 1170
VWidth: 0
Flags: W
HStem: 1 146<293 439 585 732> 1025 146<293 439 585 732> 1317 147<439 585> 1464 146<293 439>
VStem: 293 439<1 147 1025 1171> 293 146<1464 1610> 439 146<147 1025 1317 1464>
LayerCount: 2
Back
Fore
SplineSet
293 1098 m 1xc8
 293 1171 l 1
 512 1171 l 1
 732 1171 l 1
 732 1098 l 1
 732 1025 l 1xc8
 659 1025 l 1
 585 1025 l 1
 585 586 l 1
 585 147 l 1xc2
 659 147 l 1
 732 147 l 1
 732 74 l 1
 732 1 l 1
 512 1 l 1
 293 1 l 1
 293 74 l 1
 293 147 l 1xc8
 366 147 l 1
 439 147 l 1
 439 586 l 1
 439 1025 l 1xc2
 366 1025 l 1
 293 1025 l 1
 293 1098 l 1xc8
293 1537 m 1xd4
 293 1610 l 1
 366 1610 l 1
 439 1610 l 1xd4
 439 1537 l 1
 439 1464 l 1xe4
 512 1464 l 1
 585 1464 l 1
 585 1391 l 1
 585 1317 l 1
 512 1317 l 1
 439 1317 l 1
 439 1391 l 1xe2
 439 1464 l 1xe4
 366 1464 l 1
 293 1464 l 1
 293 1537 l 1xd4
EndSplineSet
EndChar

StartChar: Iacute
Encoding: 205 205 140
Width: 1170
VWidth: 0
Flags: W
HStem: 1 146<293 439 585 732> 1025 146<293 439 585 732> 1317 147<439 585> 1464 146<585 732>
VStem: 293 439<1 147 1025 1171> 439 146<147 1025 1317 1464> 585 147<1464 1610>
LayerCount: 2
Back
Fore
SplineSet
293 1098 m 1xc8
 293 1171 l 1
 512 1171 l 1
 732 1171 l 1
 732 1098 l 1
 732 1025 l 1xc8
 659 1025 l 1
 585 1025 l 1
 585 586 l 1
 585 147 l 1xc4
 659 147 l 1
 732 147 l 1
 732 74 l 1
 732 1 l 1
 512 1 l 1
 293 1 l 1
 293 74 l 1
 293 147 l 1xc8
 366 147 l 1
 439 147 l 1
 439 586 l 1
 439 1025 l 1xc4
 366 1025 l 1
 293 1025 l 1
 293 1098 l 1xc8
585 1537 m 1xe2
 585 1610 l 1
 659 1610 l 1
 732 1610 l 1
 732 1537 l 1
 732 1464 l 1
 659 1464 l 1xd2
 585 1464 l 1
 585 1391 l 1
 585 1317 l 1
 512 1317 l 1
 439 1317 l 1
 439 1391 l 1
 439 1464 l 1
 512 1464 l 1
 585 1464 l 1xe4
 585 1537 l 1xe2
EndSplineSet
EndChar

StartChar: Icircumflex
Encoding: 206 206 141
Width: 1170
VWidth: 0
Flags: W
HStem: 1 146<293 439 585 732> 1025 146<293 439 585 732> 1317 147<293 439 732 878> 1464 146<439 732>
VStem: 293 146<1317 1464> 439 293<1464 1610> 439 146<147 1025> 732 146<1317 1464>
LayerCount: 2
Back
Fore
SplineSet
293 1098 m 1xc8
 293 1171 l 1xc8
 512 1171 l 1
 732 1171 l 1
 732 1098 l 1
 732 1025 l 1
 659 1025 l 1
 585 1025 l 1
 585 586 l 1
 585 147 l 1xc3
 659 147 l 1
 732 147 l 1
 732 74 l 1
 732 1 l 1
 512 1 l 1
 293 1 l 1
 293 74 l 1
 293 147 l 1xc9
 366 147 l 1
 439 147 l 1
 439 586 l 1
 439 1025 l 1xc2
 366 1025 l 1
 293 1025 l 1
 293 1098 l 1xc8
439 1537 m 1xe4
 439 1610 l 1xd4
 585 1610 l 1xd2
 732 1610 l 1xd4
 732 1537 l 1
 732 1464 l 1xe4
 805 1464 l 1
 878 1464 l 1
 878 1391 l 1
 878 1317 l 1
 805 1317 l 1
 732 1317 l 1
 732 1391 l 1xe1
 732 1464 l 1xe4
 585 1464 l 1xd2
 439 1464 l 1
 439 1391 l 1
 439 1317 l 1
 366 1317 l 1
 293 1317 l 1
 293 1391 l 1
 293 1464 l 1
 366 1464 l 1
 439 1464 l 1xe8
 439 1537 l 1xe4
EndSplineSet
EndChar

StartChar: Idieresis
Encoding: 207 207 142
Width: 1170
VWidth: 0
Flags: W
HStem: 1 146<293 439 585 732> 1025 146<293 439 585 732> 1317 293<146 293 732 878>
VStem: 146 147<1317 1610> 293 439<1 147 1025 1171> 439 146<147 1025> 732 146<1317 1610>
LayerCount: 2
Back
Fore
SplineSet
293 1098 m 1xe8
 293 1171 l 1
 512 1171 l 1
 732 1171 l 1
 732 1098 l 1
 732 1025 l 1xe8
 659 1025 l 1
 585 1025 l 1
 585 586 l 1
 585 147 l 1xe4
 659 147 l 1
 732 147 l 1
 732 74 l 1
 732 1 l 1
 512 1 l 1
 293 1 l 1
 293 74 l 1
 293 147 l 1xe8
 366 147 l 1
 439 147 l 1
 439 586 l 1
 439 1025 l 1xe4
 366 1025 l 1
 293 1025 l 1
 293 1098 l 1xe8
732 1464 m 1xe2
 732 1610 l 1
 805 1610 l 1
 878 1610 l 1
 878 1464 l 1
 878 1317 l 1
 805 1317 l 1
 732 1317 l 1
 732 1464 l 1xe2
146 1464 m 1xf0
 146 1610 l 1
 219 1610 l 1
 293 1610 l 1
 293 1464 l 1
 293 1317 l 1
 219 1317 l 1
 146 1317 l 1
 146 1464 l 1xf0
EndSplineSet
EndChar

StartChar: Eth
Encoding: 208 208 143
Width: 1170
VWidth: 0
Flags: W
HStem: 1 146<293 732> 147 146<732 878> 732 146<0 146 293 585> 1171 146<732 878> 1317 147<293 732>
VStem: 146 147<147 732 878 1317> 732 146<147 293 1171 1317> 878 146<293 1171>
LayerCount: 2
Back
Fore
SplineSet
146 1171 m 1xb6
 146 1464 l 1
 439 1464 l 1
 732 1464 l 1x2e
 732 1391 l 1
 732 1317 l 1
 805 1317 l 1
 878 1317 l 1
 878 1244 l 1
 878 1171 l 1x36
 951 1171 l 1
 1024 1171 l 1
 1024 732 l 1
 1024 293 l 1x75
 951 293 l 1
 878 293 l 1
 878 220 l 1
 878 147 l 1
 805 147 l 1x76
 732 147 l 1
 732 74 l 1
 732 1 l 1
 439 1 l 1
 146 1 l 1
 146 366 l 1
 146 732 l 1
 73 732 l 1
 0 732 l 1
 0 805 l 1
 0 878 l 1
 73 878 l 1
 146 878 l 1
 146 1171 l 1xb6
732 1244 m 1
 732 1317 l 1x76
 512 1317 l 1
 293 1317 l 1
 293 1098 l 1
 293 878 l 1
 439 878 l 1
 585 878 l 1
 585 805 l 1
 585 732 l 1
 439 732 l 1
 293 732 l 1
 293 440 l 1
 293 147 l 1
 512 147 l 1
 732 147 l 1xae
 732 220 l 1
 732 293 l 1
 805 293 l 1
 878 293 l 1x66
 878 732 l 1x65
 878 1171 l 1
 805 1171 l 1
 732 1171 l 1x76
 732 1244 l 1
EndSplineSet
EndChar

StartChar: Ntilde
Encoding: 209 209 144
Width: 1170
VWidth: 0
Flags: W
HStem: 1 292<732 878> 293 293<585 732> 586 292<439 585> 878 293<293 439> 1317 147<146 293 585 878> 1464 146<293 585 878 1024>
VStem: 146 293<878 1171> 146 147<1 878 1317 1464> 293 292<1464 1610> 439 146<586 878> 585 293<1317 1464> 585 147<293 586> 732 292<1 293> 878 146<293 1171 1464 1610>
LayerCount: 2
Back
Fore
SplineSet
146 586 m 1xa1
 146 1171 l 1x12
 293 1171 l 1x1080
 439 1171 l 1x12
 439 1025 l 1
 439 878 l 1x22
 512 878 l 1
 585 878 l 1x2040
 585 732 l 1
 585 586 l 1x4040
 659 586 l 1
 732 586 l 1x4010
 732 439 l 1
 732 293 l 1
 805 293 l 1
 878 293 l 1
 878 732 l 1
 878 1171 l 1
 951 1171 l 1
 1024 1171 l 1x9014
 1024 586 l 1x2014
 1024 1 l 1xa008
 878 1 l 1xa004
 732 1 l 1
 732 147 l 1xa008
 732 293 l 1xa010
 659 293 l 1
 585 293 l 1
 585 439 l 1x4010
 585 586 l 1x4040
 512 586 l 1
 439 586 l 1
 439 732 l 1x2040
 439 878 l 1x22
 366 878 l 1
 293 878 l 1x11
 293 440 l 1
 293 1 l 1
 219 1 l 1
 146 1 l 1
 146 586 l 1xa1
293 1537 m 1x0880
 293 1610 l 1x0480
 439 1610 l 1x0440
 585 1610 l 1x0480
 585 1537 l 1
 585 1464 l 1
 732 1464 l 1x0888
 878 1464 l 1x0820
 878 1537 l 1
 878 1610 l 1
 951 1610 l 1
 1024 1610 l 1
 1024 1537 l 1
 1024 1464 l 1
 951 1464 l 1x0404
 878 1464 l 1
 878 1391 l 1
 878 1317 l 1x0820
 732 1317 l 1x0808
 585 1317 l 1
 585 1391 l 1x0820
 585 1464 l 1x0880
 439 1464 l 1x0440
 293 1464 l 1
 293 1391 l 1
 293 1317 l 1
 219 1317 l 1
 146 1317 l 1
 146 1391 l 1
 146 1464 l 1
 219 1464 l 1
 293 1464 l 1x0940
 293 1537 l 1x0880
EndSplineSet
EndChar

StartChar: Ograve
Encoding: 210 210 145
Width: 1170
VWidth: 0
Flags: W
HStem: 1 146<293 878> 1171 293<585 732> 1171 146<293 585 732 878> 1464 146<439 585>
VStem: 146 147<147 1171> 439 146<1464 1610> 585 147<1317 1464> 878 146<147 1171>
LayerCount: 2
Back
Fore
SplineSet
439 1537 m 1x9d
 439 1610 l 1
 512 1610 l 1
 585 1610 l 1x9d
 585 1537 l 1
 585 1464 l 1xcd
 659 1464 l 1
 732 1464 l 1xcb
 732 1391 l 1
 732 1317 l 1
 805 1317 l 1
 878 1317 l 1
 878 1244 l 1
 878 1171 l 1
 951 1171 l 1
 1024 1171 l 1
 1024 659 l 1
 1024 147 l 1
 951 147 l 1
 878 147 l 1
 878 74 l 1
 878 1 l 1
 585 1 l 1xab
 293 1 l 1
 293 74 l 1
 293 147 l 1
 219 147 l 1
 146 147 l 1
 146 659 l 1
 146 1171 l 1
 219 1171 l 1
 293 1171 l 1
 293 1244 l 1
 293 1317 l 1
 439 1317 l 1xad
 585 1317 l 1
 585 1391 l 1xab
 585 1464 l 1xcd
 512 1464 l 1
 439 1464 l 1
 439 1537 l 1x9d
878 659 m 1
 878 1171 l 1xab
 585 1171 l 1xcb
 293 1171 l 1
 293 659 l 1
 293 147 l 1
 585 147 l 1xab
 878 147 l 1
 878 659 l 1
EndSplineSet
EndChar

StartChar: Oacute
Encoding: 211 211 146
Width: 1170
VWidth: 0
Flags: W
HStem: 1 146<293 878> 1171 293<439 585> 1171 146<293 439 585 878> 1464 146<585 732>
VStem: 146 147<147 1171> 439 146<1317 1464> 585 147<1464 1610> 878 146<147 1171>
LayerCount: 2
Back
Fore
SplineSet
585 1537 m 1xcb
 585 1610 l 1
 659 1610 l 1
 732 1610 l 1
 732 1537 l 1
 732 1464 l 1
 659 1464 l 1x9b
 585 1464 l 1xcd
 585 1391 l 1
 585 1317 l 1xad
 732 1317 l 1
 878 1317 l 1
 878 1244 l 1
 878 1171 l 1
 951 1171 l 1
 1024 1171 l 1
 1024 659 l 1
 1024 147 l 1
 951 147 l 1
 878 147 l 1
 878 74 l 1
 878 1 l 1
 585 1 l 1xab
 293 1 l 1
 293 74 l 1
 293 147 l 1
 219 147 l 1
 146 147 l 1
 146 659 l 1
 146 1171 l 1
 219 1171 l 1
 293 1171 l 1
 293 1244 l 1
 293 1317 l 1
 366 1317 l 1
 439 1317 l 1xad
 439 1391 l 1
 439 1464 l 1
 512 1464 l 1
 585 1464 l 1xcd
 585 1537 l 1xcb
878 659 m 1
 878 1171 l 1xab
 585 1171 l 1xcb
 293 1171 l 1xab
 293 659 l 1
 293 147 l 1
 585 147 l 1
 878 147 l 1
 878 659 l 1
EndSplineSet
EndChar

StartChar: Ocircumflex
Encoding: 212 212 147
Width: 1170
VWidth: 0
Flags: W
HStem: 1 146<293 878> 1025 146<293 878> 1317 147<293 439 732 878> 1464 146<439 732>
VStem: 146 147<147 1025> 293 146<1317 1464> 439 293<1464 1610> 732 146<1317 1464> 878 146<147 1025>
LayerCount: 2
Back
Fore
SplineSet
293 1098 m 1xc4
 293 1171 l 1
 585 1171 l 1
 878 1171 l 1
 878 1098 l 1
 878 1025 l 1
 951 1025 l 1
 1024 1025 l 1
 1024 586 l 1
 1024 147 l 1
 951 147 l 1
 878 147 l 1
 878 74 l 1
 878 1 l 1
 585 1 l 1
 293 1 l 1
 293 74 l 1xc480
 293 147 l 1
 219 147 l 1
 146 147 l 1
 146 586 l 1
 146 1025 l 1
 219 1025 l 1
 293 1025 l 1xc8
 293 1098 l 1xc4
878 586 m 1
 878 1025 l 1
 585 1025 l 1
 293 1025 l 1
 293 586 l 1
 293 147 l 1xc880
 585 147 l 1
 878 147 l 1
 878 586 l 1
439 1537 m 1xe2
 439 1610 l 1
 585 1610 l 1
 732 1610 l 1xd2
 732 1537 l 1
 732 1464 l 1xe2
 805 1464 l 1
 878 1464 l 1
 878 1391 l 1
 878 1317 l 1
 805 1317 l 1
 732 1317 l 1
 732 1391 l 1xe1
 732 1464 l 1xe2
 585 1464 l 1xd2
 439 1464 l 1
 439 1391 l 1
 439 1317 l 1
 366 1317 l 1
 293 1317 l 1
 293 1391 l 1
 293 1464 l 1
 366 1464 l 1
 439 1464 l 1xe4
 439 1537 l 1xe2
EndSplineSet
EndChar

StartChar: Otilde
Encoding: 213 213 148
Width: 1170
VWidth: 0
Flags: W
HStem: 1 146<293 878> 1025 146<293 878> 1317 147<146 293 585 878> 1464 146<293 585 878 1024>
VStem: 146 147<147 1025 1317 1464> 293 292<1464 1610> 585 293<1317 1464> 878 146<147 1025 1464 1610>
LayerCount: 2
Back
Fore
SplineSet
293 1098 m 1xc4
 293 1171 l 1xc4
 585 1171 l 1xc2
 878 1171 l 1
 878 1098 l 1
 878 1025 l 1
 951 1025 l 1
 1024 1025 l 1
 1024 586 l 1
 1024 147 l 1
 951 147 l 1
 878 147 l 1
 878 74 l 1
 878 1 l 1xc1
 585 1 l 1xc2
 293 1 l 1
 293 74 l 1xc4
 293 147 l 1
 219 147 l 1
 146 147 l 1
 146 586 l 1
 146 1025 l 1
 219 1025 l 1
 293 1025 l 1xc8
 293 1098 l 1xc4
878 586 m 1xc1
 878 1025 l 1xc1
 585 1025 l 1
 293 1025 l 1
 293 586 l 1
 293 147 l 1
 585 147 l 1xca
 878 147 l 1
 878 586 l 1xc1
293 1537 m 1xe4
 293 1610 l 1
 439 1610 l 1
 585 1610 l 1xd4
 585 1537 l 1
 585 1464 l 1xe4
 732 1464 l 1
 878 1464 l 1xe2
 878 1537 l 1
 878 1610 l 1
 951 1610 l 1
 1024 1610 l 1
 1024 1537 l 1
 1024 1464 l 1
 951 1464 l 1xd1
 878 1464 l 1
 878 1391 l 1
 878 1317 l 1
 732 1317 l 1
 585 1317 l 1
 585 1391 l 1xe2
 585 1464 l 1xe4
 439 1464 l 1xd4
 293 1464 l 1
 293 1391 l 1
 293 1317 l 1
 219 1317 l 1
 146 1317 l 1
 146 1391 l 1
 146 1464 l 1
 219 1464 l 1
 293 1464 l 1xe8
 293 1537 l 1xe4
EndSplineSet
EndChar

StartChar: Odieresis
Encoding: 214 214 149
Width: 1170
VWidth: 0
Flags: W
HStem: 1 146<293 878> 1025 146<293 878> 1317 293<293 439 732 878>
VStem: 146 147<147 1025> 293 146<1317 1610> 732 146<1317 1610> 878 146<147 1025>
LayerCount: 2
Back
Fore
SplineSet
293 1098 m 1xe8
 293 1171 l 1
 585 1171 l 1
 878 1171 l 1
 878 1098 l 1
 878 1025 l 1
 951 1025 l 1
 1024 1025 l 1
 1024 586 l 1
 1024 147 l 1
 951 147 l 1
 878 147 l 1
 878 74 l 1
 878 1 l 1
 585 1 l 1
 293 1 l 1
 293 74 l 1xea
 293 147 l 1
 219 147 l 1
 146 147 l 1
 146 586 l 1
 146 1025 l 1
 219 1025 l 1
 293 1025 l 1xf0
 293 1098 l 1xe8
878 586 m 1
 878 1025 l 1
 585 1025 l 1
 293 1025 l 1
 293 586 l 1
 293 147 l 1xf2
 585 147 l 1
 878 147 l 1
 878 586 l 1
732 1464 m 1xe4
 732 1610 l 1
 805 1610 l 1
 878 1610 l 1
 878 1464 l 1
 878 1317 l 1
 805 1317 l 1
 732 1317 l 1
 732 1464 l 1xe4
293 1464 m 1xe8
 293 1610 l 1
 366 1610 l 1
 439 1610 l 1
 439 1464 l 1
 439 1317 l 1
 366 1317 l 1
 293 1317 l 1
 293 1464 l 1xe8
EndSplineSet
EndChar

StartChar: multiply
Encoding: 215 215 150
Width: 1170
VWidth: 0
Flags: W
HStem: 147 146<146 293 878 1024> 293 146<293 439 732 878> 439 147<439 732> 586 146<293 439 732 878> 732 146<146 293 878 1024>
VStem: 146 147<147 293 732 878> 293 146<293 439 586 732> 439 293<439 586> 732 146<293 439 586 732> 878 146<147 293 732 878>
LayerCount: 2
Back
Fore
SplineSet
146 805 m 1x0c
 146 878 l 1
 219 878 l 1
 293 878 l 1x0c
 293 805 l 1
 293 732 l 1x14
 366 732 l 1
 439 732 l 1x12
 439 659 l 1
 439 586 l 1x22
 585 586 l 1
 732 586 l 1x21
 732 659 l 1
 732 732 l 1
 805 732 l 1
 878 732 l 1x1080
 878 805 l 1
 878 878 l 1
 951 878 l 1
 1024 878 l 1
 1024 805 l 1
 1024 732 l 1
 951 732 l 1x0840
 878 732 l 1
 878 659 l 1
 878 586 l 1
 805 586 l 1x1080
 732 586 l 1x21
 732 513 l 1
 732 439 l 1x41
 805 439 l 1
 878 439 l 1x4080
 878 366 l 1
 878 293 l 1x8080
 951 293 l 1
 1024 293 l 1
 1024 220 l 1
 1024 147 l 1
 951 147 l 1
 878 147 l 1
 878 220 l 1x8040
 878 293 l 1x8080
 805 293 l 1
 732 293 l 1
 732 366 l 1x4080
 732 439 l 1x41
 585 439 l 1x21
 439 439 l 1
 439 366 l 1
 439 293 l 1
 366 293 l 1x42
 293 293 l 1
 293 220 l 1
 293 147 l 1
 219 147 l 1
 146 147 l 1
 146 220 l 1
 146 293 l 1
 219 293 l 1
 293 293 l 1x84
 293 366 l 1
 293 439 l 1
 366 439 l 1
 439 439 l 1x42
 439 513 l 1x41
 439 586 l 1x22
 366 586 l 1
 293 586 l 1
 293 659 l 1x12
 293 732 l 1x14
 219 732 l 1
 146 732 l 1
 146 805 l 1x0c
EndSplineSet
EndChar

StartChar: Oslash
Encoding: 216 216 151
Width: 1170
VWidth: 0
Flags: W
HStem: -145 292<146 293> 1 146<439 878> 147 292<293 439> 439 293<439 585> 732 293<585 732> 1025 292<732 878> 1317 293<878 1024> 1317 147<293 732>
VStem: 146 147<-145 147 439 1317> 293 146<147 293> 439 146<439 732> 585 147<732 1025> 732 146<1171 1317> 878 146<147 1025 1317 1610>
LayerCount: 2
Back
Fore
SplineSet
585 878 m 1x1010
 585 1025 l 1
 659 1025 l 1
 732 1025 l 1
 732 878 l 1
 732 732 l 1
 659 732 l 1x0810
 585 732 l 1
 585 586 l 1
 585 439 l 1
 512 439 l 1x1020
 439 439 l 1x2020
 439 586 l 1
 439 732 l 1
 512 732 l 1
 585 732 l 1x1020
 585 878 l 1x1010
878 1464 m 1x0104
 878 1610 l 1
 951 1610 l 1
 1024 1610 l 1x0204
 1024 1464 l 1x0104
 1024 1317 l 1
 951 1317 l 1x0204
 878 1317 l 1
 878 1244 l 1
 878 1171 l 1x0408
 951 1171 l 1
 1024 1171 l 1
 1024 659 l 1
 1024 147 l 1
 951 147 l 1x2404
 878 147 l 1
 878 74 l 1
 878 1 l 1
 659 1 l 1
 439 1 l 1
 439 74 l 1x4024
 439 147 l 1x4040
 366 147 l 1x2040
 293 147 l 1x8080
 293 1 l 1x4080
 293 -145 l 1
 219 -145 l 1
 146 -145 l 1x8080
 146 1 l 1x4080
 146 147 l 1
 219 147 l 1
 293 147 l 1x8080
 293 220 l 1
 293 293 l 1x8040
 219 293 l 1
 146 293 l 1
 146 805 l 1
 146 1317 l 1
 219 1317 l 1
 293 1317 l 1x8180
 293 1391 l 1
 293 1464 l 1
 512 1464 l 1
 732 1464 l 1x8148
 732 1391 l 1
 732 1317 l 1
 805 1317 l 1
 878 1317 l 1x0448
 878 1464 l 1x0104
732 1171 m 1x0808
 732 1317 l 1x0408
 512 1317 l 1
 293 1317 l 1
 293 878 l 1
 293 439 l 1
 366 439 l 1
 439 439 l 1x21a8
 439 293 l 1
 439 147 l 1
 659 147 l 1
 878 147 l 1
 878 586 l 1
 878 1025 l 1
 805 1025 l 1x4444
 732 1025 l 1x0854
 732 1171 l 1x0808
EndSplineSet
EndChar

StartChar: Ugrave
Encoding: 217 217 152
Width: 1170
VWidth: 0
Flags: W
HStem: 1 146<293 878> 1297 20G<146 293 878 1024> 1317 147<585 732> 1464 146<439 585>
VStem: 146 147<147 1317> 439 146<1464 1610> 585 147<1317 1464> 878 146<147 1317>
LayerCount: 2
Back
Fore
SplineSet
146 732 m 1xcb
 146 1317 l 1
 219 1317 l 1
 293 1317 l 1
 293 732 l 1
 293 147 l 1
 585 147 l 1
 878 147 l 1
 878 732 l 1
 878 1317 l 1
 951 1317 l 1
 1024 1317 l 1
 1024 732 l 1
 1024 147 l 1
 951 147 l 1
 878 147 l 1
 878 74 l 1
 878 1 l 1
 585 1 l 1
 293 1 l 1
 293 74 l 1
 293 147 l 1
 219 147 l 1
 146 147 l 1
 146 732 l 1xcb
439 1537 m 1x9d
 439 1610 l 1
 512 1610 l 1
 585 1610 l 1x9d
 585 1537 l 1
 585 1464 l 1xad
 659 1464 l 1
 732 1464 l 1
 732 1391 l 1
 732 1317 l 1
 659 1317 l 1
 585 1317 l 1
 585 1391 l 1xab
 585 1464 l 1xad
 512 1464 l 1
 439 1464 l 1
 439 1537 l 1x9d
EndSplineSet
EndChar

StartChar: Uacute
Encoding: 218 218 153
Width: 1170
VWidth: 0
Flags: W
HStem: 1 146<293 878> 1297 20G<146 293 878 1024> 1317 147<439 585> 1464 146<585 732>
VStem: 146 147<147 1317> 439 146<1317 1464> 585 147<1464 1610> 878 146<147 1317>
LayerCount: 2
Back
Fore
SplineSet
146 732 m 1xcb
 146 1317 l 1
 219 1317 l 1
 293 1317 l 1
 293 732 l 1
 293 147 l 1
 585 147 l 1
 878 147 l 1
 878 732 l 1
 878 1317 l 1
 951 1317 l 1
 1024 1317 l 1
 1024 732 l 1
 1024 147 l 1
 951 147 l 1
 878 147 l 1
 878 74 l 1
 878 1 l 1
 585 1 l 1
 293 1 l 1
 293 74 l 1
 293 147 l 1
 219 147 l 1
 146 147 l 1
 146 732 l 1xcb
585 1537 m 1
 585 1610 l 1
 659 1610 l 1
 732 1610 l 1
 732 1537 l 1
 732 1464 l 1
 659 1464 l 1x9b
 585 1464 l 1
 585 1391 l 1
 585 1317 l 1
 512 1317 l 1
 439 1317 l 1
 439 1391 l 1
 439 1464 l 1
 512 1464 l 1
 585 1464 l 1xad
 585 1537 l 1
EndSplineSet
EndChar

StartChar: Ucircumflex
Encoding: 219 219 154
Width: 1170
VWidth: 0
Flags: W
HStem: 1 146<293 878> 1317 147<293 439 732 878> 1464 146<439 732>
VStem: 146 147<147 1171> 293 146<1317 1464> 439 293<1464 1610> 732 146<1317 1464> 878 146<147 1171>
LayerCount: 2
Back
Fore
SplineSet
146 659 m 1x90
 146 1171 l 1
 219 1171 l 1
 293 1171 l 1
 293 659 l 1
 293 147 l 1x90
 585 147 l 1
 878 147 l 1
 878 659 l 1
 878 1171 l 1
 951 1171 l 1
 1024 1171 l 1
 1024 659 l 1
 1024 147 l 1
 951 147 l 1
 878 147 l 1
 878 74 l 1
 878 1 l 1
 585 1 l 1
 293 1 l 1
 293 74 l 1x89
 293 147 l 1
 219 147 l 1
 146 147 l 1
 146 659 l 1x90
439 1537 m 1xc4
 439 1610 l 1
 585 1610 l 1
 732 1610 l 1xa4
 732 1537 l 1
 732 1464 l 1xc4
 805 1464 l 1
 878 1464 l 1
 878 1391 l 1
 878 1317 l 1
 805 1317 l 1
 732 1317 l 1
 732 1391 l 1xc2
 732 1464 l 1xc4
 585 1464 l 1xa4
 439 1464 l 1
 439 1391 l 1
 439 1317 l 1
 366 1317 l 1
 293 1317 l 1
 293 1391 l 1
 293 1464 l 1
 366 1464 l 1
 439 1464 l 1xc8
 439 1537 l 1xc4
EndSplineSet
EndChar

StartChar: Udieresis
Encoding: 220 220 155
Width: 1170
VWidth: 0
Flags: W
HStem: 1 146<293 878> 1317 293<293 439 732 878>
VStem: 146 147<147 1171> 293 146<1317 1610> 732 146<1317 1610> 878 146<147 1171>
LayerCount: 2
Back
Fore
SplineSet
146 659 m 1xe0
 146 1171 l 1
 219 1171 l 1
 293 1171 l 1
 293 659 l 1
 293 147 l 1xe0
 585 147 l 1
 878 147 l 1
 878 659 l 1
 878 1171 l 1
 951 1171 l 1
 1024 1171 l 1
 1024 659 l 1
 1024 147 l 1
 951 147 l 1
 878 147 l 1
 878 74 l 1
 878 1 l 1
 585 1 l 1
 293 1 l 1
 293 74 l 1xd4
 293 147 l 1
 219 147 l 1
 146 147 l 1
 146 659 l 1xe0
732 1464 m 1xc8
 732 1610 l 1
 805 1610 l 1
 878 1610 l 1
 878 1464 l 1
 878 1317 l 1
 805 1317 l 1
 732 1317 l 1
 732 1464 l 1xc8
293 1464 m 1xd0
 293 1610 l 1
 366 1610 l 1
 439 1610 l 1
 439 1464 l 1
 439 1317 l 1
 366 1317 l 1
 293 1317 l 1
 293 1464 l 1xd0
EndSplineSet
EndChar

StartChar: Yacute
Encoding: 221 221 156
Width: 1170
VWidth: 0
Flags: W
HStem: 1 21G<439 585> 586 146<293 439 585 732> 732 293<146 293 732 878> 1025 292<0 146 878 1024> 1317 147<439 585> 1464 146<585 732>
VStem: 0 146<1025 1317> 146 147<732 1025> 293 146<586 732> 439 146<1 586 1317 1464> 585 147<586 732 1464 1610> 732 146<732 1025> 878 146<1025 1317>
LayerCount: 2
Back
Fore
SplineSet
0 1171 m 1x92
 0 1317 l 1
 73 1317 l 1
 146 1317 l 1x92
 146 1171 l 1
 146 1025 l 1xa2
 219 1025 l 1
 293 1025 l 1xa1
 293 878 l 1
 293 732 l 1xc1
 366 732 l 1
 439 732 l 1
 439 659 l 1
 439 586 l 1xc080
 512 586 l 1
 585 586 l 1xc040
 585 659 l 1
 585 732 l 1
 659 732 l 1
 732 732 l 1xc020
 732 878 l 1
 732 1025 l 1
 805 1025 l 1
 878 1025 l 1xa010
 878 1171 l 1
 878 1317 l 1
 951 1317 l 1
 1024 1317 l 1
 1024 1171 l 1
 1024 1025 l 1
 951 1025 l 1x9008
 878 1025 l 1
 878 878 l 1
 878 732 l 1
 805 732 l 1xa010
 732 732 l 1
 732 659 l 1
 732 586 l 1xc020
 659 586 l 1
 585 586 l 1
 585 293 l 1
 585 1 l 1
 512 1 l 1
 439 1 l 1
 439 293 l 1xc040
 439 586 l 1
 366 586 l 1
 293 586 l 1
 293 659 l 1xc080
 293 732 l 1xc1
 219 732 l 1
 146 732 l 1
 146 878 l 1xa1
 146 1025 l 1xa2
 73 1025 l 1
 0 1025 l 1
 0 1171 l 1x92
585 1537 m 1x8820
 585 1610 l 1
 659 1610 l 1
 732 1610 l 1
 732 1537 l 1
 732 1464 l 1
 659 1464 l 1x8420
 585 1464 l 1
 585 1391 l 1
 585 1317 l 1
 512 1317 l 1
 439 1317 l 1
 439 1391 l 1
 439 1464 l 1
 512 1464 l 1
 585 1464 l 1x8840
 585 1537 l 1x8820
EndSplineSet
EndChar

StartChar: Thorn
Encoding: 222 222 157
Width: 1170
VWidth: 0
Flags: W
HStem: 1 21G<146 293> 293 146<293 878> 1025 146<293 878> 1444 20G<146 293>
VStem: 146 147<1 293 439 1025 1171 1464> 878 146<439 1025>
LayerCount: 2
Back
Fore
SplineSet
146 732 m 1
 146 1464 l 1
 219 1464 l 1
 293 1464 l 1
 293 1317 l 1
 293 1171 l 1
 585 1171 l 1
 878 1171 l 1
 878 1098 l 1
 878 1025 l 1
 951 1025 l 1
 1024 1025 l 1
 1024 732 l 1
 1024 439 l 1
 951 439 l 1
 878 439 l 1
 878 366 l 1
 878 293 l 1
 585 293 l 1
 293 293 l 1
 293 147 l 1
 293 1 l 1
 219 1 l 1
 146 1 l 1
 146 732 l 1
878 732 m 1
 878 1025 l 1
 585 1025 l 1
 293 1025 l 1
 293 732 l 1
 293 439 l 1
 585 439 l 1
 878 439 l 1
 878 732 l 1
EndSplineSet
EndChar

StartChar: germandbls
Encoding: 223 223 158
Width: 1170
VWidth: 0
Flags: W
HStem: 1 146<439 878> 147 146<293 439> 732 293<585 732> 732 146<293 585 732 878> 1025 292<732 878> 1317 147<293 732>
VStem: 146 293<147 293> 146 147<1 147 293 732 878 1317> 585 147<878 1025> 732 146<1025 1317> 878 146<147 732>
LayerCount: 2
Back
Fore
SplineSet
293 1391 m 1x85
 293 1464 l 1
 512 1464 l 1
 732 1464 l 1x8540
 732 1391 l 1
 732 1317 l 1
 805 1317 l 1
 878 1317 l 1
 878 1171 l 1
 878 1025 l 1
 805 1025 l 1x0940
 732 1025 l 1x2080
 732 951 l 1
 732 878 l 1
 805 878 l 1
 878 878 l 1
 878 805 l 1
 878 732 l 1
 951 732 l 1
 1024 732 l 1
 1024 440 l 1
 1024 147 l 1
 951 147 l 1x50a0
 878 147 l 1
 878 74 l 1
 878 1 l 1
 659 1 l 1
 439 1 l 1
 439 74 l 1
 439 147 l 1x82a0
 366 147 l 1
 293 147 l 1x41
 293 74 l 1
 293 1 l 1
 219 1 l 1
 146 1 l 1
 146 659 l 1
 146 1317 l 1
 219 1317 l 1
 293 1317 l 1
 293 1391 l 1x85
732 1171 m 1
 732 1317 l 1x0840
 512 1317 l 1
 293 1317 l 1
 293 1098 l 1
 293 878 l 1x1540
 439 878 l 1
 585 878 l 1x1680
 585 951 l 1
 585 1025 l 1
 659 1025 l 1
 732 1025 l 1x2280
 732 1171 l 1
878 440 m 1x8220
 878 732 l 1x9220
 585 732 l 1x22a0
 293 732 l 1
 293 513 l 1
 293 293 l 1x51a0
 366 293 l 1
 439 293 l 1x52
 439 220 l 1
 439 147 l 1
 659 147 l 1
 878 147 l 1
 878 440 l 1x8220
EndSplineSet
EndChar

StartChar: agrave
Encoding: 224 224 159
Width: 1170
VWidth: 0
Flags: W
HStem: 1 146<293 732> 147 146<732 878> 586 146<293 878> 878 147<293 878> 1171 146<585 732> 1317 147<439 585>
VStem: 146 147<147 586> 439 146<1317 1464> 585 147<1171 1317> 732 292<147 293> 878 146<1 147 293 586 732 878>
LayerCount: 2
Back
Fore
SplineSet
293 951 m 1x72a0
 293 1025 l 1
 585 1025 l 1
 878 1025 l 1
 878 951 l 1
 878 878 l 1
 951 878 l 1
 1024 878 l 1
 1024 440 l 1
 1024 1 l 1
 951 1 l 1
 878 1 l 1xb2a0
 878 74 l 1
 878 147 l 1
 805 147 l 1x72a0
 732 147 l 1
 732 74 l 1
 732 1 l 1
 512 1 l 1
 293 1 l 1
 293 74 l 1
 293 147 l 1xb240
 219 147 l 1
 146 147 l 1
 146 366 l 1
 146 586 l 1
 219 586 l 1
 293 586 l 1
 293 659 l 1
 293 732 l 1
 585 732 l 1
 878 732 l 1
 878 805 l 1
 878 878 l 1
 585 878 l 1
 293 878 l 1
 293 951 l 1x72a0
878 439 m 1
 878 586 l 1
 585 586 l 1x72a0
 293 586 l 1
 293 366 l 1
 293 147 l 1
 512 147 l 1
 732 147 l 1xb240
 732 220 l 1
 732 293 l 1x7240
 805 293 l 1
 878 293 l 1x7220
 878 439 l 1
439 1391 m 1x37
 439 1464 l 1
 512 1464 l 1
 585 1464 l 1x37
 585 1391 l 1
 585 1317 l 1x3b
 659 1317 l 1
 732 1317 l 1
 732 1244 l 1
 732 1171 l 1
 659 1171 l 1
 585 1171 l 1
 585 1244 l 1x3a80
 585 1317 l 1x3b
 512 1317 l 1
 439 1317 l 1
 439 1391 l 1x37
EndSplineSet
EndChar

StartChar: aacute
Encoding: 225 225 160
Width: 1170
VWidth: 0
Flags: W
HStem: 1 146<293 732> 147 146<732 878> 586 146<293 878> 878 147<293 878> 1171 146<439 585> 1317 147<585 732>
VStem: 146 147<147 586> 439 146<1171 1317> 585 147<1317 1464> 732 292<147 293> 878 146<1 147 293 586 732 878>
LayerCount: 2
Back
Fore
SplineSet
293 951 m 1x72a0
 293 1025 l 1
 585 1025 l 1
 878 1025 l 1
 878 951 l 1
 878 878 l 1
 951 878 l 1
 1024 878 l 1
 1024 440 l 1
 1024 1 l 1
 951 1 l 1
 878 1 l 1xb2a0
 878 74 l 1
 878 147 l 1
 805 147 l 1x72a0
 732 147 l 1
 732 74 l 1
 732 1 l 1
 512 1 l 1
 293 1 l 1
 293 74 l 1
 293 147 l 1xb240
 219 147 l 1
 146 147 l 1
 146 366 l 1
 146 586 l 1
 219 586 l 1
 293 586 l 1
 293 659 l 1
 293 732 l 1
 585 732 l 1
 878 732 l 1
 878 805 l 1
 878 878 l 1
 585 878 l 1
 293 878 l 1
 293 951 l 1x72a0
878 439 m 1
 878 586 l 1
 585 586 l 1x72a0
 293 586 l 1
 293 366 l 1
 293 147 l 1
 512 147 l 1
 732 147 l 1xb240
 732 220 l 1
 732 293 l 1x7240
 805 293 l 1
 878 293 l 1x7220
 878 439 l 1
585 1391 m 1
 585 1464 l 1
 659 1464 l 1
 732 1464 l 1
 732 1391 l 1
 732 1317 l 1
 659 1317 l 1x3680
 585 1317 l 1
 585 1244 l 1
 585 1171 l 1
 512 1171 l 1
 439 1171 l 1
 439 1244 l 1
 439 1317 l 1
 512 1317 l 1
 585 1317 l 1x3b
 585 1391 l 1
EndSplineSet
EndChar

StartChar: acircumflex
Encoding: 226 226 161
Width: 1170
VWidth: 0
Flags: W
HStem: 1 146<293 732> 147 146<732 878> 586 146<293 878> 878 147<293 878> 1171 146<293 439 732 878> 1317 147<439 732>
VStem: 146 147<147 586> 293 146<1171 1317> 439 293<1317 1464> 732 146<1171 1317> 878 146<1 147 293 586 732 878>
LayerCount: 2
Back
Fore
SplineSet
293 951 m 1x7120
 293 1025 l 1
 585 1025 l 1
 878 1025 l 1
 878 951 l 1
 878 878 l 1
 951 878 l 1
 1024 878 l 1
 1024 440 l 1
 1024 1 l 1
 951 1 l 1
 878 1 l 1xb120
 878 74 l 1
 878 147 l 1
 805 147 l 1x7120
 732 147 l 1
 732 74 l 1
 732 1 l 1
 512 1 l 1
 293 1 l 1
 293 74 l 1xb140
 293 147 l 1xb2
 219 147 l 1
 146 147 l 1
 146 366 l 1
 146 586 l 1
 219 586 l 1
 293 586 l 1x72
 293 659 l 1
 293 732 l 1
 585 732 l 1
 878 732 l 1
 878 805 l 1
 878 878 l 1
 585 878 l 1
 293 878 l 1
 293 951 l 1x7120
878 439 m 1
 878 586 l 1x7020
 585 586 l 1
 293 586 l 1
 293 366 l 1
 293 147 l 1
 512 147 l 1
 732 147 l 1xb240
 732 220 l 1
 732 293 l 1x7240
 805 293 l 1
 878 293 l 1x7020
 878 439 l 1
439 1391 m 1x3880
 439 1464 l 1
 585 1464 l 1
 732 1464 l 1x3480
 732 1391 l 1
 732 1317 l 1x3880
 805 1317 l 1
 878 1317 l 1
 878 1244 l 1
 878 1171 l 1
 805 1171 l 1
 732 1171 l 1
 732 1244 l 1x3840
 732 1317 l 1x3880
 585 1317 l 1x3480
 439 1317 l 1
 439 1244 l 1
 439 1171 l 1
 366 1171 l 1
 293 1171 l 1
 293 1244 l 1
 293 1317 l 1
 366 1317 l 1
 439 1317 l 1x39
 439 1391 l 1x3880
EndSplineSet
EndChar

StartChar: atilde
Encoding: 227 227 162
Width: 1170
VWidth: 0
Flags: W
HStem: 1 146<293 732> 147 146<732 878> 586 146<293 878> 878 147<293 878> 1171 146<146 293 585 878> 1317 147<293 585 878 1024>
VStem: 146 147<147 586 1171 1317> 293 292<1317 1464> 585 293<1171 1317> 732 292<147 293> 878 146<1 147 293 586 732 878 1317 1464>
LayerCount: 2
Back
Fore
SplineSet
293 951 m 1x71
 293 1025 l 1x71
 585 1025 l 1x7080
 878 1025 l 1
 878 951 l 1
 878 878 l 1
 951 878 l 1
 1024 878 l 1
 1024 440 l 1
 1024 1 l 1
 951 1 l 1
 878 1 l 1xb020
 878 74 l 1
 878 147 l 1
 805 147 l 1x7020
 732 147 l 1
 732 74 l 1
 732 1 l 1
 512 1 l 1
 293 1 l 1
 293 74 l 1xb140
 293 147 l 1xb2
 219 147 l 1
 146 147 l 1
 146 366 l 1
 146 586 l 1
 219 586 l 1
 293 586 l 1x72
 293 659 l 1
 293 732 l 1x71
 585 732 l 1x7080
 878 732 l 1
 878 805 l 1
 878 878 l 1x7020
 585 878 l 1x7080
 293 878 l 1
 293 951 l 1x71
878 439 m 1x7020
 878 586 l 1x7020
 585 586 l 1x7080
 293 586 l 1
 293 366 l 1
 293 147 l 1
 512 147 l 1
 732 147 l 1xb240
 732 220 l 1
 732 293 l 1x7240
 805 293 l 1
 878 293 l 1
 878 439 l 1x7020
293 1391 m 1x39
 293 1464 l 1
 439 1464 l 1
 585 1464 l 1x35
 585 1391 l 1
 585 1317 l 1
 732 1317 l 1x3940
 878 1317 l 1x3880
 878 1391 l 1
 878 1464 l 1
 951 1464 l 1
 1024 1464 l 1
 1024 1391 l 1
 1024 1317 l 1
 951 1317 l 1x3420
 878 1317 l 1
 878 1244 l 1
 878 1171 l 1x3880
 732 1171 l 1x3840
 585 1171 l 1
 585 1244 l 1x3880
 585 1317 l 1x39
 439 1317 l 1x35
 293 1317 l 1
 293 1244 l 1
 293 1171 l 1
 219 1171 l 1
 146 1171 l 1
 146 1244 l 1
 146 1317 l 1
 219 1317 l 1
 293 1317 l 1x3a
 293 1391 l 1x39
EndSplineSet
EndChar

StartChar: adieresis
Encoding: 228 228 163
Width: 1170
VWidth: 0
Flags: W
HStem: 1 146<293 732> 147 146<732 878> 586 146<293 878> 878 147<293 878> 1171 293<293 439 732 878>
VStem: 146 147<147 586> 293 146<1171 1464> 732 146<1171 1464> 878 146<1 147 293 586 732 878>
LayerCount: 2
Back
Fore
SplineSet
293 951 m 1x7a80
 293 1025 l 1
 585 1025 l 1
 878 1025 l 1
 878 951 l 1
 878 878 l 1
 951 878 l 1
 1024 878 l 1
 1024 440 l 1
 1024 1 l 1
 951 1 l 1
 878 1 l 1xba80
 878 74 l 1
 878 147 l 1
 805 147 l 1x7a80
 732 147 l 1
 732 74 l 1
 732 1 l 1
 512 1 l 1
 293 1 l 1
 293 74 l 1xbb
 293 147 l 1xbc
 219 147 l 1
 146 147 l 1
 146 366 l 1
 146 586 l 1
 219 586 l 1
 293 586 l 1x7c
 293 659 l 1
 293 732 l 1
 585 732 l 1
 878 732 l 1
 878 805 l 1
 878 878 l 1
 585 878 l 1
 293 878 l 1
 293 951 l 1x7a80
878 439 m 1
 878 586 l 1x7880
 585 586 l 1
 293 586 l 1
 293 366 l 1
 293 147 l 1
 512 147 l 1
 732 147 l 1xbd
 732 220 l 1
 732 293 l 1x7d
 805 293 l 1
 878 293 l 1x7880
 878 439 l 1
732 1317 m 1x39
 732 1464 l 1
 805 1464 l 1
 878 1464 l 1
 878 1317 l 1
 878 1171 l 1
 805 1171 l 1
 732 1171 l 1
 732 1317 l 1x39
293 1317 m 1x3a
 293 1464 l 1
 366 1464 l 1
 439 1464 l 1
 439 1317 l 1
 439 1171 l 1
 366 1171 l 1
 293 1171 l 1
 293 1317 l 1x3a
EndSplineSet
EndChar

StartChar: aring
Encoding: 229 229 164
Width: 1170
VWidth: 0
Flags: W
HStem: 1 146<293 732> 147 146<732 878> 586 146<293 878> 878 293<439 732> 878 147<293 439 732 878> 1171 146<293 439 732 878> 1317 147<439 732>
VStem: 146 147<147 586> 293 146<1171 1317> 439 293<1025 1171 1317 1464> 732 146<1171 1317> 878 146<1 147 293 586 732 878>
LayerCount: 2
Back
Fore
SplineSet
439 1391 m 1x2440
 439 1464 l 1
 585 1464 l 1
 732 1464 l 1x2240
 732 1391 l 1
 732 1317 l 1x2440
 805 1317 l 1
 878 1317 l 1
 878 1244 l 1
 878 1171 l 1
 805 1171 l 1x2420
 732 1171 l 1x3040
 732 1098 l 1
 732 1025 l 1
 805 1025 l 1
 878 1025 l 1
 878 951 l 1
 878 878 l 1
 951 878 l 1
 1024 878 l 1
 1024 440 l 1
 1024 1 l 1
 951 1 l 1
 878 1 l 1xa850
 878 74 l 1
 878 147 l 1
 805 147 l 1x6050
 732 147 l 1
 732 74 l 1
 732 1 l 1
 512 1 l 1
 293 1 l 1
 293 74 l 1xa0a0
 293 147 l 1xa1
 219 147 l 1
 146 147 l 1
 146 366 l 1
 146 586 l 1
 219 586 l 1
 293 586 l 1x61
 293 659 l 1
 293 732 l 1
 585 732 l 1
 878 732 l 1
 878 805 l 1
 878 878 l 1x6890
 585 878 l 1x3090
 293 878 l 1
 293 951 l 1
 293 1025 l 1x2890
 366 1025 l 1
 439 1025 l 1
 439 1098 l 1x2840
 439 1171 l 1x3080
 366 1171 l 1
 293 1171 l 1
 293 1244 l 1
 293 1317 l 1
 366 1317 l 1
 439 1317 l 1x2480
 439 1391 l 1x2440
732 1244 m 1x3020
 732 1317 l 1x2440
 585 1317 l 1x2240
 439 1317 l 1x2480
 439 1244 l 1
 439 1171 l 1x3080
 585 1171 l 1
 732 1171 l 1x3040
 732 1244 l 1x3020
878 439 m 1x6010
 878 586 l 1x6010
 585 586 l 1
 293 586 l 1
 293 366 l 1
 293 147 l 1
 512 147 l 1
 732 147 l 1xa120
 732 220 l 1
 732 293 l 1x6120
 805 293 l 1
 878 293 l 1
 878 439 l 1x6010
EndSplineSet
EndChar

StartChar: ae
Encoding: 230 230 165
Width: 1170
VWidth: 0
Flags: W
HStem: 1 146<146 439 585 878> 439 147<585 878> 586 146<146 439> 878 147<146 439 585 878>
VStem: 0 146<147 586> 146 293<1 147 878 1025> 439 146<147 439 732 878> 585 293<1 147 878 1025> 878 146<586 878>
LayerCount: 2
Back
Fore
SplineSet
146 951 m 1xb4
 146 1025 l 1
 293 1025 l 1
 439 1025 l 1
 439 951 l 1
 439 878 l 1xb4
 512 878 l 1
 585 878 l 1xb2
 585 951 l 1
 585 1025 l 1
 732 1025 l 1
 878 1025 l 1
 878 951 l 1
 878 878 l 1xb1
 951 878 l 1
 1024 878 l 1
 1024 659 l 1
 1024 439 l 1
 805 439 l 1
 585 439 l 1
 585 293 l 1
 585 147 l 1xd280
 732 147 l 1
 878 147 l 1
 878 74 l 1
 878 1 l 1
 732 1 l 1
 585 1 l 1
 585 74 l 1xd1
 585 147 l 1xd2
 512 147 l 1
 439 147 l 1
 439 74 l 1
 439 1 l 1
 293 1 l 1
 146 1 l 1
 146 74 l 1xd4
 146 147 l 1
 73 147 l 1
 0 147 l 1
 0 366 l 1
 0 586 l 1
 73 586 l 1
 146 586 l 1xb8
 146 659 l 1
 146 732 l 1xb4
 293 732 l 1
 439 732 l 1
 439 805 l 1xb2
 439 878 l 1
 293 878 l 1
 146 878 l 1
 146 951 l 1xb4
878 732 m 1xb080
 878 878 l 1xb1
 732 878 l 1
 585 878 l 1
 585 732 l 1xb2
 585 586 l 1xd1
 732 586 l 1
 878 586 l 1xd080
 878 732 l 1xb080
439 366 m 1xb2
 439 586 l 1
 293 586 l 1
 146 586 l 1
 146 366 l 1
 146 147 l 1xba
 293 147 l 1
 439 147 l 1xb4
 439 366 l 1xb2
EndSplineSet
EndChar

StartChar: ccedilla
Encoding: 231 231 166
Width: 1170
VWidth: 0
Flags: W
HStem: -292 147<293 439> -145 292<439 585> 1 146<293 439 585 878> 147 146<878 1024> 732 146<878 1024> 878 147<293 878>
VStem: 146 147<147 878> 293 146<-292 -145> 439 146<-145 1> 878 146<147 293 732 878>
LayerCount: 2
Back
Fore
SplineSet
293 951 m 1x1540
 293 1025 l 1x1540
 585 1025 l 1
 878 1025 l 1x14c0
 878 951 l 1
 878 878 l 1
 951 878 l 1
 1024 878 l 1
 1024 805 l 1
 1024 732 l 1
 951 732 l 1
 878 732 l 1
 878 805 l 1
 878 878 l 1x08c0
 585 878 l 1
 293 878 l 1
 293 513 l 1
 293 147 l 1x26c0
 585 147 l 1x42c0
 878 147 l 1x22c0
 878 220 l 1
 878 293 l 1
 951 293 l 1
 1024 293 l 1
 1024 220 l 1
 1024 147 l 1
 951 147 l 1x12c0
 878 147 l 1
 878 74 l 1
 878 1 l 1
 732 1 l 1
 585 1 l 1x22c0
 585 -72 l 1
 585 -145 l 1
 512 -145 l 1x42c0
 439 -145 l 1
 439 -219 l 1
 439 -292 l 1
 366 -292 l 1
 293 -292 l 1
 293 -219 l 1
 293 -145 l 1
 366 -145 l 1
 439 -145 l 1x8140
 439 -72 l 1
 439 1 l 1xa0c0
 366 1 l 1
 293 1 l 1
 293 74 l 1xa140
 293 147 l 1xa240
 219 147 l 1
 146 147 l 1
 146 513 l 1
 146 878 l 1
 219 878 l 1
 293 878 l 1x1640
 293 951 l 1x1540
EndSplineSet
EndChar

StartChar: egrave
Encoding: 232 232 167
Width: 1170
VWidth: 0
Flags: W
HStem: 1 146<293 1024> 439 147<293 878> 878 147<293 878> 1171 146<585 732> 1317 147<439 585>
VStem: 146 147<147 439 586 878> 439 146<1317 1464> 585 147<1171 1317> 878 146<586 878>
LayerCount: 2
Back
Fore
SplineSet
293 951 m 1xe580
 293 1025 l 1
 585 1025 l 1
 878 1025 l 1
 878 951 l 1
 878 878 l 1
 951 878 l 1
 1024 878 l 1
 1024 659 l 1
 1024 439 l 1
 658 439 l 1
 293 439 l 1
 293 293 l 1
 293 147 l 1
 658 147 l 1
 1024 147 l 1
 1024 74 l 1
 1024 1 l 1
 658 1 l 1
 293 1 l 1
 293 74 l 1
 293 147 l 1
 219 147 l 1
 146 147 l 1
 146 513 l 1
 146 878 l 1
 219 878 l 1
 293 878 l 1
 293 951 l 1xe580
878 732 m 1
 878 878 l 1
 585 878 l 1
 293 878 l 1
 293 732 l 1
 293 586 l 1
 585 586 l 1
 878 586 l 1
 878 732 l 1
439 1391 m 1xee80
 439 1464 l 1
 512 1464 l 1
 585 1464 l 1xee80
 585 1391 l 1
 585 1317 l 1xf680
 659 1317 l 1
 732 1317 l 1
 732 1244 l 1
 732 1171 l 1
 659 1171 l 1
 585 1171 l 1
 585 1244 l 1xf580
 585 1317 l 1xf680
 512 1317 l 1
 439 1317 l 1
 439 1391 l 1xee80
EndSplineSet
EndChar

StartChar: eacute
Encoding: 233 233 168
Width: 1170
VWidth: 0
Flags: W
HStem: 1 146<293 1024> 439 147<293 878> 878 147<293 878> 1171 146<439 585> 1317 147<585 732>
VStem: 146 147<147 439 586 878> 439 146<1171 1317> 585 147<1317 1464> 878 146<586 878>
LayerCount: 2
Back
Fore
SplineSet
293 951 m 1xe580
 293 1025 l 1
 585 1025 l 1
 878 1025 l 1
 878 951 l 1
 878 878 l 1
 951 878 l 1
 1024 878 l 1
 1024 659 l 1
 1024 439 l 1
 658 439 l 1
 293 439 l 1
 293 293 l 1
 293 147 l 1
 658 147 l 1
 1024 147 l 1
 1024 74 l 1
 1024 1 l 1
 658 1 l 1
 293 1 l 1
 293 74 l 1
 293 147 l 1
 219 147 l 1
 146 147 l 1
 146 513 l 1
 146 878 l 1
 219 878 l 1
 293 878 l 1
 293 951 l 1xe580
878 732 m 1
 878 878 l 1
 585 878 l 1
 293 878 l 1
 293 732 l 1
 293 586 l 1
 585 586 l 1
 878 586 l 1
 878 732 l 1
585 1391 m 1
 585 1464 l 1
 659 1464 l 1
 732 1464 l 1
 732 1391 l 1
 732 1317 l 1
 659 1317 l 1xed80
 585 1317 l 1
 585 1244 l 1
 585 1171 l 1
 512 1171 l 1
 439 1171 l 1
 439 1244 l 1
 439 1317 l 1
 512 1317 l 1
 585 1317 l 1xf680
 585 1391 l 1
EndSplineSet
EndChar

StartChar: ecircumflex
Encoding: 234 234 169
Width: 1170
VWidth: 0
Flags: W
HStem: 1 146<293 1024> 439 147<293 878> 878 147<293 878> 1171 146<293 439 732 878> 1317 147<439 732>
VStem: 146 147<147 439 586 878> 293 146<1171 1317> 439 293<1317 1464> 732 146<1171 1317> 878 146<586 878>
LayerCount: 2
Back
Fore
SplineSet
293 951 m 1xe2
 293 1025 l 1xe2
 585 1025 l 1
 878 1025 l 1
 878 951 l 1
 878 878 l 1
 951 878 l 1
 1024 878 l 1
 1024 659 l 1
 1024 439 l 1
 658 439 l 1
 293 439 l 1
 293 293 l 1
 293 147 l 1xe440
 658 147 l 1
 1024 147 l 1
 1024 74 l 1
 1024 1 l 1
 658 1 l 1
 293 1 l 1
 293 74 l 1xe240
 293 147 l 1
 219 147 l 1
 146 147 l 1
 146 513 l 1
 146 878 l 1
 219 878 l 1
 293 878 l 1xe4
 293 951 l 1xe2
878 732 m 1xe440
 878 878 l 1
 585 878 l 1
 293 878 l 1
 293 732 l 1
 293 586 l 1
 585 586 l 1
 878 586 l 1
 878 732 l 1xe440
439 1391 m 1xf1
 439 1464 l 1
 585 1464 l 1
 732 1464 l 1xe9
 732 1391 l 1
 732 1317 l 1xf1
 805 1317 l 1
 878 1317 l 1
 878 1244 l 1
 878 1171 l 1
 805 1171 l 1
 732 1171 l 1
 732 1244 l 1xf080
 732 1317 l 1xf1
 585 1317 l 1xe9
 439 1317 l 1
 439 1244 l 1
 439 1171 l 1
 366 1171 l 1
 293 1171 l 1
 293 1244 l 1
 293 1317 l 1
 366 1317 l 1
 439 1317 l 1xf2
 439 1391 l 1xf1
EndSplineSet
EndChar

StartChar: edieresis
Encoding: 235 235 170
Width: 1170
VWidth: 0
Flags: W
HStem: 1 146<293 1024> 439 147<293 878> 878 147<293 878> 1171 293<293 439 732 878>
VStem: 146 147<147 439 586 878> 293 146<1171 1464> 732 146<1171 1464> 878 146<586 878>
LayerCount: 2
Back
Fore
SplineSet
293 951 m 1xf4
 293 1025 l 1xf4
 585 1025 l 1
 878 1025 l 1
 878 951 l 1
 878 878 l 1
 951 878 l 1
 1024 878 l 1
 1024 659 l 1
 1024 439 l 1
 658 439 l 1
 293 439 l 1
 293 293 l 1
 293 147 l 1xf9
 658 147 l 1
 1024 147 l 1
 1024 74 l 1
 1024 1 l 1
 658 1 l 1
 293 1 l 1
 293 74 l 1xf5
 293 147 l 1
 219 147 l 1
 146 147 l 1
 146 513 l 1
 146 878 l 1
 219 878 l 1
 293 878 l 1xf8
 293 951 l 1xf4
878 732 m 1xf9
 878 878 l 1
 585 878 l 1
 293 878 l 1
 293 732 l 1
 293 586 l 1
 585 586 l 1
 878 586 l 1
 878 732 l 1xf9
732 1317 m 1xf2
 732 1464 l 1
 805 1464 l 1
 878 1464 l 1
 878 1317 l 1
 878 1171 l 1
 805 1171 l 1
 732 1171 l 1
 732 1317 l 1xf2
293 1317 m 1xf4
 293 1464 l 1
 366 1464 l 1
 439 1464 l 1
 439 1317 l 1
 439 1171 l 1
 366 1171 l 1
 293 1171 l 1
 293 1317 l 1xf4
EndSplineSet
EndChar

StartChar: igrave
Encoding: 236 236 171
Width: 1170
VWidth: 0
Flags: W
HStem: 1 146<585 878> 878 147<146 439> 1171 146<439 585> 1317 147<293 439>
VStem: 293 146<1317 1464> 439 146<147 878 1171 1317>
LayerCount: 2
Back
Fore
SplineSet
146 951 m 1xc8
 146 1025 l 1
 366 1025 l 1
 585 1025 l 1
 585 586 l 1
 585 147 l 1
 732 147 l 1
 878 147 l 1
 878 74 l 1
 878 1 l 1
 659 1 l 1
 439 1 l 1
 439 440 l 1
 439 878 l 1xc4
 293 878 l 1
 146 878 l 1
 146 951 l 1xc8
293 1391 m 1xd8
 293 1464 l 1
 366 1464 l 1
 439 1464 l 1xd8
 439 1391 l 1
 439 1317 l 1xe8
 512 1317 l 1
 585 1317 l 1
 585 1244 l 1
 585 1171 l 1
 512 1171 l 1
 439 1171 l 1
 439 1244 l 1xe4
 439 1317 l 1xe8
 366 1317 l 1
 293 1317 l 1
 293 1391 l 1xd8
EndSplineSet
EndChar

StartChar: iacute
Encoding: 237 237 172
Width: 1170
VWidth: 0
Flags: W
HStem: 1 146<585 878> 878 147<146 439> 1171 146<439 585> 1317 147<585 732>
VStem: 439 146<147 878 1171 1317> 585 147<1317 1464>
LayerCount: 2
Back
Fore
SplineSet
146 951 m 1xc8
 146 1025 l 1
 366 1025 l 1
 585 1025 l 1xc4
 585 586 l 1
 585 147 l 1xc8
 732 147 l 1xc4
 878 147 l 1
 878 74 l 1
 878 1 l 1
 659 1 l 1
 439 1 l 1
 439 440 l 1
 439 878 l 1
 293 878 l 1
 146 878 l 1
 146 951 l 1xc8
585 1391 m 1
 585 1464 l 1
 659 1464 l 1
 732 1464 l 1
 732 1391 l 1
 732 1317 l 1
 659 1317 l 1xd4
 585 1317 l 1
 585 1244 l 1
 585 1171 l 1
 512 1171 l 1
 439 1171 l 1
 439 1244 l 1
 439 1317 l 1
 512 1317 l 1
 585 1317 l 1xe8
 585 1391 l 1
EndSplineSet
EndChar

StartChar: icircumflex
Encoding: 238 238 173
Width: 1170
VWidth: 0
Flags: W
HStem: 1 146<585 878> 878 147<146 439> 1171 146<146 293 585 732> 1317 147<293 585>
VStem: 146 147<1171 1317> 293 292<1317 1464> 439 146<147 878> 585 147<1171 1317>
LayerCount: 2
Back
Fore
SplineSet
146 951 m 1xc8
 146 1025 l 1
 366 1025 l 1
 585 1025 l 1xc9
 585 586 l 1
 585 147 l 1xc2
 732 147 l 1xc1
 878 147 l 1
 878 74 l 1
 878 1 l 1
 659 1 l 1
 439 1 l 1
 439 440 l 1
 439 878 l 1xc2
 293 878 l 1xc4
 146 878 l 1
 146 951 l 1xc8
293 1391 m 1xe4
 293 1464 l 1xd4
 439 1464 l 1xd2
 585 1464 l 1xd4
 585 1391 l 1
 585 1317 l 1xe4
 659 1317 l 1
 732 1317 l 1
 732 1244 l 1
 732 1171 l 1
 659 1171 l 1
 585 1171 l 1
 585 1244 l 1xe1
 585 1317 l 1xe4
 439 1317 l 1xd2
 293 1317 l 1
 293 1244 l 1
 293 1171 l 1
 219 1171 l 1
 146 1171 l 1
 146 1244 l 1
 146 1317 l 1
 219 1317 l 1
 293 1317 l 1xea
 293 1391 l 1xe4
EndSplineSet
EndChar

StartChar: idieresis
Encoding: 239 239 174
Width: 1170
VWidth: 0
Flags: W
HStem: 1 146<585 878> 878 147<146 439> 1171 293<146 293 585 732>
VStem: 146 147<1171 1464> 439 146<147 878> 585 147<1171 1464>
LayerCount: 2
Back
Fore
SplineSet
146 951 m 1xf8
 146 1025 l 1
 366 1025 l 1
 585 1025 l 1xf4
 585 586 l 1
 585 147 l 1xf8
 732 147 l 1xf4
 878 147 l 1
 878 74 l 1
 878 1 l 1
 659 1 l 1
 439 1 l 1
 439 440 l 1
 439 878 l 1
 293 878 l 1
 146 878 l 1
 146 951 l 1xf8
585 1317 m 1
 585 1464 l 1
 659 1464 l 1
 732 1464 l 1
 732 1317 l 1
 732 1171 l 1
 659 1171 l 1
 585 1171 l 1
 585 1317 l 1
146 1317 m 1
 146 1464 l 1
 219 1464 l 1
 293 1464 l 1
 293 1317 l 1
 293 1171 l 1
 219 1171 l 1
 146 1171 l 1
 146 1317 l 1
EndSplineSet
EndChar

StartChar: eth
Encoding: 240 240 175
Width: 1170
VWidth: 0
Flags: W
HStem: 1 146<293 878> 878 293<293 439 585 732> 878 147<439 585 732 878> 1171 146<439 585> 1317 147<293 439 585 732>
VStem: 146 147<147 878> 293 146<1025 1171 1317 1464> 439 146<1171 1317> 585 147<1025 1171 1317 1464> 878 146<147 878>
LayerCount: 2
Back
Fore
SplineSet
293 1391 m 1x8a40
 293 1464 l 1
 366 1464 l 1
 439 1464 l 1x8a40
 439 1391 l 1
 439 1317 l 1x9240
 512 1317 l 1
 585 1317 l 1x9140
 585 1391 l 1
 585 1464 l 1
 659 1464 l 1
 732 1464 l 1
 732 1391 l 1
 732 1317 l 1
 659 1317 l 1x88c0
 585 1317 l 1x9140
 585 1244 l 1
 585 1171 l 1xc140
 659 1171 l 1
 732 1171 l 1xc0c0
 732 1098 l 1
 732 1025 l 1
 805 1025 l 1
 878 1025 l 1
 878 951 l 1
 878 878 l 1
 951 878 l 1
 1024 878 l 1
 1024 513 l 1
 1024 147 l 1
 951 147 l 1
 878 147 l 1
 878 74 l 1
 878 1 l 1
 585 1 l 1
 293 1 l 1
 293 74 l 1xa2c0
 293 147 l 1
 219 147 l 1
 146 147 l 1
 146 513 l 1
 146 878 l 1
 219 878 l 1xa440
 293 878 l 1xc440
 293 1025 l 1xa240
 293 1171 l 1
 366 1171 l 1
 439 1171 l 1xc240
 439 1244 l 1xc140
 439 1317 l 1x9240
 366 1317 l 1
 293 1317 l 1
 293 1391 l 1x8a40
585 1098 m 1xa2c0
 585 1171 l 1xc140
 512 1171 l 1x9140
 439 1171 l 1xc240
 439 1098 l 1
 439 1025 l 1
 512 1025 l 1
 585 1025 l 1
 585 1098 l 1xa2c0
878 513 m 1
 878 878 l 1xa4c0
 585 878 l 1
 293 878 l 1
 293 513 l 1
 293 147 l 1
 585 147 l 1xc4c0
 878 147 l 1
 878 513 l 1
EndSplineSet
EndChar

StartChar: ntilde
Encoding: 241 241 176
Width: 1170
VWidth: 0
Flags: W
HStem: 1 21G<146 293 878 1024> 878 147<293 878> 1171 146<146 293 585 878> 1317 147<293 585 878 1024>
VStem: 146 147<1 878 1171 1317> 293 292<1317 1464> 585 293<1171 1317> 878 146<1 878 1317 1464>
LayerCount: 2
Back
Fore
SplineSet
146 513 m 1xca
 146 1025 l 1
 512 1025 l 1
 878 1025 l 1
 878 951 l 1
 878 878 l 1
 951 878 l 1
 1024 878 l 1
 1024 440 l 1
 1024 1 l 1
 951 1 l 1
 878 1 l 1
 878 440 l 1
 878 878 l 1xc9
 585 878 l 1
 293 878 l 1
 293 440 l 1
 293 1 l 1
 219 1 l 1
 146 1 l 1
 146 513 l 1xca
293 1391 m 1xe4
 293 1464 l 1
 439 1464 l 1
 585 1464 l 1xd4
 585 1391 l 1
 585 1317 l 1xe4
 732 1317 l 1
 878 1317 l 1xe2
 878 1391 l 1
 878 1464 l 1
 951 1464 l 1
 1024 1464 l 1
 1024 1391 l 1
 1024 1317 l 1
 951 1317 l 1xd1
 878 1317 l 1
 878 1244 l 1
 878 1171 l 1
 732 1171 l 1
 585 1171 l 1
 585 1244 l 1xe2
 585 1317 l 1xe4
 439 1317 l 1xd4
 293 1317 l 1
 293 1244 l 1
 293 1171 l 1
 219 1171 l 1
 146 1171 l 1
 146 1244 l 1
 146 1317 l 1
 219 1317 l 1
 293 1317 l 1xe8
 293 1391 l 1xe4
EndSplineSet
EndChar

StartChar: ograve
Encoding: 242 242 177
Width: 1170
VWidth: 0
Flags: W
HStem: 1 146<293 878> 878 147<293 878> 1171 146<585 732> 1317 147<439 585>
VStem: 146 147<147 878> 439 146<1317 1464> 585 147<1171 1317> 878 146<147 878>
LayerCount: 2
Back
Fore
SplineSet
293 951 m 1xcb
 293 1025 l 1
 585 1025 l 1
 878 1025 l 1
 878 951 l 1
 878 878 l 1
 951 878 l 1
 1024 878 l 1
 1024 513 l 1
 1024 147 l 1
 951 147 l 1
 878 147 l 1
 878 74 l 1
 878 1 l 1
 585 1 l 1
 293 1 l 1
 293 74 l 1
 293 147 l 1
 219 147 l 1
 146 147 l 1
 146 513 l 1
 146 878 l 1
 219 878 l 1
 293 878 l 1
 293 951 l 1xcb
878 513 m 1
 878 878 l 1
 585 878 l 1
 293 878 l 1
 293 513 l 1
 293 147 l 1
 585 147 l 1
 878 147 l 1
 878 513 l 1
439 1391 m 1xdd
 439 1464 l 1
 512 1464 l 1
 585 1464 l 1xdd
 585 1391 l 1
 585 1317 l 1xed
 659 1317 l 1
 732 1317 l 1
 732 1244 l 1
 732 1171 l 1
 659 1171 l 1
 585 1171 l 1
 585 1244 l 1xeb
 585 1317 l 1xed
 512 1317 l 1
 439 1317 l 1
 439 1391 l 1xdd
EndSplineSet
EndChar

StartChar: oacute
Encoding: 243 243 178
Width: 1170
VWidth: 0
Flags: W
HStem: 1 146<293 878> 878 147<293 878> 1171 146<439 585> 1317 147<585 732>
VStem: 146 147<147 878> 439 146<1171 1317> 585 147<1317 1464> 878 146<147 878>
LayerCount: 2
Back
Fore
SplineSet
293 951 m 1xcb
 293 1025 l 1
 585 1025 l 1
 878 1025 l 1
 878 951 l 1
 878 878 l 1
 951 878 l 1
 1024 878 l 1
 1024 513 l 1
 1024 147 l 1
 951 147 l 1
 878 147 l 1
 878 74 l 1
 878 1 l 1
 585 1 l 1
 293 1 l 1
 293 74 l 1
 293 147 l 1
 219 147 l 1
 146 147 l 1
 146 513 l 1
 146 878 l 1
 219 878 l 1
 293 878 l 1
 293 951 l 1xcb
878 513 m 1
 878 878 l 1
 585 878 l 1
 293 878 l 1
 293 513 l 1
 293 147 l 1
 585 147 l 1
 878 147 l 1
 878 513 l 1
585 1391 m 1
 585 1464 l 1
 659 1464 l 1
 732 1464 l 1
 732 1391 l 1
 732 1317 l 1
 659 1317 l 1xdb
 585 1317 l 1
 585 1244 l 1
 585 1171 l 1
 512 1171 l 1
 439 1171 l 1
 439 1244 l 1
 439 1317 l 1
 512 1317 l 1
 585 1317 l 1xed
 585 1391 l 1
EndSplineSet
EndChar

StartChar: ocircumflex
Encoding: 244 244 179
Width: 1170
VWidth: 0
Flags: W
HStem: 1 146<293 878> 878 147<293 878> 1171 146<293 439 732 878> 1317 147<439 732>
VStem: 146 147<147 878> 293 146<1171 1317> 439 293<1317 1464> 732 146<1171 1317> 878 146<147 878>
LayerCount: 2
Back
Fore
SplineSet
293 951 m 1xc4
 293 1025 l 1
 585 1025 l 1
 878 1025 l 1
 878 951 l 1
 878 878 l 1
 951 878 l 1
 1024 878 l 1
 1024 513 l 1
 1024 147 l 1
 951 147 l 1
 878 147 l 1
 878 74 l 1
 878 1 l 1
 585 1 l 1
 293 1 l 1
 293 74 l 1xc480
 293 147 l 1
 219 147 l 1
 146 147 l 1
 146 513 l 1
 146 878 l 1
 219 878 l 1
 293 878 l 1xc8
 293 951 l 1xc4
878 513 m 1
 878 878 l 1
 585 878 l 1
 293 878 l 1
 293 513 l 1
 293 147 l 1xc880
 585 147 l 1
 878 147 l 1
 878 513 l 1
439 1391 m 1xe2
 439 1464 l 1
 585 1464 l 1
 732 1464 l 1xd2
 732 1391 l 1
 732 1317 l 1xe2
 805 1317 l 1
 878 1317 l 1
 878 1244 l 1
 878 1171 l 1
 805 1171 l 1
 732 1171 l 1
 732 1244 l 1xe1
 732 1317 l 1xe2
 585 1317 l 1xd2
 439 1317 l 1
 439 1244 l 1
 439 1171 l 1
 366 1171 l 1
 293 1171 l 1
 293 1244 l 1
 293 1317 l 1
 366 1317 l 1
 439 1317 l 1xe4
 439 1391 l 1xe2
EndSplineSet
EndChar

StartChar: otilde
Encoding: 245 245 180
Width: 1170
VWidth: 0
Flags: W
HStem: 1 146<293 878> 878 147<293 878> 1171 146<146 293 585 878> 1317 147<293 585 878 1024>
VStem: 146 147<147 878 1171 1317> 293 292<1317 1464> 585 293<1171 1317> 878 146<147 878 1317 1464>
LayerCount: 2
Back
Fore
SplineSet
293 951 m 1xc4
 293 1025 l 1xc4
 585 1025 l 1xc2
 878 1025 l 1
 878 951 l 1
 878 878 l 1
 951 878 l 1
 1024 878 l 1
 1024 513 l 1
 1024 147 l 1
 951 147 l 1
 878 147 l 1
 878 74 l 1
 878 1 l 1xc1
 585 1 l 1xc2
 293 1 l 1
 293 74 l 1xc4
 293 147 l 1
 219 147 l 1
 146 147 l 1
 146 513 l 1
 146 878 l 1
 219 878 l 1
 293 878 l 1xc8
 293 951 l 1xc4
878 513 m 1xc1
 878 878 l 1xc1
 585 878 l 1
 293 878 l 1
 293 513 l 1
 293 147 l 1
 585 147 l 1xca
 878 147 l 1
 878 513 l 1xc1
293 1391 m 1xe4
 293 1464 l 1
 439 1464 l 1
 585 1464 l 1xd4
 585 1391 l 1
 585 1317 l 1xe4
 732 1317 l 1
 878 1317 l 1xe2
 878 1391 l 1
 878 1464 l 1
 951 1464 l 1
 1024 1464 l 1
 1024 1391 l 1
 1024 1317 l 1
 951 1317 l 1xd1
 878 1317 l 1
 878 1244 l 1
 878 1171 l 1
 732 1171 l 1
 585 1171 l 1
 585 1244 l 1xe2
 585 1317 l 1xe4
 439 1317 l 1xd4
 293 1317 l 1
 293 1244 l 1
 293 1171 l 1
 219 1171 l 1
 146 1171 l 1
 146 1244 l 1
 146 1317 l 1
 219 1317 l 1
 293 1317 l 1xe8
 293 1391 l 1xe4
EndSplineSet
EndChar

StartChar: odieresis
Encoding: 246 246 181
Width: 1170
VWidth: 0
Flags: W
HStem: 1 146<293 878> 878 147<293 878> 1171 293<293 439 732 878>
VStem: 146 147<147 878> 293 146<1171 1464> 732 146<1171 1464> 878 146<147 878>
LayerCount: 2
Back
Fore
SplineSet
293 951 m 1xe8
 293 1025 l 1
 585 1025 l 1
 878 1025 l 1
 878 951 l 1
 878 878 l 1
 951 878 l 1
 1024 878 l 1
 1024 513 l 1
 1024 147 l 1
 951 147 l 1
 878 147 l 1
 878 74 l 1
 878 1 l 1
 585 1 l 1
 293 1 l 1
 293 74 l 1xea
 293 147 l 1
 219 147 l 1
 146 147 l 1
 146 513 l 1
 146 878 l 1
 219 878 l 1
 293 878 l 1xf0
 293 951 l 1xe8
878 513 m 1
 878 878 l 1
 585 878 l 1
 293 878 l 1
 293 513 l 1
 293 147 l 1xf2
 585 147 l 1
 878 147 l 1
 878 513 l 1
732 1317 m 1xe4
 732 1464 l 1
 805 1464 l 1
 878 1464 l 1
 878 1317 l 1
 878 1171 l 1
 805 1171 l 1
 732 1171 l 1
 732 1317 l 1xe4
293 1317 m 1xe8
 293 1464 l 1
 366 1464 l 1
 439 1464 l 1
 439 1317 l 1
 439 1171 l 1
 366 1171 l 1
 293 1171 l 1
 293 1317 l 1xe8
EndSplineSet
EndChar

StartChar: divide
Encoding: 247 247 182
Width: 1170
VWidth: 0
Flags: W
HStem: 1 292<439 585> 439 147<146 878> 732 293<439 585>
VStem: 439 146<1 293 732 1025>
LayerCount: 2
Back
Fore
SplineSet
439 147 m 1
 439 293 l 1
 512 293 l 1
 585 293 l 1
 585 147 l 1
 585 1 l 1
 512 1 l 1
 439 1 l 1
 439 147 l 1
146 513 m 1
 146 586 l 1
 512 586 l 1
 878 586 l 1
 878 513 l 1
 878 439 l 1
 512 439 l 1
 146 439 l 1
 146 513 l 1
439 878 m 1
 439 1025 l 1
 512 1025 l 1
 585 1025 l 1
 585 878 l 1
 585 732 l 1
 512 732 l 1
 439 732 l 1
 439 878 l 1
EndSplineSet
EndChar

StartChar: oslash
Encoding: 248 248 183
Width: 1170
VWidth: 0
Flags: W
HStem: 1 146<0 146 293 878> 293 146<293 439> 439 147<439 585> 586 146<585 732> 732 293<732 878> 878 147<293 732> 1025 146<878 1024>
VStem: 0 146<1 147> 146 293<293 439> 146 147<147 293 439 878> 439 146<439 586> 585 147<586 732> 732 292<732 878> 878 146<147 732 1025 1171>
LayerCount: 2
Back
Fore
SplineSet
585 659 m 1xa010
 585 732 l 1
 659 732 l 1
 732 732 l 1
 732 659 l 1
 732 586 l 1
 659 586 l 1x9010
 585 586 l 1
 585 513 l 1
 585 439 l 1
 512 439 l 1xa020
 439 439 l 1xc080
 439 513 l 1
 439 586 l 1
 512 586 l 1
 585 586 l 1xa020
 585 659 l 1xa010
878 1098 m 1x8854
 878 1171 l 1
 951 1171 l 1
 1024 1171 l 1
 1024 1098 l 1
 1024 1025 l 1
 951 1025 l 1x8254
 878 1025 l 1x8854
 878 951 l 1
 878 878 l 1x8454
 951 878 l 1
 1024 878 l 1x8408
 1024 513 l 1
 1024 147 l 1
 951 147 l 1
 878 147 l 1
 878 74 l 1
 878 1 l 1
 585 1 l 1
 293 1 l 1
 293 74 l 1
 293 147 l 1x8454
 219 147 l 1
 146 147 l 1
 146 74 l 1
 146 1 l 1
 73 1 l 1
 0 1 l 1
 0 74 l 1
 0 147 l 1
 73 147 l 1
 146 147 l 1x85
 146 513 l 1
 146 878 l 1
 219 878 l 1
 293 878 l 1
 293 951 l 1
 293 1025 l 1
 585 1025 l 1x8450
 878 1025 l 1
 878 1098 l 1x8854
732 805 m 1x9008
 732 878 l 1
 512 878 l 1
 293 878 l 1
 293 659 l 1
 293 439 l 1xd448
 366 439 l 1
 439 439 l 1
 439 366 l 1
 439 293 l 1xd480
 366 293 l 1
 293 293 l 1
 293 220 l 1
 293 147 l 1
 585 147 l 1
 878 147 l 1
 878 440 l 1
 878 732 l 1
 805 732 l 1xc854
 732 732 l 1x9054
 732 805 l 1x9008
EndSplineSet
EndChar

StartChar: ugrave
Encoding: 249 249 184
Width: 1170
VWidth: 0
Flags: W
HStem: 1 146<293 732> 147 146<732 878> 1005 20G<146 293 878 1024> 1171 146<585 732> 1317 147<439 585>
VStem: 146 147<147 1025> 439 146<1317 1464> 585 147<1171 1317> 732 292<147 293> 878 146<1 147 293 1025>
LayerCount: 2
Back
Fore
SplineSet
146 586 m 1x6480
 146 1025 l 1
 219 1025 l 1
 293 1025 l 1
 293 586 l 1
 293 147 l 1
 512 147 l 1
 732 147 l 1xa480
 732 220 l 1
 732 293 l 1x6480
 805 293 l 1
 878 293 l 1x6440
 878 659 l 1
 878 1025 l 1
 951 1025 l 1
 1024 1025 l 1
 1024 513 l 1
 1024 1 l 1
 951 1 l 1
 878 1 l 1xa440
 878 74 l 1
 878 147 l 1
 805 147 l 1x6440
 732 147 l 1
 732 74 l 1
 732 1 l 1
 512 1 l 1
 293 1 l 1
 293 74 l 1
 293 147 l 1xa480
 219 147 l 1
 146 147 l 1
 146 586 l 1x6480
439 1391 m 1x2e
 439 1464 l 1
 512 1464 l 1
 585 1464 l 1x2e
 585 1391 l 1
 585 1317 l 1x36
 659 1317 l 1
 732 1317 l 1
 732 1244 l 1
 732 1171 l 1
 659 1171 l 1
 585 1171 l 1
 585 1244 l 1x35
 585 1317 l 1x36
 512 1317 l 1
 439 1317 l 1
 439 1391 l 1x2e
EndSplineSet
EndChar

StartChar: uacute
Encoding: 250 250 185
Width: 1170
VWidth: 0
Flags: W
HStem: 1 146<293 732> 147 146<732 878> 1005 20G<146 293 878 1024> 1171 146<439 585> 1317 147<585 732>
VStem: 146 147<147 1025> 439 146<1171 1317> 585 147<1317 1464> 732 292<147 293> 878 146<1 147 293 1025>
LayerCount: 2
Back
Fore
SplineSet
146 586 m 1x6480
 146 1025 l 1
 219 1025 l 1
 293 1025 l 1
 293 586 l 1
 293 147 l 1
 512 147 l 1
 732 147 l 1xa480
 732 220 l 1
 732 293 l 1x6480
 805 293 l 1
 878 293 l 1x6440
 878 659 l 1
 878 1025 l 1
 951 1025 l 1
 1024 1025 l 1
 1024 513 l 1
 1024 1 l 1
 951 1 l 1
 878 1 l 1xa440
 878 74 l 1
 878 147 l 1
 805 147 l 1x6440
 732 147 l 1
 732 74 l 1
 732 1 l 1
 512 1 l 1
 293 1 l 1
 293 74 l 1
 293 147 l 1xa480
 219 147 l 1
 146 147 l 1
 146 586 l 1x6480
585 1391 m 1x35
 585 1464 l 1
 659 1464 l 1
 732 1464 l 1
 732 1391 l 1
 732 1317 l 1
 659 1317 l 1x2d
 585 1317 l 1
 585 1244 l 1
 585 1171 l 1
 512 1171 l 1
 439 1171 l 1
 439 1244 l 1
 439 1317 l 1
 512 1317 l 1
 585 1317 l 1x36
 585 1391 l 1x35
EndSplineSet
EndChar

StartChar: ucircumflex
Encoding: 251 251 186
Width: 1170
VWidth: 0
Flags: W
HStem: 1 146<293 732> 147 146<732 878> 1005 20G<146 293 878 1024> 1171 146<293 439 732 878> 1317 147<439 732>
VStem: 146 147<147 1025> 293 146<1171 1317> 439 293<1317 1464> 732 146<1171 1317> 878 146<1 147 293 1025>
LayerCount: 2
Back
Fore
SplineSet
146 586 m 1x64
 146 1025 l 1
 219 1025 l 1
 293 1025 l 1
 293 586 l 1
 293 147 l 1
 512 147 l 1
 732 147 l 1xa480
 732 220 l 1
 732 293 l 1x6480
 805 293 l 1
 878 293 l 1x6040
 878 659 l 1
 878 1025 l 1
 951 1025 l 1
 1024 1025 l 1
 1024 513 l 1
 1024 1 l 1
 951 1 l 1
 878 1 l 1xa040
 878 74 l 1
 878 147 l 1
 805 147 l 1x6040
 732 147 l 1
 732 74 l 1
 732 1 l 1
 512 1 l 1
 293 1 l 1
 293 74 l 1xa280
 293 147 l 1xa4
 219 147 l 1
 146 147 l 1
 146 586 l 1x64
439 1391 m 1x31
 439 1464 l 1
 585 1464 l 1
 732 1464 l 1x29
 732 1391 l 1
 732 1317 l 1x31
 805 1317 l 1
 878 1317 l 1
 878 1244 l 1
 878 1171 l 1
 805 1171 l 1
 732 1171 l 1
 732 1244 l 1x3080
 732 1317 l 1x31
 585 1317 l 1x29
 439 1317 l 1
 439 1244 l 1
 439 1171 l 1
 366 1171 l 1
 293 1171 l 1
 293 1244 l 1
 293 1317 l 1
 366 1317 l 1
 439 1317 l 1x32
 439 1391 l 1x31
EndSplineSet
EndChar

StartChar: udieresis
Encoding: 252 252 187
Width: 1170
VWidth: 0
Flags: W
HStem: 1 146<293 732> 147 146<732 878> 1005 20G<146 293 878 1024> 1171 293<293 439 732 878>
VStem: 146 147<147 1025> 293 146<1171 1464> 732 146<1171 1464> 878 146<1 147 293 1025>
LayerCount: 2
Back
Fore
SplineSet
146 586 m 1x78
 146 1025 l 1
 219 1025 l 1
 293 1025 l 1
 293 586 l 1
 293 147 l 1
 512 147 l 1
 732 147 l 1xba
 732 220 l 1
 732 293 l 1x7a
 805 293 l 1
 878 293 l 1x71
 878 659 l 1
 878 1025 l 1
 951 1025 l 1
 1024 1025 l 1
 1024 513 l 1
 1024 1 l 1
 951 1 l 1
 878 1 l 1xb1
 878 74 l 1
 878 147 l 1
 805 147 l 1x71
 732 147 l 1
 732 74 l 1
 732 1 l 1
 512 1 l 1
 293 1 l 1
 293 74 l 1xb6
 293 147 l 1xb8
 219 147 l 1
 146 147 l 1
 146 586 l 1x78
732 1317 m 1
 732 1464 l 1
 805 1464 l 1
 878 1464 l 1
 878 1317 l 1
 878 1171 l 1
 805 1171 l 1
 732 1171 l 1
 732 1317 l 1
293 1317 m 1x34
 293 1464 l 1
 366 1464 l 1
 439 1464 l 1
 439 1317 l 1
 439 1171 l 1
 366 1171 l 1
 293 1171 l 1
 293 1317 l 1x34
EndSplineSet
EndChar

StartChar: yacute
Encoding: 253 253 188
Width: 1170
VWidth: 0
Flags: W
HStem: -438 146<293 878> 1 146<293 732> 147 146<732 878> 1005 20G<146 293 878 1024> 1171 146<439 585> 1317 147<585 732>
VStem: 146 147<147 1025> 439 146<1171 1317> 585 147<1317 1464> 732 292<147 293> 878 146<-292 147 293 1025>
LayerCount: 2
Back
Fore
SplineSet
146 586 m 1xb240
 146 1025 l 1
 219 1025 l 1
 293 1025 l 1
 293 586 l 1
 293 147 l 1
 512 147 l 1
 732 147 l 1xd240
 732 220 l 1
 732 293 l 1xb240
 805 293 l 1
 878 293 l 1
 878 659 l 1
 878 1025 l 1
 951 1025 l 1
 1024 1025 l 1
 1024 366 l 1
 1024 -292 l 1
 951 -292 l 1
 878 -292 l 1
 878 -365 l 1
 878 -438 l 1
 585 -438 l 1
 293 -438 l 1
 293 -365 l 1
 293 -292 l 1
 585 -292 l 1
 878 -292 l 1
 878 -72 l 1
 878 147 l 1
 805 147 l 1xb2a0
 732 147 l 1
 732 74 l 1
 732 1 l 1
 512 1 l 1
 293 1 l 1
 293 74 l 1
 293 147 l 1xd240
 219 147 l 1
 146 147 l 1
 146 586 l 1xb240
585 1391 m 1x9a80
 585 1464 l 1
 659 1464 l 1
 732 1464 l 1
 732 1391 l 1
 732 1317 l 1
 659 1317 l 1x9680
 585 1317 l 1
 585 1244 l 1
 585 1171 l 1
 512 1171 l 1
 439 1171 l 1
 439 1244 l 1
 439 1317 l 1
 512 1317 l 1
 585 1317 l 1x9b
 585 1391 l 1x9a80
EndSplineSet
EndChar

StartChar: thorn
Encoding: 254 254 189
Width: 1170
VWidth: 0
Flags: W
HStem: 1 146<293 878> 878 147<293 878> 1444 20G<146 293>
VStem: 146 147<-292 1 147 878 1025 1464> 878 146<147 878>
LayerCount: 2
Back
Fore
SplineSet
146 586 m 1
 146 1464 l 1
 219 1464 l 1
 293 1464 l 1
 293 1244 l 1
 293 1025 l 1
 585 1025 l 1
 878 1025 l 1
 878 951 l 1
 878 878 l 1
 951 878 l 1
 1024 878 l 1
 1024 513 l 1
 1024 147 l 1
 951 147 l 1
 878 147 l 1
 878 74 l 1
 878 1 l 1
 585 1 l 1
 293 1 l 1
 293 -145 l 1
 293 -292 l 1
 219 -292 l 1
 146 -292 l 1
 146 586 l 1
878 513 m 1
 878 878 l 1
 585 878 l 1
 293 878 l 1
 293 513 l 1
 293 147 l 1
 585 147 l 1
 878 147 l 1
 878 513 l 1
EndSplineSet
EndChar

StartChar: ydieresis
Encoding: 255 255 190
Width: 1170
VWidth: 0
Flags: W
HStem: -438 146<293 878> 1 146<293 732> 147 146<732 878> 1005 20G<146 293 878 1024> 1171 293<293 439 732 878>
VStem: 146 147<147 1025> 293 146<1171 1464> 732 146<1171 1464> 878 146<-292 147 293 1025>
LayerCount: 2
Back
Fore
SplineSet
146 586 m 1xbc
 146 1025 l 1
 219 1025 l 1
 293 1025 l 1
 293 586 l 1
 293 147 l 1
 512 147 l 1
 732 147 l 1xdd
 732 220 l 1
 732 293 l 1xbd
 805 293 l 1
 878 293 l 1
 878 659 l 1
 878 1025 l 1
 951 1025 l 1
 1024 1025 l 1
 1024 366 l 1
 1024 -292 l 1
 951 -292 l 1
 878 -292 l 1
 878 -365 l 1
 878 -438 l 1
 585 -438 l 1
 293 -438 l 1
 293 -365 l 1
 293 -292 l 1
 585 -292 l 1
 878 -292 l 1
 878 -72 l 1
 878 147 l 1
 805 147 l 1xba80
 732 147 l 1
 732 74 l 1
 732 1 l 1
 512 1 l 1
 293 1 l 1
 293 74 l 1xdb
 293 147 l 1xdc
 219 147 l 1
 146 147 l 1
 146 586 l 1xbc
732 1317 m 1
 732 1464 l 1
 805 1464 l 1
 878 1464 l 1
 878 1317 l 1
 878 1171 l 1
 805 1171 l 1
 732 1171 l 1
 732 1317 l 1
293 1317 m 1x9a
 293 1464 l 1
 366 1464 l 1
 439 1464 l 1
 439 1317 l 1
 439 1171 l 1
 366 1171 l 1
 293 1171 l 1
 293 1317 l 1x9a
EndSplineSet
EndChar

